<svg xmlns="http://www.w3.org/2000/svg" width="100" height="100"><path d="M90 50l-5 5-34-34 .455-.507 31.203 31.198.04.055 1.618-1.632-1.685-1.697-.04-.04-.675.623-.499-.46L85 45zm-71.93 1l.5.463L15 55l-5-5 5-5 34 34-.455.493L17.49 48.444l-.053-.039-1.697 1.697 1.548 1.549.042.04zm36.862-31.288l25.892 25.89-.499.499-25.892-25.89zM80 41L59.499 20.494 60 20l20.542 20.537zM45.527 80.894L19.648 55l.5-.508L46 80.382zM20.483 59.49L41 80l-.458.544L20 60zm59.842-5.387l.5.512L54.931 80.49l-.499-.49zm-.39 4.957l.5.497L59.89 80.1l-.499-.485zM20.148 45.696l-.499-.498 25.88-25.876.472.485zm.243-5.09l-.5-.5 20.545-20.542.499.499zm31.066 40.813L55 85l-5 5-5-5 34-34 .506.462-31.203 31.196L50 84.382l1.74-1.683-.74-.782zm-2.924-62.851L45 15l5-5 5 5-34 34-.503-.46 31.12-31.13-1.548-1.537L50 15.82l-1.602 1.63.602.619zm7.032 25.538c-.012.014-.026.042-.04.067-.39.742-1.67 3.354-1.75 5.402-.04.823.16 1.51.552 1.901.27.27.674.403 1.104.403h.122c1.589-.08 4.635-.929 6.102-2.518C63 47.92 62.786 46 61.17 44.322c-.23-.228-.471-.47-.713-.687l-.122-.12C59 42.221 57.734 41 57.626 39.65c-.041-.297-.324-2.938.85-3.975.47-.416.996-.51 1.524-.283.778.391 1.25 1.55 1.222 2.398A5.228 5.228 0 0161 39.11l-.1.135.1-.04c.399-.095.695-.27.923-.54.283-.349.35-.887.175-1.386C62 37.102 62 37 61.87 36.833a1.059 1.059 0 01-.255-.833c.47.092.874.51 1.063 1.076.241.713.135 1.467-.283 1.98-.78.944-2.035.822-2.088.822l-.403-.055c-.027 0-.056-.027-.068-.053a.087.087 0 01.012-.096l.27-.308s.458-.54.5-1.589c.013-.7-.431-1.59-.916-1.832-.271-.122-.54-.055-.823.189-.81.713-.742 2.72-.646 3.448l.013.014c.081 1.13 1.266 2.262 2.52 3.474.234.255.552.538.835.822 1.845 1.846 2.047 4.216.497 5.886-1.603 1.724-4.782 2.627-6.52 2.707-.054.014-.107.014-.162.014-.62 0-1.133-.202-1.522-.593-.512-.512-.781-1.347-.74-2.356.04-.89.283-1.968.727-3.193l.119-.244-.226.177c-1 .876-2.05 1.414-2.979 1.885l-.053.028c-.297.147-.58.294-.835.443a.685.685 0 01-.041-.457.56.56 0 01.336-.405l.31-.16c1.375-.688 3.072-1.564 4.311-3.476.069-.095.122-.148.177-.297l.065-.094c.675-1.32 1.12-3.515.54-5.455-.027-.122-.08-.242-.12-.377l-.069.075h-.068c.204 1.205.056 2.524-.12 3.279-.538 2.236-2.228 3.393-4.649 4.47-2.074.93-2.37 2.615-2.396 3.302-.014.363.497 1.225.982 2.02l.027.054c.095.149.175.282.256.418l.11.202c.145.255.618 1.255.78 3.435.188 2.464.524 3.82 1.899 4.163.687.186 1.441.2 2.046.2.945.028 1.524.069 1.524.62-.013.405-.163 2.155-.807 2.748-.648.58-1 .485-2.145.216h-.011c-.258-.055-.486.014-.688.216-.296.31-.485.86-.458 1.347l.012.053.042.014c.445.08.983.39 1.146.82.04.07.102.095.102.109.06.027.207.027.545-.014l.455-.04c.177-.013.34-.013.487-.027h.08c.755-.041 1.484-.067 1.672-.499.095-.216.268-.726.47-1.32.823-2.478 1.241-3.542 1.671-3.73h.04V60c.013 0 .04-.133-.04-.349-.134-.377-.43-.713-.727-.848-.188-.08-.567-.067-.917-.055-.605.027-1.306.055-1.683-.39-.214-.242-.283-.606-.202-1.064.067-.404.149-.754.202-1.091.216-1.076.363-1.858.283-2.789.161 0 .308.069.432.177.134.12.232.295.232.483 0 .729-.18 1.428-.342 2.25l-.014.055c-.066.323-.12.62-.186 1.024-.054.269-.028.457.066.597.177.169.729.157 1.199.143.432-.027.848-.041 1.174.094.7.297 1.159 1.131 1.103 1.71 0 .31-.107.552-.35.674l-.026.014c-.283.255-.81 1.765-1.336 3.365-.214.621-.375 1.12-.483 1.35-.351.78-1.294.82-2.21.862h-.027a6.04 6.04 0 01-.499.025c-.175.014-.336.042-.471.055a5.758 5.758 0 01-.472.026c-.31 0-.565-.08-.78-.471l-.027-.053c-.055-.189-.485-.444-.81-.444h-.039c-.135.013-.284-.095-.325-.216v-.014c-.145-.727.056-1.683.58-2.21.35-.349.795-.496 1.275-.376 1.083.255 1.19.269 1.582-.08.418-.352.579-1.644.607-2.17v-.054l-.055-.013c-.134-.04-.552-.053-.835-.053h-.028c-.634-.014-1.427-.028-2.195-.23-1.886-.513-2.169-2.437-2.345-4.715-.028-.22-.054-.538-.081-.793l-.014-.055-.053-.014c-1.131-.053-2.156-.66-3.044-1.777l-.041-.055-.04.027c-.687.377-2.977 1.658-3.692 2.68-.58.85-1.05 2.021-.028 2.897.262.27.823.566 1.322.87 1.01.599 1.644 1 1.737 1.434a.6.6 0 01-.081.432c-.067.135-.15.241-.228.389-.351.62-.917 1.657-1.901 1.335-1.332-.432-1.98-.257-2.276-.041-.23.174-.378.452-.43.875v.067l.052.014c.594.161.904.687.984.835 0 .027.012.04.026.04l.057.014c0 .053.322.08 1 .08h.224c.31 0 .593.015.776.028.693.04.881.026 1.11-.282.148-.22.417-.581.728-1.039l.025-.04c1.389-2.061 1.82-2.613 2.137-2.721 0-.014.1-.108.116-.202.014-.095-.016-.217-.216-.35-.096-.067-.324-.134-.554-.188-.605-.175-1.346-.378-1.683-.97-.163-.31-.175-.71-.04-1.106C46 56.433 48 56 49.232 55.867c.015.23.043.43.068.605-.888.108-2.814.446-3.097 1.321-.082.207-.082.458.012.619.188.363.785.588 1.306.673.283.081.479.15.701.258.35.214.54.565.499.94a.85.85 0 01-.525.717h-.013c-.257.2-1.065 1.373-1.793 2.463l-.014.027c-.376.51-.619.917-.782 1.104-.43.567-.929.553-1.594.512-.264-.012-.52-.04-.816-.025-1.184.013-1.59-.014-1.82-.46-.067-.133-.364-.552-.794-.552a.305.305 0 01-.31-.31v-.026c0-.733.23-1.347.687-1.733.607-.381 1.548-.409 2.829 0 .418.143.728-.234 1.172-1l.052-.07c0-.121.097-.243.164-.35l.027-.04-.027-.028c-.164-.241-.915-.687-1.414-.996-.499-.282-1.05-.62-1.414-.93-1.053-.888-1.079-2.235-.067-3.69.731-1.106 2.909-2.345 3.81-2.83l.069-.067h-.041c-.244-.402-.417-.754-.54-1h.23c.135-.064.269-.09.392-.13.51 1.009 1.587 2.666 3.259 2.868l.096.014-.014-.094c-.163-.796-.338-1.267-.432-1.483-.098-.175-.27-.485-.31-.538-.053-.08-.093-.161-.15-.243-.469-.766-.862-1.394-1.007-1.966l-.041-.122-.083.095c-.507.599-1.035.928-1.736 1.078-.904.174-1.982-.27-2.936-.647-.648-.257-1.202-.47-1.403-.404-.565.175-.97.027-1.158-.08l-.042-.014-.027.027a2.541 2.541 0 00-.86.982c-.271.567-.54.657-.918.58-.16-.026-.308-.054-.646.215a.303.303 0 01-.242.067.274.274 0 01-.202-.147c-.337-.593-.39-1.832-.39-1.966v-.177l.147-.08c.648-.416 1.414-1.01 1.51-1.24.161-.537.396-.902.807-1.117.364-.188.794-.216 1.293-.066.512.16 1.375.2 2.296.12l.198-.014-.094-.106c-.23-.216-.743-.412-.768-.412-.15-.075-.271-.087-.336-.1-1-.095-1.658-.635-2-.9v-.071l-.278.122L39.6 45c-.12-.085-.526-.367-.754-1.567-.122-.619.012-1.433.154-2.101 0-.484.115-.97.087-1.185l-.013-.094-.074.053a.688.688 0 01-.585.067c-.498-.173-.702-.619-.809-.888l-.027-.04c-.08-.068-.309-.136-.446-.162h-.053C37 39.07 36.946 39 36.907 39a.394.394 0 01-.043-.24l.014-.054C37 38 37.565 37 38.455 37.182c.135.042.283.069.46.096h.011c.81.162 1.819.364 2.074 1.118 0 .216.108.526.204.89.189.807.485 2.032.796 2.478.241.39.389.538.442.606l.014.014h.027a38.4 38.4 0 002.91.566 4.98 4.98 0 00-.7.51c-1.187-.202-2.385-.46-2.424-.46l-.043-.05c-.067-.028-.226-.083-.739-.837-.379-.538-.662-1.777-.876-2.68-.096-.35-.163-.66-.23-.862-.121-.403-.929-.571-1.577-.686a6.8 6.8 0 01-.497-.108h-.068c-.297 0-.526.444-.646.727l-.028.067.067.013c.27.108.446.256.513.416h.013c.12.325.216.513.446.595h.053l.014-.013c.329-.257.605-.216.862.106.27.312.175.917.04 1.738-.107.646-.217 1.374-.12 1.887.094.538.227.834.322.996l.04.04.185-.068a.289.289 0 01.354.108c.014 0 .147.202.444.418.365.283.795.432 1.267.485.135.014.809.108 1.375.43.324.15.56.46.673.635l.014.04.053-.013c.634-.108 1.267-.257 1.82-.384v-.075c.606-.925 1.833-1.508 3.125-2.127l.054-.014c.404-.202.821-.404 1.266-.62 1.738-.888 3.624-2.72 3.907-4.472a2.778 2.778 0 00-.405-1.953l-.173-.27.04.31c.094.62 0 1.145-.256 1.55l-.013.026v.013c.013.27-.014.54-.067.81-.216.928-1.145 1.763-2.83 2.519-.539.241-1.024.457-1.47.66-2.68 1.17-3.69 1.643-4.067 3.232-.216.067-.432.12-.662.175.244-1.361.796-2.101 2.076-2.828l.04-.028-.012-.054c-.028-.134-.081-.283-.122-.403a2.688 2.688 0 01-.161-.58v-.027l-.041-.027c-.648-.31-.984-.982-1.065-1.185l.566-.216c.094.203.445.849 1.064.943.458.08.957-.499 1.361-.956.23-.256.417-.485.62-.607.08-.053.296-.2.782.204.146.147.228.322.215.51a.625.625 0 01-.175.43 5.164 5.164 0 00-.538-.537L49 40.375v.041c-.132.095-.252.242-.387.391-.405.458-.943 1.09-1.613 1.193h-.084l.026.06c.058.067.058.134.058.189 0 .094.077.188.105.296l.027.067.067-.027c.499-.256 1.076-.498 1.736-.794.432-.19.931-.404 1.457-.648 1.481-.673 2.316-1.373 2.493-2.143.363-1.56-1.133-2.572-1.47-2.759.109-.162.295-.241.5-.241.085 0 .282 0 .388.12.31.269.595.591.796.88l.149.29-.027-.29c-.026-.423-.221-.908-.419-1.352-.402-.728-.956-1.225-1.494-1.333l-.054-.014-.04.122a51.444 51.444 0 00-.525 1.453.32.32 0 01-.297.216c-.392.041-1.188.122-2.023.324-1.369.391-1.642.646-1.71.74l-.014.026.014.042c.013.04.055.094.096.149l.053.08 3.125-.754c.067.3-.175.674-.525.754l-1.064.256-.041.013-.014.041c0 .04-.014.08-.014.108V38h.08c.044-.062.083-.062.136-.09l.364-.107c.145-.053.35-.026.512.053a.69.69 0 01.297.351c-.107.028-.377.108-.998.297a1.125 1.125 0 01-.458.053.607.607 0 01-.375-.175.707.707 0 01-.163-.382v-.129l-.929.228c-.379.136-1.174.513-1.47.957a.433.433 0 00-.026.39l.027.067.069-.04a.326.326 0 01.416.134l.136.283c-.432.23-.621.283-.662.283l-.173.055-.124-.15c-.241-.255-.524-.834-.173-1.372.322-.471.93-.809 1.372-1.025l.07-.026-.041-.068a.576.576 0 01-.096-.587c.149-.45.77-.786 2.142-1.177h.014a14.2 14.2 0 011.901-.324h.04l.027-.04c.16-.459.375-1.063.485-1.373.053-.086.08-.203.08-.203.04-.121.15-.202.245-.202h.105c.605 0 1.228.319 1.764.984l.131.067c.274.094.517.202.747.35 1.184.58 2.033 1.63 2.451 3.045.538 1.873.295 4.216-.593 5.873zM16.833 52.19l-2.09-2.087 2.196-2.196L15.052 46H15l-4 4 4 4zm35.405 30.995L50 85.394l-2.195-2.237L46 85l3.947 3.95L50 89l4-4-1.723-1.763zm-4.339-66.246L50 14.823l2.116 2.089L54 15.066V15l-4-3.948V11l-4 4zM85 54l4-4-4-4-1.925 1.88 2.237 2.234-2.115 2.115L84.935 54zM54.839 39.352l-.15.364c-.755 1.832-2.6 3.284-3.96 3.988-.458.241-.902.444-1.348.66-1.82.848-2.937 1.427-3.086 2.636-.039.286-.295.543-.605.623a3.44 3.44 0 01.014-.848l.026-.096-.107.027c-1.806.485-4.043.607-5.094.294-.336-.105-.607-.091-.821 0-.228.152-.405.394-.511.77-.096.325-.662.849-1.604 1.456l-.028.027v.04c0 .188.041.707.136 1.064l.025.08.069-.039c.31-.135.54-.122.74-.082.014 0 .04 0 .069.013h.027l.026-.025a1.05 1.05 0 00.134-.23c.485-.982 1.308-1.373 1.347-1.386l.014-.014c.122-.041.257-.014.337.094.054.053.295.232.768.067.419-.122 1.024.165 1.82.432.82.336 1.857.733 2.572.605.996-.202 1.562-.872 2.115-2.033v.04l.136-.31c.444-1.051 1.251-1.846 2.437-2.37 2.292-1.038 3.813-2.075 4.298-4.056.08-.377.147-.888.175-1.4z"/><path fill="none" stroke="#000" stroke-miterlimit="20" d="M90 50l-5 5-34-34 .455-.507 31.203 31.198.04.055 1.618-1.632-1.685-1.697-.04-.04-.675.623-.499-.46L85 45zm-71.93 1l.5.463L15 55l-5-5 5-5 34 34-.455.493L17.49 48.444l-.053-.039-1.697 1.697 1.548 1.549.042.04zm36.862-31.288l25.892 25.89-.499.499-25.892-25.89zM80 41L59.499 20.494 60 20l20.542 20.537zM45.527 80.894L19.648 55l.5-.508L46 80.382zM20.483 59.49L41 80l-.458.544L20 60zm59.842-5.387l.5.512L54.931 80.49l-.499-.49zm-.39 4.957l.5.497L59.89 80.1l-.499-.485zM20.148 45.696l-.499-.498 25.88-25.876.472.485zm.243-5.09l-.5-.5 20.545-20.542.499.499zm31.066 40.813L55 85l-5 5-5-5 34-34 .506.462-31.203 31.196L50 84.382l1.74-1.683-.74-.782zm-2.924-62.851L45 15l5-5 5 5-34 34-.503-.46 31.12-31.13-1.548-1.537L50 15.82l-1.602 1.63.602.619zm7.032 25.538c-.012.014-.026.042-.04.067-.39.742-1.67 3.354-1.75 5.402-.04.823.16 1.51.552 1.901.27.27.674.403 1.104.403h.122c1.589-.08 4.635-.929 6.102-2.518C63 47.92 62.786 46 61.17 44.322c-.23-.228-.471-.47-.713-.687l-.122-.12C59 42.221 57.734 41 57.626 39.65c-.041-.297-.324-2.938.85-3.975.47-.416.996-.51 1.524-.283.778.391 1.25 1.55 1.222 2.398A5.228 5.228 0 0161 39.11l-.1.135.1-.04c.399-.095.695-.27.923-.54.283-.349.35-.887.175-1.386C62 37.102 62 37 61.87 36.833a1.059 1.059 0 01-.255-.833c.47.092.874.51 1.063 1.076.241.713.135 1.467-.283 1.98-.78.944-2.035.822-2.088.822l-.403-.055c-.027 0-.056-.027-.068-.053a.087.087 0 01.012-.096l.27-.308s.458-.54.5-1.589c.013-.7-.431-1.59-.916-1.832-.271-.122-.54-.055-.823.189-.81.713-.742 2.72-.646 3.448l.013.014c.081 1.13 1.266 2.262 2.52 3.474.234.255.552.538.835.822 1.845 1.846 2.047 4.216.497 5.886-1.603 1.724-4.782 2.627-6.52 2.707-.054.014-.107.014-.162.014-.62 0-1.133-.202-1.522-.593-.512-.512-.781-1.347-.74-2.356.04-.89.283-1.968.727-3.193l.119-.244-.226.177c-1 .876-2.05 1.414-2.979 1.885l-.053.028c-.297.147-.58.294-.835.443a.685.685 0 01-.041-.457.56.56 0 01.336-.405l.31-.16c1.375-.688 3.072-1.564 4.311-3.476.069-.095.122-.148.177-.297l.065-.094c.675-1.32 1.12-3.515.54-5.455-.027-.122-.08-.242-.12-.377l-.069.075h-.068c.204 1.205.056 2.524-.12 3.279-.538 2.236-2.228 3.393-4.649 4.47-2.074.93-2.37 2.615-2.396 3.302-.014.363.497 1.225.982 2.02l.027.054c.095.149.175.282.256.418l.11.202c.145.255.618 1.255.78 3.435.188 2.464.524 3.82 1.899 4.163.687.186 1.441.2 2.046.2.945.028 1.524.069 1.524.62-.013.405-.163 2.155-.807 2.748-.648.58-1 .485-2.145.216h-.011c-.258-.055-.486.014-.688.216-.296.31-.485.86-.458 1.347l.012.053.042.014c.445.08.983.39 1.146.82.04.07.102.095.102.109.06.027.207.027.545-.014l.455-.04c.177-.013.34-.013.487-.027h.08c.755-.041 1.484-.067 1.672-.499.095-.216.268-.726.47-1.32.823-2.478 1.241-3.542 1.671-3.73h.04V60c.013 0 .04-.133-.04-.349-.134-.377-.43-.713-.727-.848-.188-.08-.567-.067-.917-.055-.605.027-1.306.055-1.683-.39-.214-.242-.283-.606-.202-1.064.067-.404.149-.754.202-1.091.216-1.076.363-1.858.283-2.789.161 0 .308.069.432.177.134.12.232.295.232.483 0 .729-.18 1.428-.342 2.25l-.014.055c-.066.323-.12.62-.186 1.024-.054.269-.028.457.066.597.177.169.729.157 1.199.143.432-.027.848-.041 1.174.094.7.297 1.159 1.131 1.103 1.71 0 .31-.107.552-.35.674l-.026.014c-.283.255-.81 1.765-1.336 3.365-.214.621-.375 1.12-.483 1.35-.351.78-1.294.82-2.21.862h-.027a6.04 6.04 0 01-.499.025c-.175.014-.336.042-.471.055a5.758 5.758 0 01-.472.026c-.31 0-.565-.08-.78-.471l-.027-.053c-.055-.189-.485-.444-.81-.444h-.039c-.135.013-.284-.095-.325-.216v-.014c-.145-.727.056-1.683.58-2.21.35-.349.795-.496 1.275-.376 1.083.255 1.19.269 1.582-.08.418-.352.579-1.644.607-2.17v-.054l-.055-.013c-.134-.04-.552-.053-.835-.053h-.028c-.634-.014-1.427-.028-2.195-.23-1.886-.513-2.169-2.437-2.345-4.715-.028-.22-.054-.538-.081-.793l-.014-.055-.053-.014c-1.131-.053-2.156-.66-3.044-1.777l-.041-.055-.04.027c-.687.377-2.977 1.658-3.692 2.68-.58.85-1.05 2.021-.028 2.897.262.27.823.566 1.322.87 1.01.599 1.644 1 1.737 1.434a.6.6 0 01-.081.432c-.067.135-.15.241-.228.389-.351.62-.917 1.657-1.901 1.335-1.332-.432-1.98-.257-2.276-.041-.23.174-.378.452-.43.875v.067l.052.014c.594.161.904.687.984.835 0 .027.012.04.026.04l.057.014c0 .053.322.08 1 .08h.224c.31 0 .593.015.776.028.693.04.881.026 1.11-.282.148-.22.417-.581.728-1.039l.025-.04c1.389-2.061 1.82-2.613 2.137-2.721 0-.014.1-.108.116-.202.014-.095-.016-.217-.216-.35-.096-.067-.324-.134-.554-.188-.605-.175-1.346-.378-1.683-.97-.163-.31-.175-.71-.04-1.106C46 56.433 48 56 49.232 55.867c.015.23.043.43.068.605-.888.108-2.814.446-3.097 1.321-.082.207-.082.458.012.619.188.363.785.588 1.306.673.283.081.479.15.701.258.35.214.54.565.499.94a.85.85 0 01-.525.717h-.013c-.257.2-1.065 1.373-1.793 2.463l-.014.027c-.376.51-.619.917-.782 1.104-.43.567-.929.553-1.594.512-.264-.012-.52-.04-.816-.025-1.184.013-1.59-.014-1.82-.46-.067-.133-.364-.552-.794-.552a.305.305 0 01-.31-.31v-.026c0-.733.23-1.347.687-1.733.607-.381 1.548-.409 2.829 0 .418.143.728-.234 1.172-1l.052-.07c0-.121.097-.243.164-.35l.027-.04-.027-.028c-.164-.241-.915-.687-1.414-.996-.499-.282-1.05-.62-1.414-.93-1.053-.888-1.079-2.235-.067-3.69.731-1.106 2.909-2.345 3.81-2.83l.069-.067h-.041c-.244-.402-.417-.754-.54-1h.23c.135-.064.269-.09.392-.13.51 1.009 1.587 2.666 3.259 2.868l.096.014-.014-.094c-.163-.796-.338-1.267-.432-1.483-.098-.175-.27-.485-.31-.538-.053-.08-.093-.161-.15-.243-.469-.766-.862-1.394-1.007-1.966l-.041-.122-.083.095c-.507.599-1.035.928-1.736 1.078-.904.174-1.982-.27-2.936-.647-.648-.257-1.202-.47-1.403-.404-.565.175-.97.027-1.158-.08l-.042-.014-.027.027a2.541 2.541 0 00-.86.982c-.271.567-.54.657-.918.58-.16-.026-.308-.054-.646.215a.303.303 0 01-.242.067.274.274 0 01-.202-.147c-.337-.593-.39-1.832-.39-1.966v-.177l.147-.08c.648-.416 1.414-1.01 1.51-1.24.161-.537.396-.902.807-1.117.364-.188.794-.216 1.293-.066.512.16 1.375.2 2.296.12l.198-.014-.094-.106c-.23-.216-.743-.412-.768-.412-.15-.075-.271-.087-.336-.1-1-.095-1.658-.635-2-.9v-.071l-.278.122L39.6 45c-.12-.085-.526-.367-.754-1.567-.122-.619.012-1.433.154-2.101 0-.484.115-.97.087-1.185l-.013-.094-.074.053a.688.688 0 01-.585.067c-.498-.173-.702-.619-.809-.888l-.027-.04c-.08-.068-.309-.136-.446-.162h-.053C37 39.07 36.946 39 36.907 39a.394.394 0 01-.043-.24l.014-.054C37 38 37.565 37 38.455 37.182c.135.042.283.069.46.096h.011c.81.162 1.819.364 2.074 1.118 0 .216.108.526.204.89.189.807.485 2.032.796 2.478.241.39.389.538.442.606l.014.014h.027a38.4 38.4 0 002.91.566 4.98 4.98 0 00-.7.51c-1.187-.202-2.385-.46-2.424-.46l-.043-.05c-.067-.028-.226-.083-.739-.837-.379-.538-.662-1.777-.876-2.68-.096-.35-.163-.66-.23-.862-.121-.403-.929-.571-1.577-.686a6.8 6.8 0 01-.497-.108h-.068c-.297 0-.526.444-.646.727l-.028.067.067.013c.27.108.446.256.513.416h.013c.12.325.216.513.446.595h.053l.014-.013c.329-.257.605-.216.862.106.27.312.175.917.04 1.738-.107.646-.217 1.374-.12 1.887.094.538.227.834.322.996l.04.04.185-.068a.289.289 0 01.354.108c.014 0 .147.202.444.418.365.283.795.432 1.267.485.135.014.809.108 1.375.43.324.15.56.46.673.635l.014.04.053-.013c.634-.108 1.267-.257 1.82-.384v-.075c.606-.925 1.833-1.508 3.125-2.127l.054-.014c.404-.202.821-.404 1.266-.62 1.738-.888 3.624-2.72 3.907-4.472a2.778 2.778 0 00-.405-1.953l-.173-.27.04.31c.094.62 0 1.145-.256 1.55l-.013.026v.013c.013.27-.014.54-.067.81-.216.928-1.145 1.763-2.83 2.519-.539.241-1.024.457-1.47.66-2.68 1.17-3.69 1.643-4.067 3.232-.216.067-.432.12-.662.175.244-1.361.796-2.101 2.076-2.828l.04-.028-.012-.054c-.028-.134-.081-.283-.122-.403a2.688 2.688 0 01-.161-.58v-.027l-.041-.027c-.648-.31-.984-.982-1.065-1.185l.566-.216c.094.203.445.849 1.064.943.458.08.957-.499 1.361-.956.23-.256.417-.485.62-.607.08-.053.296-.2.782.204.146.147.228.322.215.51a.625.625 0 01-.175.43 5.164 5.164 0 00-.538-.537L49 40.375v.041c-.132.095-.252.242-.387.391-.405.458-.943 1.09-1.613 1.193h-.084l.026.06c.058.067.058.134.058.189 0 .094.077.188.105.296l.027.067.067-.027c.499-.256 1.076-.498 1.736-.794.432-.19.931-.404 1.457-.648 1.481-.673 2.316-1.373 2.493-2.143.363-1.56-1.133-2.572-1.47-2.759.109-.162.295-.241.5-.241.085 0 .282 0 .388.12.31.269.595.591.796.88l.149.29-.027-.29c-.026-.423-.221-.908-.419-1.352-.402-.728-.956-1.225-1.494-1.333l-.054-.014-.04.122a51.444 51.444 0 00-.525 1.453.32.32 0 01-.297.216c-.392.041-1.188.122-2.023.324-1.369.391-1.642.646-1.71.74l-.014.026.014.042c.013.04.055.094.096.149l.053.08 3.125-.754c.067.3-.175.674-.525.754l-1.064.256-.041.013-.014.041c0 .04-.014.08-.014.108V38h.08c.044-.062.083-.062.136-.09l.364-.107c.145-.053.35-.026.512.053a.69.69 0 01.297.351c-.107.028-.377.108-.998.297a1.125 1.125 0 01-.458.053.607.607 0 01-.375-.175.707.707 0 01-.163-.382v-.129l-.929.228c-.379.136-1.174.513-1.47.957a.433.433 0 00-.026.39l.027.067.069-.04a.326.326 0 01.416.134l.136.283c-.432.23-.621.283-.662.283l-.173.055-.124-.15c-.241-.255-.524-.834-.173-1.372.322-.471.93-.809 1.372-1.025l.07-.026-.041-.068a.576.576 0 01-.096-.587c.149-.45.77-.786 2.142-1.177h.014a14.2 14.2 0 011.901-.324h.04l.027-.04c.16-.459.375-1.063.485-1.373.053-.086.08-.203.08-.203.04-.121.15-.202.245-.202h.105c.605 0 1.228.319 1.764.984l.131.067c.274.094.517.202.747.35 1.184.58 2.033 1.63 2.451 3.045.538 1.873.295 4.216-.593 5.873zM16.833 52.19l-2.09-2.087 2.196-2.196L15.052 46H15l-4 4 4 4zm35.405 30.995L50 85.394l-2.195-2.237L46 85l3.947 3.95L50 89l4-4-1.723-1.763zm-4.339-66.246L50 14.823l2.116 2.089L54 15.066V15l-4-3.948V11l-4 4zM85 54l4-4-4-4-1.925 1.88 2.237 2.234-2.115 2.115L84.935 54zM54.839 39.352l-.15.364c-.755 1.832-2.6 3.284-3.96 3.988-.458.241-.902.444-1.348.66-1.82.848-2.937 1.427-3.086 2.636-.039.286-.295.543-.605.623a3.44 3.44 0 01.014-.848l.026-.096-.107.027c-1.806.485-4.043.607-5.094.294-.336-.105-.607-.091-.821 0-.228.152-.405.394-.511.77-.096.325-.662.849-1.604 1.456l-.028.027v.04c0 .188.041.707.136 1.064l.025.08.069-.039c.31-.135.54-.122.74-.082.014 0 .04 0 .069.013h.027l.026-.025a1.05 1.05 0 00.134-.23c.485-.982 1.308-1.373 1.347-1.386l.014-.014c.122-.041.257-.014.337.094.054.053.295.232.768.067.419-.122 1.024.165 1.82.432.82.336 1.857.733 2.572.605.996-.202 1.562-.872 2.115-2.033v.04l.136-.31c.444-1.051 1.251-1.846 2.437-2.37 2.292-1.038 3.813-2.075 4.298-4.056.08-.377.147-.888.175-1.4z"/></svg>