<svg xmlns="http://www.w3.org/2000/svg" width="80" height="79"><path d="M43.55 5.885l-1.604-1.576 1.609-1.589L80 38.71l-1.601 1.579-34.844-34.41zM36.355 76.37L0 40.287l1.604-1.576L36.36 73.206l2.04-2.014-12.84-12.68L2.756 36 39.202 0l1.599 1.578L6 36l1.91 1.919 19.032-18.795 1.604 1.576-16.28 16.08L9.51 39.5l17.627 17.407h1.754v-2.101H26.27v-2.109h-.045V28.4l.672-.296a32.493 32.493 0 0110.278-2.608l-4.872-4.81-3.469-3.427-.034-.034L40.063 6.102l5.12 5.033 6.166 6.09-.106.106L45 23.462v.003l-2 2.03c3.509.306 7 1.174 10.254 2.608l.67.296v24.173H54v2.234h-2.932v2.101h1.797L70.492 39.5 51.49 20.734l1.604-1.578 19.8 19.552.799.792 3.554 3.5L40.8 79l-1.599-1.581L74 43l-1.91-1.919-2.844 2.807L54 59v.142h-.198zm-7.867-23.8H51.66V42.276H28.488zm0-12.571h3.35v-9h-3.35zm5.612 0h11.951v-9h-11.95zm5.976-12.396c-2.787-.002-5.57.396-8.252 1.116h16.503c-2.68-.72-5.465-1.118-8.251-1.116zM40 25.134v.019a.29.29 0 00.076.008.086.086 0 00.037-.008.098.098 0 00.029-.018L48 17.33l-5.244-5.221L40 9.39l-8 7.868zM48.314 40h3.347v-9h-3.347zm-6.027 4.17a3.91 3.91 0 011.43 1.717c.2.467.283.982.283 1.518 0 .805-.22 1.595-.649 2.185A3.936 3.936 0 0141.615 51c-.476.202-.997.31-1.54.31a3.948 3.948 0 01-2.21-.667 3.896 3.896 0 01-1.743-3.238c0-.805.25-1.56.674-2.182a3.965 3.965 0 011.742-1.414 3.986 3.986 0 013.75.36zM40 69.61l10.603-10.468H29.4l7.846 7.748zm-8.842-12.703h17.648v-2.101H31.158zm10.476-8.851a1.604 1.604 0 01-.634.734c-.25.21-.57.285-.925.285-.235 0-.455-.075-.656-.13a1.69 1.69 0 01-.746-.607 1.632 1.632 0 01-.289-.933c0-.233.048-.405.132-.648A1.91 1.91 0 0139.13 46c.273-.16.59-.262.945-.265.236.003.455.047.66.133.265.132.56.337.743.607a1.651 1.651 0 01.156 1.58"/></svg>