<svg xmlns="http://www.w3.org/2000/svg" width="140" height="54"><defs><clipPath id="a"><path d="M136.806 30.078H140V33.3h-3.194z"/></clipPath><clipPath id="b"><path d="M70.131 44.01h14.265v9.672H70.13z"/></clipPath><clipPath id="c"><path d="M0 53.683h140V.711H0z"/></clipPath></defs><path fill="#fefefe" d="M70.931 2.308l9.171 9.392.398-.466-9.569-9.785-.424.432.423.429z"/><path fill="#fefefe" d="M69.042 21.476L59.5 11.7l.396-.464 9.148 9.379.537-.548-3.38-3.447-6.002-6.123L69.792.71l.42.43-9.17 9.356.514.524 5.009-5.11.422.389-4.285 4.411-.725.74 4.64 4.75h.461v-.589h-.69v-.573h-.012V8.432l.177-.08c.822-.39 1.776-.626 2.705-.709L67.976 6.3l-.913-.9h-.009L70 2.37l1.366 1.369 1.623 1.66h-.028L71.323 7.09h.003l-.54.553a8.245 8.245 0 012.714.71l.167.08v6.572h.01v.607h-.762v.588h.473l4.64-4.75-5.002-5.102.422-.429 5.211 5.316.21.216.936.954-9.592 9.785-.421-.43 9.171-9.355-.515-.525-.749.72-4.023 4.148v.043h-.041zm3.148-9.878h.881V9.127h-.88zM70 7.545L72.119 5.4l-1.392-1.397L70 3.264 67.905 5.4zm0 .671c-.712 0-1.444.102-2.15.304h4.344A7.933 7.933 0 0070 8.216zm-1.55 3.382h3.145V9.127h-3.146zm-1.478 0h.882V9.127h-.882zm0 3.407h6.1v-2.8h-6.1zm.703 1.195h4.645v-.588h-4.645zM70 19.637l2.793-2.846h-5.581l2.065 2.109z"/><path fill="#fefefe" d="M70.6 12.719a1.01 1.01 0 00-.6-.182c-.126 0-.264.063-.388.063a1.65 1.65 0 00-.487.405 1.367 1.367 0 00-.149.594c0 .146.03.286.082.413.067.191.21.388.377.467.165.114.367.182.565.181.16 0 .297-.03.422-.084.187-.08.345-.176.453-.384a1.074 1.074 0 00.1-1.007c-.1-.19-.21-.352-.376-.466m-.172 1.056a.443.443 0 01-.583.242.453.453 0 01-.272-.418c0-.099.012-.099.035-.177a.463.463 0 01.161-.2.425.425 0 01.422-.041c.08.034.148.091.196.165a.46.46 0 01.041.43"/><g clip-path="url(#a)"><path fill="#fefefe" d="M138.403 30.078l-1.597 1.629 1.597 1.593L140 31.707z"/></g><path fill="#fefefe" d="M0 31.707L1.596 33.3l1.596-1.593-1.596-1.629zm61.122 12.776l.128-.183.09-.105.116-.144a8.93 8.93 0 00.592-.682c.222-.28.45-.577.686-.891.266-.315.47-.631.701-.95.231-.32.44-.61.623-.872.184-.262.336-.48.457-.649.12-.171.188-.26.235-.27V39.6s0-.093.054-.163a.59.59 0 00.006-.19c-.008-.057-.06-.081-.06-.073-.107-.017-.17 0-.217.053-.046.052-.091.1-.134.144l-.18.23c-.154.172-.344.376-.475.59a43.44 43.44 0 01-.463.596 7.21 7.21 0 00-.784 1.022 14.46 14.46 0 01-.527.656c-.214.253-.432.51-.655.735-.223.3-.435.56-.636.818a5.436 5.436 0 00-.47.689.623.623 0 00-.07.085l-.058.085c-.103.123-.204.27-.302.393-.098.122-.19.253-.279.394-.151.236-.301.386-.447.582-.146.197-.287.396-.428.554-.065.114-.125.187-.176.266a1.477 1.477 0 01-.18.223.204.204 0 01-.064.125.286.286 0 00-.077.11 2.993 2.993 0 00-.378.551c-.151.193-.29.372-.444.525a.411.411 0 01-.084.124 1.43 1.43 0 00-.097.111c-.016.027-.04.061-.07.105a.25.25 0 01-.11.092c.026-.332.073-.677.142-1.036.068-.358.124-.69.167-.996.043-.401.103-.82.18-1.258.077-.437.15-.891.219-1.363.042-.07.097-.15.097-.279v-.298c0-.07.052-.138.07-.203.016-.066.034-.129.051-.19.009-.062.017-.118.025-.209.009 0 .022-.062.04-.106.033-.175.061-.35.082-.524a4.61 4.61 0 01.085-.486 3.947 3.947 0 01.128-.459c.042-.087.081-.17.115-.225a.405.405 0 00-.012-.299.915.915 0 00-.231-.21c-.086-.051-.18-.1-.283-.143a.91.91 0 00-.553.223c-.12.602-.223 1.21-.309 1.821-.083.612-.171 1.22-.257 1.823-.034.227-.066.46-.096.7-.03.241-.066.475-.11.703a37.907 37.907 0 00-.199 1.598c-.055.542-.104 1.08-.147 1.613 0 .192.062.35.186.472s.298.174.54.157a.3.3 0 00.186-.006.546.546 0 00.167-.099 1.16 1.16 0 00.142-.144c.042-.052.08-.109.115-.109.163-.245.332-.472.508-.717.176-.244.34-.48.495-.708a.08.08 0 01.007-.039.116.116 0 00.005-.04c.125-.2.296-.38.424-.537.13-.157.266-.336.412-.537.05-.122.11-.122.164-.122a.478.478 0 00.157-.219 2.45 2.45 0 00.122-.164l.123-.177v-.079a.27.27 0 00.089-.13c.017-.052.051-.131.103-.131.129-.211.281-.413.424-.61.154-.197.304-.392.45-.583.025-.044.049-.081.07-.112l.084-.112M63 43.2c0-.08-.066-.094-.135-.068-.068.068-.137.068-.205.132a1.298 1.298 0 00-.18.196c-.051.07-.073.118-.065.144a2.021 2.021 0 01-.038.131.664.664 0 00-.032.158.28.28 0 00.02.137c.016.07.05.07.102.07h.116c.025 0 .066-.048.122-.07a.18.18 0 00.11-.098c.016 0 .024-.002.024-.006 0-.005.009-.002.026.006 0-.026.016-.053.046-.079.03-.026.04-.052.032-.078.057.017.057.009.057-.026v-.092c.1-.035.146-.103.168-.204a.276.276 0 00-.058-.253H63m7.875.074l.052-.13c.325-.08.67-.14 1.035-.185.363-.043.663-.086 1.008-.13l.013-.026a.16.16 0 01.09-.027.234.234 0 00.115-.039c.009-.009.014-.03.014-.066 0-.034.008-.061.025-.078-.009 0-.013.009-.013.026 0 .009-.004.013-.012.013-.009-.018-.018-.032-.026-.046-.01-.013-.004-.028.012-.045a.762.762 0 00-.314-.06 2.41 2.41 0 00-.249.02c-.186.018-.286.029-.343.033a.76.76 0 01-.134 0 .62.62 0 00-.128 0 4.38 4.38 0 00-.27.033 7.87 7.87 0 01-.31.045 2.53 2.53 0 00-.307.059h-.013c.085-.192.173-.371.263-.563.09-.184.178-.372.263-.565.104-.2.21-.41.296-.628.085-.218.176-.415.27-.643a.473.473 0 00.032-.118.35.35 0 01.033-.105.812.812 0 00.083-.124.116.116 0 00.006-.112c-.017-.07-.068-.124-.154-.163-.086-.05-.171-.05-.257-.05h-.205c-.134.078-.19.109-.206.135a.248.248 0 00-.058.118 1.24 1.24 0 01-.045.145.529.529 0 01-.064.15.345.345 0 00-.052.124.092.092 0 00-.026.066.141.141 0 01-.025.079c-.017.083-.047.083-.09.196-.043.114-.088.23-.135.348-.047.118-.1.234-.174.347-.106.271-.22.538-.327.8-.107.262-.208.53-.302.8a.84.84 0 01-.122.039l-.124.026s-.084.008-.178.026c-.095.018-.197.04-.308.066-.112.026-.221.05-.328.072-.108.063-.19.063-.25.063l-.155.06-.058.119-.058.131a.813.813 0 00-.026.183.13.13 0 00.065.119c.009.017.028.024.058.02l.11-.02a.228.228 0 00.096-.052.967.967 0 01.083-.067c.074-.016.122-.036.186-.058l.174-.06c.145-.07.267-.12.366-.15a3.07 3.07 0 01.315-.072c-.044.123-.092.247-.092.374-.07.127-.11.255-.153.373a15.64 15.64 0 01-.308.996c-.111.324-.21.656-.296.997l-.01.05c-.034.027-.108.057-.108.08a3.023 3.023 0 00-.203.119c-.06 0-.107.01-.14.026a.79.79 0 00-.18.112 4.93 4.93 0 00-.18.15c-.095.053-.172.085-.172.098v.026c0 .046-.058.046-.08.046a.33.33 0 00-.173.054 5.862 5.862 0 01-.218.105c-.06.025-.129.056-.206.09a1.666 1.666 0 01.013-.34c.017-.158.04-.323.07-.498.03-.175.06-.311.09-.498.03-.158.05-.272.058-.34.026-.098.054-.198.084-.302a.763.763 0 00.032-.301c-.008-.08-.062-.152-.16-.217a.509.509 0 00-.277-.098.89.89 0 00-.36.117 7.49 7.49 0 00-.321.198c-.302.165-.514.35-.72.55-.205.2-.457.401-.642.58-.051.058-.099.099-.141.147a.252.252 0 01-.155.085c.052-.149.106-.283.161-.406.056-.122.11-.245.16-.367a.392.392 0 00.026-.145c0-.052.01-.104.027-.157.042-.057.107-.144.107-.223.063-.08.063-.17 0-.275 0-.087-.063-.148-.178-.183a.337.337 0 00-.315.052.269.269 0 00-.071.072.518.518 0 01-.058.072 3.507 3.507 0 00-.026.151 1.52 1.52 0 01-.038.177c-.017.044-.043.1-.077.1-.035.096-.06.145-.112.189 0 .153-.091.296-.154.445a.676.676 0 00-.21.079l-.205.13c-.043.057-.105.057-.187.057-.119.07-.119.097-.211.114-.215.08-.429.17-.643.275-.214.106-.41.2-.585.282-.175.083-.324.15-.43.229h-.232c-.025 0-.025-.082 0-.17.026-.087.069-.19.129-.307.103-.118.103-.243.193-.374l.193-.38a.042.042 0 00.025-.04c0-.017.009-.03.026-.04.009-.007.014-.01.019-.006.004.005.01.002.02-.006a.644.644 0 00.038-.099.31.31 0 01.038-.085.298.298 0 00.052-.197.262.262 0 00.02-.096 3.508 3.508 0 00-.02-.166.177.177 0 00-.058-.104.556.556 0 01-.084-.093c-.026.019-.057.016-.096-.006-.038-.022-.075-.024-.11-.006-.059.009-.153.035-.153.078-.159.175-.27.365-.373.57-.103.206-.202.41-.296.627-.025.053-.055.128-.09.206a1.334 1.334 0 01-.116.223c0 .07 0 .135-.057.197-.03.06-.058.126-.084.197-.043.13-.076.248-.103.353a.665.665 0 000 .315c.07.096.153.16.244.19.105.03.224.045.36.045.027 0 .043.002.052.007.009.005.026-.007.051-.033.06.026.172-.01.335-.112.163-.099.34-.216.533-.346.193-.132.419-.258.552-.342a1.3 1.3 0 01.405-.274c.103-.053.208-.11.337-.171.085-.061.177-.127.255-.197.093-.043.18-.094.256-.15a.217.217 0 00.08-.108.986.986 0 01-.067.2 4.525 4.525 0 00-.321.99c-.026.06-.05.126-.07.196a.322.322 0 00-.02.157c.018.07.07.13.16.183a.33.33 0 00.238.074c.086 0 .22-.153.364-.362.215-.21.45-.472.741-.787.134-.095.193-.183.296-.262.103-.078.197-.157.283-.236a6.57 6.57 0 01.43-.406c.152-.123.302-.245.456-.367l.155-.131a.448.448 0 01.18-.092 3.263 3.263 0 01-.065.289 1.71 1.71 0 00-.051.327 6.856 6.856 0 01-.058.288c-.03.14-.06.287-.09.44-.03.153-.058.297-.084.399-.025.17-.038.259-.038.302 0 .096.036.203.11.321.072.118.156.168.25.15a2.033 2.033 0 00.437-.051c.102-.035.212-.094.328-.177.115-.083.22-.15.314-.203.103-.07.17-.114.2-.132a.343.343 0 00.064-.046.606.606 0 01.058-.052c.025-.022.085-.112.18-.112.06-.065.106-.095.141-.13.034-.036.077-.083.138-.144v-.037c0 .16 0 .31-.068.482a7.5 7.5 0 00-.109.944.63.63 0 00.013.13c.009.045.047.084.115.119h.049c0-.017 0-.028.086-.033a.238.238 0 00.11-.032c.043-.01.06-.02.051-.034-.008-.012.009-.028.052-.045a.694.694 0 00.012-.131.35.35 0 01.026-.131l.077-.132a.413.413 0 00.013-.118c0-.051.004-.1.013-.144l.025-.13a.788.788 0 01.04-.132c0-.026.01-.053.031-.079a.324.324 0 00.045-.064.897.897 0 00.07-.236.609.609 0 01.084-.237.92.92 0 01.078-.222c.062-.07.062-.14.062-.21.143-.463.285-.927.438-1.39.155-.463.305-.926.437-1.39"/><g clip-path="url(#b)"><path fill="#fefefe" d="M76.494 48.218a7.373 7.373 0 01-.369.76 8.01 8.01 0 01-.427.976c-.172.346-.363.691-.572 1.036-.21.31-.433.664-.668.957-.236.253-.484.537-.746.734a1.805 1.805 0 01-.816.36.171.171 0 01-.052-.15c.01-.057 0-.094-.025-.112.035-.262.103-.506.206-.734a4.09 4.09 0 01.366-.649c.109-.205.29-.4.443-.583.154-.183.3-.363.437-.538.052-.06.104-.163.27-.307.128-.144.283-.309.462-.468.18-.207.377-.406.592-.62.214-.215.424-.422.629-.623.017-.044.06-.074.129-.092a.359.359 0 00.167-.091.055.055 0 01-.02.065c-.021.018-.023.044-.006.079zm5.499-3.592c0 .025-.009.039-.026.039-.146.176-.308.335-.488.518a9.95 9.95 0 01-.527.465c-.069.044-.14.088-.213.131a.441.441 0 01-.239.066c.22-.262.44-.502.677-.721.198-.219.507-.384.816-.498zm2.287.616a.06.06 0 00-.032.013c-.013.01-.024.014-.032.014a.804.804 0 00-.167.058c-.049.022-.049.055-.142.098-.128.07-.263.142-.404.217-.142.074-.281.147-.378.258-.212.054-.353.133-.464.194-.112.061-.218.118-.322.17-.089.053-.211.108-.327.164-.116.057-.263.13-.444.217-.076.035-.193.07-.27.105-.102.05-.201.05-.294.05-.12.076-.245.12-.373.172-.131.053-.279.07-.45.053a.313.313 0 01-.11-.225.776.776 0 01.039-.28 1.245 1.245 0 01.276-.465c.114.017.29.013.43-.014a.778.778 0 00.341-.141c.343-.239.686-.51 1.029-.816.016-.035.064-.084.064-.084.047-.066.085-.107.128-.151a.524.524 0 01.116-.131c.052-.044.082-.083.09-.118a.499.499 0 00-.141-.321c-.095-.11-.297-.179-.604-.179h-.097a.146.146 0 01-.083.093 4.36 4.36 0 01-.284.131c-.102.044-.2.097-.295.158-.163.09-.321.216-.476.36-.176.051-.344.112-.499.158-.171.12-.343.211-.48.308v.012a.467.467 0 00-.201.06 1.3 1.3 0 00-.142.098c-.016 0-.036.008-.057.026l-.058.052h-.038a1.322 1.322 0 01-.27.158 3.408 3.408 0 01-.405.186c-.142.102-.276.185-.405.273a.883.883 0 00-.27.262c.025-.122.096-.243.096-.36.06-.119.092-.243.11-.375a.78.78 0 00.07-.228 1.26 1.26 0 01.058-.23.449.449 0 00.007-.197.488.488 0 00-.123-.183.07.07 0 00-.064-.02c-.058.004-.058-.001-.058-.02 0 .01-.055.007-.077-.006a.13.13 0 00-.07-.02c-.07 0-.118.02-.148.06-.03.039-.058.071-.083.098-.044.046-.062.046-.058.046a.281.281 0 01-.02.11c0 .045-.026.081-.077.112-.05.031-.098.064-.14.098a4.718 4.718 0 00-.136.144c-.066.053-.066.092-.135.119-.171.148-.347.317-.527.446a9.65 9.65 0 01-.527.406.586.586 0 00-.102.052c-.026.018-.06.044-.103.079a2.382 2.382 0 00-.2.125c-.055.039-.117.109-.222.109 0 .05-.07.046-.105 0h.019c.013-.064.02-.09.02-.116.066-.14.066-.267.16-.38.064-.114.13-.223.2-.328.068-.076.126-.135.173-.223a.459.459 0 01.2-.197 1.25 1.25 0 01.121-.157c.087-.052.087-.1.148-.144a.257.257 0 01.103-.157c.05-.035.098-.098.141-.098a.45.45 0 01.128-.19 2.94 2.94 0 01.167-.131 1.21 1.21 0 01.22-.19c.102-.075.191-.145.269-.21.077-.066.122-.125.135-.179.012-.05-.05-.081-.187-.09a.677.677 0 00-.076.007c-.035.004-.086.014-.086.032-.111.051-.206.051-.3.15a3.317 3.317 0 01-.283.177c-.017 0-.042.014-.077.04a.965.965 0 01-.116.079c-.042.026-.099.052-.099.078a.339.339 0 00-.08.053l-.264.269c-.125.105-.255.262-.392.406a5.74 5.74 0 00-.366.42c-.095.119-.152.179-.183.277-.047.014-.081.02-.14.043a6.76 6.76 0 00-.41.263 2.069 2.069 0 01-.45.236 1.941 1.941 0 00-.418.26h-.161c-.043 0-.064-.108-.064-.22l.077-.289a.503.503 0 00.045-.118 2.36 2.36 0 01.02-.105c.016-.062.042-.101.076-.118v-.05c.085-.077.085-.147.085-.226.056-.078.106-.152.153-.222a.906.906 0 00.11-.223c0-.096-.031-.158-.091-.184C73.612 45 73.565 45 73.5 45h-.303c-.017 0-.026 0-.026.058a.153.153 0 01-.012.066.168.168 0 01-.04.078.166.166 0 00-.038.067v.012h-.039a.735.735 0 01-.211.21.805.805 0 00-.206.17 12.06 12.06 0 01-.875.623 3.556 3.556 0 01-.802.516c-.073.094-.12.133-.206.16.009-.07.039-.16.133-.16 0-.098 0-.168.06-.247.034-.044.067-.09.096-.138a.3.3 0 01.122-.111v-.027c.035-.026.052-.057.052-.091a.38.38 0 00.148-.112.807.807 0 01.122-.124c.068-.05.14-.14.218-.21.057-.07.15-.135.219-.197l.115-.098c.035-.03.073-.067.116-.111a6.17 6.17 0 00.206-.138.665.665 0 01.205-.098c.018-.053.071-.098.071-.098h.084l.026-.046.153-.105a.828.828 0 01.244-.158.175.175 0 01.103-.02.1.1 0 00.09-.032.164.164 0 00.077-.092c.018-.043.013-.078-.012-.104a.18.18 0 00-.065-.138 1.066 1.066 0 01-.116-.125c-.068 0-.128-.013-.18-.08-.017.059-.036.065-.057.06a.292.292 0 00-.058-.006c-.009 0-.013.002-.013.007 0 .004-.004.006-.013.006a.532.532 0 00-.263.15.665.665 0 01-.225.165c-.051.008-.145.067-.283.177-.137.11-.287.236-.45.341-.163.183-.317.325-.462.464-.146.14-.253.241-.33.303-.068.133-.15.222-.236.327a2.394 2.394 0 00-.23.341c-.052.07-.101.147-.149.229a.515.515 0 00-.083.27c0 .016-.004.026-.013.026s-.013.004-.013.012c-.042.167-.017.28.077.342.043.052.1.08.168.084.068.005.136.011.205.02a.287.287 0 00.11.026h.109a.316.316 0 00.186-.033c.064-.03.126-.067.186-.111.223-.096.433-.214.63-.354a.154.154 0 01.077-.06.802.802 0 00.077-.032c.008 0 .01-.006.007-.054h.076c.03-.055.054-.08.07-.116a.418.418 0 00.149-.105c.039-.044.079-.092.122-.144a.97.97 0 00.064-.046.378.378 0 01.052-.033c.008 0 .014-.006.019-.019.004-.014.015-.016.032-.007a1.494 1.494 0 00-.02.308c.005.1.016.162.033.256a.245.245 0 01.045.164c.068.048.122.09.2.124.025.009.048.02.07.032a.11.11 0 00.058.02c.18.044.336.044.468 0 .133-.043.258-.105.374-.183.115-.079.229-.166.34-.251.112-.108.24-.186.373-.247.013.007.046-.008.082-.026a1.585 1.585 0 00-.036.21 1.002 1.002 0 000 .223c.008.07.03.13.064.183.035 0 .056.008.065.026a.08.08 0 00.038.04h-.026c.017.017.066.03.148.04l.257.025c.09.009.15.013.257.013a.436.436 0 00.148-.013.863.863 0 00.173-.06c.073-.03.148-.065.225-.104l.222-.118a.828.828 0 00.138-.098c.068-.094.144-.094.225-.19.08-.057.16-.125.237-.203a.188.188 0 01.09-.066l.052-.053.05-.052c0-.009.014-.013.083-.013v-.079.276a.425.425 0 00-.082.15.483.483 0 01-.032.086c-.013.05-.027.05-.045.05a.685.685 0 01-.077.172c.017 0 .01.04-.02.118-.03.079-.048.118-.057.118a.477.477 0 01-.058.046c-.03.022-.088.055-.174.099a1.82 1.82 0 00-.218.19c-.112.091-.171.157-.231.202-.394.36-.81.759-1.247 1.2-.436.442-.839.905-1.207 1.39a9.493 9.493 0 00-.927 1.475c-.205.498-.311.974-.295 1.428-.025.01-.01.06.046.151.056.092.13.172.25.243a.48.48 0 00.29.045 1.55 1.55 0 00.314-.071 4.163 4.163 0 001.459-.997c.415-.409.781-.928 1.098-1.475.338-.546.598-1.116.842-1.71.244-.594.482-1.159.713-1.724.043-.063.08-.164.11-.269a.408.408 0 01.16-.236.297.297 0 01.11-.137c.046-.031.1-.068.153-.112l.11-.078c.042-.068.083-.068.122-.068a.266.266 0 01.135-.09c.068-.07.141-.13.218-.183l.232-.158c.058-.052.17-.124.301-.216.134-.091.27-.188.412-.253.14-.136.272-.231.392-.324.12-.092.2-.159.244-.203-.026 0-.034-.009-.026-.026a.604.604 0 01.238-.151l.025-.011c-.12.131-.24.26-.354.398a.663.663 0 01-.051.131.38.38 0 01-.104.131c-.051.055-.1.203-.144.322-.05.117-.087.235-.112.354a1.17 1.17 0 00-.026.347c.009.114.043.21.138.287 0 .115.138.195.254.244.115.048.237.074.366.079.128.004.255-.008.386-.034.128-.026.244-.052.347-.078a3.28 3.28 0 01.237-.072.745.745 0 00.225-.099l.925-.445c.06-.026.15-.075.27-.145.12-.07.248-.146.386-.229.104-.083.274-.166.411-.25a6.05 6.05 0 00.347-.226c.06-.046.109-.079.148-.1.073-.023.073-.044.073-.067.06-.021.07-.033.061-.033a.917.917 0 01.135-.156c.056-.053.103-.103.142-.151.038-.048.058-.085.058-.112 0-.026-.039-.039-.116-.039m-3.692-.385l-.015.014c-.003.001-.006.003-.018-.01a.056.056 0 01.033-.004"/></g><g clip-path="url(#c)"><path fill="#fefefe" d="M84.989 43.376h37.745v-.68H84.989z"/></g><g clip-path="url(#c)"><path fill="#fefefe" d="M17.255 43.376H55v-.68H17.255z"/></g><g clip-path="url(#c)"><path fill="#fefefe" d="M84.989 20.7h37.745v-.657H84.989z"/></g><g clip-path="url(#c)"><path fill="#fefefe" d="M17.255 20.7H55v-.657H17.255z"/></g><g clip-path="url(#c)"><path fill="#fefefe" d="M5.469 26.769h.743c.183 0 .315.045.395.134.08.097.12.24.12.451v6.502c0 .227-.044.344-.132.465-.088.084-.256.126-.47.126h-.656v.573H9.29v-.573h-.638c-.246 0-.411-.042-.495-.126-.084-.12-.126-.238-.126-.465v-6.538c0-.203.038-.318.114-.439.076-.09.198-.134.366-.134h3.055c.187 0 .32.043.398.129a.739.739 0 01.117.444v6.538c0 .227-.044.344-.131.465-.088.084-.255.126-.501.126h-.638v.573h3.833v-.573H14c-.236 0-.405-.042-.493-.126-.087-.12-.131-.238-.131-.465v-6.502c0-.203.04-.354.12-.445.08-.093.203-.14.371-.14h.778v-.58H5.47z"/></g><g clip-path="url(#c)"><path fill="#fefefe" d="M24.942 25.965c-1.202 0-2.192.435-2.965 1.305-.774.87-1.16 1.98-1.16 3.33 0 1.358.385 2.466 1.158 3.33.775.862 1.761 1.295 2.967 1.295 1.205 0 2.183-.43 2.959-1.29.766-.86 1.15-1.97 1.15-3.335 0-1.353-.386-2.466-1.156-3.334-.77-.868-1.755-1.301-2.953-1.301m1.926 7.696c-.426.676-1.067 1.014-1.926 1.014-.87 0-1.516-.334-1.937-1.006-.422-.67-.632-1.692-.632-3.069 0-1.37.212-2.391.634-3.062.424-.67 1.069-1.006 1.935-1.006.866 0 1.51.333 1.931.998.422.664.633 1.69.633 3.07 0 1.365-.214 2.383-.638 3.06"/></g><g clip-path="url(#c)"><path fill="#fefefe" d="M41.871 26.91c-.08.09-.12.241-.12.444v7.093h1.27v3.009h-.456c-.063-.912-.258-1.545-.565-1.901-.348-.357-.875-.535-1.688-.535h-2.687c-.792 0-1.346.178-1.674.535-.328.356-.525.99-.59 1.901h-.44v-3.009h1.218c.452-.748.81-1.693 1.071-2.833.261-1.14.415-2.335.415-3.585 0-.54-.081-.887-.196-1.029-.115-.156-.344-.231-.679-.231h-.43v-.58h6.701v.58h-.778c-.168 0-.292.047-.372.14zm-1.425-.141h-2.16c-.038 1.792-.173 3.301-.403 4.528-.258 1.229-.572 2.278-1.025 3.15h3.588z"/></g><g clip-path="url(#c)"><path fill="#fefefe" d="M50.704 27.27c-.774.87-1.162 1.98-1.162 3.33 0 1.358.386 2.466 1.16 3.33.772.863 1.798 1.295 2.967 1.295 1.205 0 2.192-.43 2.958-1.29.767-.859 1.123-1.97 1.123-3.335 0-1.353-.358-2.465-1.129-3.333-.77-.868-1.754-1.302-2.952-1.302-1.169 0-2.19.435-2.965 1.305m4.896.26c.4.664.632 1.69.632 3.07 0 1.365-.232 2.384-.638 3.06-.425.678-1.067 1.016-1.925 1.016-.87 0-1.516-.335-1.937-1.006-.422-.671-.633-1.692-.633-3.07 0-1.369.212-2.391.635-3.062.424-.67 1.068-1.006 1.935-1.006.866 0 1.51.333 1.931.998"/></g><g clip-path="url(#c)"><path fill="#fefefe" d="M86.51 34.322c-.088.083-.258.125-.507.125h-.62v.574h3.822v-.574h-.54c-.29 0-.504-.04-.59-.122-.086-.125-.129-.238-.129-.469v-6.502c0-.25.057-.415.17-.493.113-.077.396-.115.849-.115 1.16 0 1.903.167 2.268.5.365.335.642 1.024.798 2.067h.515l-.152-3.123h-7.012v.58h.744c.184 0 .315.044.395.134.104.096.104.24.104.45v6.502c0 .227 0 .344-.115.466"/></g><g clip-path="url(#c)"><path fill="#fefefe" d="M100.212 34.322c.088-.122.132-.239.132-.466v-6.5c0-.212-.04-.356-.12-.452-.08-.09-.212-.134-.396-.134h-.743v-.58h4.12c1.112 0 1.922.195 2.43.585.506.39.76 1.007.76 1.851 0 .832-.296 1.456-.89 1.872-.592.416-1.478.624-2.657.624a15.392 15.392 0 01-1.2-.035v2.77c0 .226.043.343.127.465.084.083.249.126.495.126h.743v.572h-3.928v-.572h.62c.25 0 .42-.043.507-.126zm1.437-3.803c.081.016.17.026.266.03.095.004.242.006.46.006.996 0 1.69-.144 2.066-.43.374-.287.559-.79.559-1.51 0-.715-.153-1.162-.463-1.445-.31-.283-.857-.424-1.641-.424h-.626a.713.713 0 00-.089.005.046.046 0 01-.017.007c-.188 0-.32.042-.398.125-.078.117-.117.237-.117.46z"/></g><g clip-path="url(#c)"><path fill="#fefefe" d="M117.53 34.363c.093-.047.14-.163.14-.251 0-.044-.008-.1-.026-.167a2.416 2.416 0 00-.085-.257l-.55-1.54h-3.259l-.334.95a3.822 3.822 0 00-.12.406c-.033.14-.05.24-.05.304 0 .211.07.392.214.472.142.103.363.155.663.155h.3v.585h-3.097v-.585h.1c.32 0 .574-.069.737-.235.172-.109.338-.382.498-.792l2.839-7.362h.444L119 33.832c.097.247.194.368.292.487.097.077.27.116.52.116h.252v.585h-3.581v-.585h.537c.23 0 .416-.025.51-.072zm-.738-2.863l-1.422-3.525L114 31.5z"/></g><g clip-path="url(#c)"><path fill="#fefefe" d="M127.828 26.19h6.701v.579h-.779c-.167 0-.29.047-.37.14-.08.091-.12.242-.12.445v7.093h1.27v3.009h-.457c-.063-.912-.258-1.545-.586-1.902-.327-.356-.883-.534-1.668-.534h-2.698c-.78 0-1.371.178-1.662.534-.327.357-.525.99-.584 1.902h-.446v-3.009h1.217c.453-.749.81-1.693 1.072-2.834a16 16 0 00.392-3.584c0-.542-.058-.887-.173-1.029-.115-.156-.312-.231-.687-.231h-.422zm1.966.579c-.039 1.792-.173 3.301-.404 4.528-.23 1.229-.57 2.278-1.024 3.15h3.588V26.77z"/></g><g clip-path="url(#c)"><path fill="#fefefe" d="M71.702 26.906c.048-.092.198-.137.366-.137h.778v-.58h-6.853v.58h.404c.335 0 .561.07.678.231.118.117.176.402.176.832 0 .161-.027.868-.046 1.196-.075 1.294-.382 3.965-.833 4.539-.262.327-.664.542-1.246.696l.074.21.274.776.014.039c.037-.011.073-.022.137-.035 1.802-.62 1.915-2.709 2.142-5.098.036-.373.094-1.425.099-1.492.04-.763.072-1.16.094-1.26.05-.24.147-.403.29-.497.141-.092.38-.137.716-.137h1.317v7.087c0 .227-.044.344-.132.465-.088.084-.256.126-.506.126h-.632v.573h3.833v-.573h-.632c-.245 0-.41-.042-.464-.126-.119-.12-.162-.238-.162-.465v-6.502c0-.207.038-.354.114-.448"/></g></svg>