<svg xmlns="http://www.w3.org/2000/svg" width="320" height="27"><path fill="#fff" d="M5.504 16.361V4.714h2.027c3.306 0 5.493 1.96 5.493 5.771 0 3.865-2.08 5.876-5.493 5.876zm-4.96 4.183h7.147c6.346 0 10.4-3.759 10.4-10.059 0-6.3-4.054-9.953-10.4-9.953H.544zm24.483-9.005c.267-1.165.96-2.171 2.347-2.171.566 0 1.106.234 1.49.646a2 2 0 01.536 1.525zm-5.066 1.852c0 3.865 2.826 7.571 8 7.571a10.153 10.153 0 006.186-2.118l-1.813-3.388a7.401 7.401 0 01-4 1.483 3.272 3.272 0 01-3.413-2.595h9.173c.062-.51.106-1.022.106-1.535 0-4.023-2.453-6.988-6.72-6.988-4.693 0-7.573 3.282-7.52 7.57zm14.983-7.252h5.12l2.24 7.676c.267.9.533 2.488.533 2.488h.054s.266-1.535.533-2.488l2.24-7.676h5.173l-4.96 14.452h-5.973zm21.656 5.4c.27-1.165.963-2.171 2.35-2.171a2.04 2.04 0 011.491.646c.385.412.579.964.536 1.525zm-5.063 1.852c0 3.865 2.826 7.571 8 7.571a10.151 10.151 0 006.186-2.118l-1.813-3.388a7.29 7.29 0 01-4 1.483 3.272 3.272 0 01-3.413-2.595h9.173c.062-.51.098-1.022.107-1.535 0-4.023-2.454-6.988-6.72-6.988-4.694 0-7.574 3.282-7.52 7.57zM68.277.532h4.907v14.082c0 1.377.267 1.853 1.333 1.853a2.41 2.41 0 00.587-.053v4.233a9.356 9.356 0 01-1.493.109c-2.611 0-5.387-.636-5.387-5.453V.533zm16.59 16.354c-.915 0-1.79-.375-2.416-1.004a3.4 3.4 0 01-.891-2.49c0-2.171 1.547-3.548 3.307-3.548s3.306 1.377 3.306 3.547a3.4 3.4 0 01-.89 2.491 3.425 3.425 0 01-2.416 1.004zM76.6 13.39c0 4.5 3.68 7.518 8.267 7.518 4.586 0 8.266-3.018 8.266-7.518s-3.68-7.57-8.266-7.57c-4.587 0-8.214 3.018-8.267 7.57zm23.73.055c0-2.489 1.334-3.548 2.827-3.548 1.654 0 2.827 1.377 2.827 3.548 0 2.223-1.28 3.44-2.827 3.44-1.92 0-2.826-1.693-2.826-3.44zm-4.693-7.306v19.958h4.907v-5.4c0-.688-.053-1.217-.053-1.217h.053a5.567 5.567 0 003.68 1.376c3.84 0 6.776-2.964 6.776-7.517 0-4.5-2.616-7.571-6.563-7.571a5.488 5.488 0 00-4.426 2.012h-.054c.035-.299.053-.633.054-.9v-.741zm17.816-.001h4.694v1.27c-.001.301-.02.602-.054.9h.054a5.198 5.198 0 014.32-2.488 4.177 4.177 0 014.053 2.436h.053a5.596 5.596 0 014.64-2.436c2.667 0 4.694 1.43 4.694 5.4v9.37H131v-8.576c0-1.058-.213-1.8-1.12-1.8-2.133 0-2.773 2.118-2.773 4.236v6.088H122.2v-8.524c0-1.058-.213-1.8-1.12-1.8-2.24 0-2.773 2.277-2.773 4.236v6.088H113.4v-14.4zm29.918 5.401c.267-1.165.96-2.171 2.347-2.171a2.04 2.04 0 011.491.646c.385.412.591.964.536 1.525zm-5.066 1.852c0 3.865 2.826 7.571 8 7.571a10.151 10.151 0 006.186-2.118l-1.813-3.388a7.402 7.402 0 01-4 1.483 3.272 3.272 0 01-3.413-2.595h9.173c.062-.51.098-1.022.107-1.535 0-4.023-2.454-6.988-6.72-6.988-4.694 0-7.574 3.282-7.52 7.57zm16.799-7.249h4.696v1.27c0 .301 0 .602-.056.9h.056a5.198 5.198 0 014.637-2.488c2.934 0 5.227 1.323 5.227 5.4v9.371h-4.907v-8.47c0-1.324-.533-1.906-1.6-1.906-2.186 0-3.146 1.8-3.146 3.864v6.512h-4.907V6.142zm18.506 4.025h-1.866V6.41h2.027V2.28h4.746v4.13h3.04v3.758h-3.04v4.447c0 1.642 1.654 1.853 2.614 1.853.214.003.429-.015.64-.053v4.233a8.166 8.166 0 01-1.334.109c-2.293 0-6.826-.636-6.826-5.453z"/></svg>