<svg xmlns="http://www.w3.org/2000/svg" width="72" height="68" viewBox="0 0 72 68"><g><g><g><path fill="none" stroke="#fff" stroke-miterlimit="20" stroke-width="2" d="M26.264 44.312a3.138 3.138 0 0 0-3.132-3.142A3.137 3.137 0 0 0 20 44.312c0 1.688 1.402 3.142 3.132 3.142 1.729 0 3.132-1.454 3.132-3.142z"/></g><g><path fill="none" stroke="#fff" stroke-miterlimit="20" stroke-width="2" d="M51.454 23.142A3.138 3.138 0 0 0 48.322 20a3.137 3.137 0 0 0-3.132 3.142 3.137 3.137 0 0 0 3.132 3.142 3.138 3.138 0 0 0 3.132-3.142z"/></g><g><path fill="none" stroke="#fff" stroke-miterlimit="20" stroke-width="2" d="M38.794 33.662a3.138 3.138 0 0 0-3.132-3.142 3.137 3.137 0 0 0-3.132 3.142 3.137 3.137 0 0 0 3.132 3.14 3.137 3.137 0 0 0 3.132-3.14z"/></g><g><path fill="none" stroke="#fff" stroke-linecap="round" stroke-miterlimit="20" stroke-width="2" d="M23.13 20.05V41"/></g><g><path fill="none" stroke="#fff" stroke-linecap="round" stroke-miterlimit="20" stroke-width="2" d="M35.66 36.8V47.27"/></g><g><path fill="none" stroke="#fff" stroke-linecap="round" stroke-miterlimit="20" stroke-width="2" d="M35.66 20.05v10.472"/></g><g><path fill="none" stroke="#fff" stroke-linecap="round" stroke-miterlimit="20" stroke-width="2" d="M48.19 26.28v20.989"/></g></g></g></svg>