<svg xmlns="http://www.w3.org/2000/svg" width="55" height="72" viewBox="0 0 55 72"><g><g><g><path fill="none" stroke="#fff" stroke-linecap="round" stroke-linejoin="round" stroke-miterlimit="20" stroke-width="2" d="M27.5 33v8.521"/></g><g><path fill="none" stroke="#fff" stroke-miterlimit="20" stroke-width="2" d="M31.786 38.392v-14.13c0-2.354-1.919-4.262-4.286-4.262-2.367 0-4.286 1.908-4.286 4.263v14.13C21.273 39.74 20 42 20 44.508 20 48.63 23.357 52 27.5 52s7.5-3.37 7.5-7.49c0-2.51-1.273-4.77-3.214-6.118z"/></g><g><path fill="none" stroke="#fff" stroke-miterlimit="20" stroke-width="2" d="M30.429 44.69c0 1.49-1.216 2.7-2.715 2.7A2.707 2.707 0 0 1 25 44.69c0-1.491 1.215-2.69 2.714-2.69 1.5 0 2.715 1.199 2.715 2.69z"/></g></g></g></svg>