<svg xmlns="http://www.w3.org/2000/svg" width="80" height="80" viewBox="0 0 80 80"><g><g><path fill="#fff" d="M80 40L40 80 0 40 40 0zM60.827 23l7.095 16.245h9.187zm-1.585.105c-1.018 2.604-2.89 7.017-5.312 11.068 4.869 1.218 9.515 3.143 11.987 4.249zM64 39.245c-4-1.718-11.33-4.452-17.169-4.661a8.674 8.674 0 0 1 1.859 4.66zm-15.31 1.51c-.147 1.705-.789 3.245-1.777 4.552 5.715-.226 12.777-2.838 16.845-4.552zm3.69-6.942c2.194-3.585 3.953-7.534 5.046-10.229l-9.548 9.548c1.464.113 2.983.355 4.503.681zm3.967-11.285c-2.694 1.092-6.634 2.848-10.213 5.039.326 1.517.568 3.033.68 4.493zM45.774 26c4.119-2.446 8.61-4.34 11.226-5.344L41.519 14c1.104 2.485 3.034 7.144 4.255 12zm-5.019-14l16.053 6.943L40.755 2.891zm0 19.31c1.731.15 3.315.807 4.61 1.821-.202-5.769-2.887-12.984-4.61-17.061zM23.677 18.46L39.245 12V2.89zm-1.018 2.054c2.508.96 7.244 2.92 11.568 5.487 1.225-4.884 3.17-9.564 4.271-12zm16.586-4.447c-1.722 4.072-4.405 11.281-4.608 17.064a8.673 8.673 0 0 1 4.608-1.82zm-7.934 23.179a8.678 8.678 0 0 1 1.863-4.668C27.297 34.784 20 37.527 16 39.245zm1.772 6.056c-.986-1.301-1.625-2.844-1.772-4.546H16.244c4.058 1.713 11.101 4.32 16.84 4.546zm.784-17.735c-3.582-2.19-7.524-3.948-10.217-5.04l9.536 9.536c.113-1.461.355-2.978.68-4.496zM22.579 23.59c1.091 2.691 2.846 6.632 5.037 10.213 1.517-.324 3.034-.566 4.498-.678zm3.487 10.572c-2.549-4.263-4.484-8.921-5.458-11.453L14 38.432c2.503-1.105 7.167-3.046 12.066-4.269zM2.891 39.245h9.179l6.576-15.756zM18.41 56.274l-6.298-15.52H2.89zm2.1 1.158c.94-2.432 2.924-7.303 5.558-11.71-4.918-1.226-9.596-3.176-12.068-4.28zm7.108-11.352c-2.189 3.58-3.946 7.521-5.038 10.214l9.538-9.537c-1.466-.112-2.984-.352-4.5-.677zm-3.974 11.285c2.694-1.09 6.636-2.847 10.219-5.04-.325-1.516-.566-3.035-.678-4.5zm10.577-3.49c-4.33 2.59-9.07 4.547-11.574 5.506l15.85 6.529c-1.105-2.455-3.05-7.127-4.276-12.035zm5.024 13.977l-15.742-6.485 15.742 15.742zm0-19.163a8.672 8.672 0 0 1-4.603-1.815c.232 5.794 2.893 12.924 4.603 16.959zM32.783 40A7.2 7.2 0 0 0 40 47.217c3.754 0 6.845-2.881 7.184-6.548V39.33c-.34-3.666-3.43-6.547-7.184-6.547A7.2 7.2 0 0 0 32.783 40zm14.032 7.827c-.112 1.461-.354 2.979-.68 4.496 3.582 2.19 7.523 3.948 10.217 5.04zm-1.455-.953a8.677 8.677 0 0 1-4.605 1.815v15.136c1.71-4.046 4.37-11.188 4.605-16.951zm11.402 14.228l-16.007 6.746v9.261zm.386-1.8c-2.554-.987-7.148-2.912-11.373-5.43-1.223 4.89-3.16 9.556-4.263 12.018zm.274-3.004c-1.09-2.693-2.847-6.635-5.039-10.217-1.517.326-3.035.568-4.497.68zm-3.49-10.576c2.471 4.131 4.367 8.635 5.368 11.215l6.632-15.471c-2.466 1.105-7.12 3.035-12 4.256zm23.177-4.967h-9.23L61 56.908z"/></g></g></svg>