<svg xmlns="http://www.w3.org/2000/svg" width="120" height="114" viewBox="0 0 120 114"><g><g><g><g><path fill="#fff" d="M1.543 54.887h.244c.225 0 .328.07.463.29l.939 1.446h1.234l-1.138-1.769c-.244-.387-.385-.497-.475-.497.083-.077.19-.161.469-.498l1.1-1.766H3.15l-.9 1.444c-.141.213-.244.29-.47.29h-.237v-1.734H.45v4.53h1.093z"/></g><g><path fill="#fff" d="M6.75 56.623h1.09v-1.471l1.55-3.06H8.15l-.856 1.697-.848-1.696H5.205l1.545 3.059z"/></g><g><path fill="#fff" d="M12.75 53.156v-1.063h-2.205v1.063h.546v2.448h-.546v1.019h2.205v-1.02h-.566v-2.447z"/></g><g><path fill="#fff" d="M16.073 54.635l-.946-2.542h-1.215l1.838 4.53h.657l1.819-4.53H17.01z"/></g><g><path fill="#fff" d="M104.581 53.11c.38 0 .72.13.99.375l.707-.637a2.24 2.24 0 0 0-1.697-.755c-1.266 0-2.289 1.018-2.289 2.264 0 1.298 1.023 2.331 2.29 2.331a2.31 2.31 0 0 0 1.696-.749l-.707-.658c-.27.245-.61.368-.99.368-.668 0-1.195-.491-1.195-1.292 0-.754.527-1.246 1.195-1.246"/></g><g><path fill="#fff" d="M109.916 53.156v-1.063h-2.186v1.063h.546v2.448h-.546v1.019h2.186v-1.02h-.547v-2.447z"/></g><g><path fill="#fff" d="M113.58 56.623v-3.467h1.17v-1.063h-3.412v1.063h1.162v3.467z"/></g><g><path fill="#fff" d="M117.298 56.623h1.093v-1.471l1.549-3.06h-1.24l-.856 1.697-.844-1.696h-1.245l1.543 3.059z"/></g><g><path fill="#fff" d="M94.668 56.886L60.122 91.592 25.575 56.886l34.547-34.705zm-16.56-14.782l6.13 14.127h7.934zm-1.368.124c-.879 2.26-2.49 6.09-4.587 9.603 4.205 1.057 8.218 2.727 10.347 3.686zm4.115 14.003c-3.494-1.49-9.79-3.862-14.855-4.043a7.375 7.375 0 0 1 1.627 4.043zm-13.228 1.31a7.472 7.472 0 0 1-1.535 3.95c4.936-.196 11.036-2.462 14.55-3.95zm3.188-6.022c1.894-3.11 3.435-6.537 4.357-8.875l-8.247 8.284c1.265.097 2.577.308 3.89.59zm3.435-9.792c-2.337.947-5.74 2.47-8.83 4.372.281 1.317.49 2.631.58 3.899zm-9.141 3.028c3.557-2.138 7.435-3.78 9.67-4.652l-13.345-5.76c.953 2.141 2.62 6.183 3.675 10.412zM60.75 32.631l13.888 5.986L60.75 24.69zm0 16.717c1.5.129 2.887.699 4.005 1.579-.174-5.006-2.505-11.266-4.005-14.803zM46.024 38.196l13.446-5.571v-7.936zm-.879 1.817c2.166.8 6.256 2.499 9.99 4.741 1.06-4.252 2.738-8.312 3.69-10.444zm14.325-3.892c-1.487 3.532-3.805 9.788-3.97 14.804a7.405 7.405 0 0 1 3.97-1.577zm-6.853 20.11a7.549 7.549 0 0 1 1.61-4.05c-5.076.18-11.374 2.56-14.857 4.05zm1.531 5.255a7.46 7.46 0 0 1-1.53-3.944H39.603c3.505 1.486 9.588 3.748 14.544 3.944zm.677-15.388c-3.075-1.9-6.498-3.425-8.824-4.372L54.237 50c.098-1.269.306-2.585.588-3.902zm-9.75-3.449c.943 2.335 2.46 5.754 4.35 8.862a29.41 29.41 0 0 1 3.886-.589zm3.013 9.173c-2.202-3.699-3.838-7.74-4.714-9.937l-5.669 13.64c2.123-.958 6.152-2.677 10.383-3.703zm-20.016 4.409H36l5.68-13.67zm13.403 14.775L36 57.542h-7.928zm1.813 1.005c.812-2.14 2.527-6.329 4.801-10.16-4.247-1.063-8.288-2.755-10.405-3.719zm6.14-9.849c-1.89 3.106-3.408 6.54-4.351 8.862l8.237-8.275c-1.266-.087-2.577-.306-3.886-.587zm-3.432 9.791c2.326-.947 5.754-2.496 8.825-4.372a30.261 30.261 0 0 1-.586-3.905zm9.135-3.028c-3.74 2.247-7.833 3.945-9.996 4.777l13.688 5.665c-.954-2.13-2.634-6.184-3.692-10.442zm4.339 12.127l-13.596-5.627 13.596 13.66zm0-16.626a7.435 7.435 0 0 1-3.97-1.575c.194 5.026 2.492 11.213 3.97 14.714zm-5.582-7.54c0 3.453 2.797 6.262 6.234 6.262 3.242 0 5.878-2.5 6.204-5.68v-1.163c-.326-3.18-2.962-5.68-6.204-5.68-3.437 0-6.234 2.809-6.234 6.261zM66 63.677c-.09 1.25-.298 2.585-.58 3.901 3.094 1.879 6.498 3.389 8.83 4.373zm-1.25-.826a7.531 7.531 0 0 1-4 1.575v13.132c1.5-3.51 3.798-9.707 4-14.707zM74.6 75.196L60.75 81.049v8.037zm.333-1.563c-2.182-.856-6.183-2.526-9.822-4.71-1.057 4.242-2.73 8.29-3.682 10.427zm.237-2.606c-.919-2.325-2.46-5.757-4.352-8.864-1.31.283-2.622.5-3.885.59zm-3.014-9.176c2.133 3.585 3.77 7.492 4.636 9.731l5.709-13.45c-2.112.985-6.131 2.66-10.345 3.72zm20.017-4.31h-7.971l-5.98 14.016z"/></g><g><path fill="#fff" d="M102.292 61.36h17.582v-1.31h-17.582z"/></g><g><path fill="#fff" d="M.435 61.375H18v-1.31H.435z"/></g><g><path fill="#fff" d="M16.1 34.012l-1.223-.555-1.377 3.097-1.5-.67 1.295-2.862-1.222-.559-1.289 2.865-1.437-.653 1.394-3.098-1.222-.556-1.982 4.401 6.58 2.99z"/></g><g><path fill="#fff" d="M17.76 31.04l-5.94-4.13 1.427-2.07c1.156-1.679 3.337-2.191 5.06-.97 1.73 1.203 2.036 3.42.879 5.099zm-.293-1.943l.616-.895c.716-1.023.618-2.318-.587-3.156-1.196-.832-2.43-.48-3.146.56l-.617.895z"/></g><g><path fill="#fff" d="M26.96 19.932l-.95-.953-2.39 2.407-1.12-1.15 2.182-2.223-.95-.951-2.209 2.223-1.117-1.12 2.391-2.408-.95-.952-3.397 3.42 5.113 5.127z"/></g><g><path fill="#fff" d="M33.395 15.01l-.782-1.094L30 15.854l-3.456-4.832-1.157.835L29.6 17.75z"/></g><g><path fill="#fff" d="M38.25 12.324l-.204-4.707 3.38 3.26.771-.349-.303-7.818-1.44.65.293 4.945-3.503-3.497-.763.344.269 4.948-3.48-3.5-1.44.649 5.623 5.418z"/></g><g><path fill="#fff" d="M52.748 7.729l-.248-1.32-3.335.677-.323-1.594 3.063-.627-.267-1.32-3.064.626-.314-1.554 3.316-.678-.268-1.32-4.71.963L48 8.692z"/></g><g><path fill="#fff" d="M56.757 1.451L57 6.04h-.902l.062 1.354 3.155-.145-.065-1.346-.863.04-.207-4.557.866-.04L58.985 0 55.83.145l.061 1.365z"/></g><g><path fill="#fff" d="M66 6.346l-.052-.007c-1.065-.122-1.744-.722-2.011-1.212l-1.02.748c.476.837 1.444 1.675 2.88 1.803l.06.007c1.59.172 2.886-.534 3.042-1.903.17-1.493-.854-2.165-2.29-2.507l-.566-.128c-.637-.127-1.174-.364-1.119-.882.072-.594.86-.68 1.332-.627l.082.01c.523.06 1.28.429 1.764.922l1.02-.747C68.464 1.037 67.5.426 66.491.309L66.409.3c-1.488-.15-2.751.54-2.905 1.889-.144 1.267.85 1.934 2.204 2.256l.556.127c.728.178 1.293.42 1.236 1.048-.078.546-.659.813-1.5.727"/></g><g><path fill="#fff" d="M74.343 9.458l.06.018c1.534.452 2.933-.014 3.327-1.334.43-1.439-.48-2.28-1.813-2.857l-.535-.241c-.598-.267-1.09-.567-.951-1.034.18-.605.972-.55 1.427-.413l.079.023c.504.155 1.184.65 1.573 1.222l1.136-.556c-.51-.89-1.345-1.661-2.324-1.955l-.079-.025c-1.438-.411-2.801.043-3.19 1.343-.365 1.22.496 2.053 1.772 2.612l.525.223c.685.31 1.197.642 1.017 1.247-.157.526-.776.686-1.579.455l-.06-.018c-1.027-.31-1.59-1.021-1.765-1.55l-1.135.556c.32.908 1.132 1.886 2.515 2.284"/></g><g><path fill="#fff" d="M87.83 12.29l2.328 1.556-1.658 2.477 1.205.792 3.998-6.042-1.186-.791-1.617 2.442-2.328-1.555 1.617-2.442-1.186-.792-3.998 6.041 1.185.792z"/></g><g><path fill="#fff" d="M92.25 19.108l7.156-3.087.596.588-2.966 7.239-1.126-1.111.556-1.31-1.819-1.798-1.293.59zm3.697-.094l1.112 1.096.828-1.99z"/></g><g><path fill="#fff" d="M100.5 28.562c.874 1.248 2.521 1.823 4.229.622l3.43-2.413-.816-1.173-3.406 2.396c-1.107.778-1.937.414-2.334-.205-.432-.61-.5-1.495.606-2.274l3.407-2.396-.817-1.172-3.432 2.414c-1.707 1.2-1.739 2.944-.867 4.201"/></g><g><path fill="#fff" d="M107.778 34.895l.177.545c.22.72.303 1.33-.27 1.553-.5.264-1.026-.101-1.38-.862l-.024-.057c-.442-.983-.277-1.876.005-2.357l-1.163-.498c-.472.842-.66 2.087-.065 3.41l.025.057c.667 1.46 1.936 2.216 3.187 1.648 1.364-.585 1.413-1.846.97-3.26l-.182-.554c-.192-.63-.308-1.2.153-1.401.574-.26 1.039.376 1.247.81l.034.045c.217.513.29 1.356.115 2.027l1.143.497c.354-.971.385-2.112 0-3.048l-.069-.075c-.634-1.361-1.87-2.097-3.103-1.539-1.157.525-1.219 1.725-.8 3.059"/></g><g><path fill="#fff" d="M12.45 82.112l1.218-.575-1.34-2.856 1.434-.68 1.45 3.088 1.22-.577-2.062-4.388-6.562 3.147 2.062 4.353 1.218-.578-1.45-3.09 1.47-.685z"/></g><g><path fill="#fff" d="M19.5 85.365l-1.46-2.062-5.913 4.227 1.46 2.061c1.185 1.672 3.374 2.14 5.097.908 1.715-1.226 2-3.463.816-5.134m-1.646 3.963c-1.199.858-2.435.513-3.168-.52l-.63-.892 3.715-2.657.631.89c.733 1.036.643 2.327-.548 3.179"/></g><g><path fill="#fff" d="M23.91 92.788l2.424 2.393.945-.965-3.444-3.401-5.085 5.197 3.444 3.401.944-.965-2.424-2.394 1.14-1.165 2.24 2.21.944-.964-2.24-2.212z"/></g><g><path fill="#fff" d="M29.82 96.28l-4.193 5.949 3.832 2.711.78-1.09-2.665-1.93 3.415-4.809z"/></g><g><path fill="#fff" d="M40.08 107.452l.252-4.974-.767-.343-3.512 3.515.282-4.96-1.45-.65-.272 7.862.767.344 3.396-3.306-.166 4.75.777.349L45 104.572l-1.437-.649z"/></g><g><path fill="#fff" d="M46.5 112.28l4.763.965.27-1.323-3.332-.682.325-1.602 3.077.63.27-1.327-3.078-.63.316-1.561 3.332.682.27-1.327-4.713-.968z"/></g><g><path fill="#fff" d="M55.922 107.788l.87.043-.222 4.577-.87-.043-.065 1.353 3.17.155.064-1.383H58l.223-4.59.87.06.065-1.37-3.17-.14z"/></g><g><path fill="#fff" d="M66.102 109.095h-.584c-.658-.012-1.23-.098-1.283-.584-.067-.633.687-.892 1.162-.943l.082-.009c.521-.057 1.35.137 1.932.514l.839-.96c-.82-.624-1.894-1.01-2.915-.9l-.085.009c-1.5.182-2.577 1.137-2.432 2.493.136 1.275 1.257 1.71 2.656 1.726h.574c.752.013 1.359.126 1.452.758 0 .536-.478.94-1.312 1.04l-.062.007c-1.072.115-1.87-.322-2.238-.744l-.836.988c.65.688 1.775 1.258 3.218 1.102l.062-.007c1.597-.183 2.712-1.162 2.565-2.54-.16-1.502-1.312-1.933-2.795-1.95"/></g><g><path fill="#fff" d="M75 107.257l-.542.103c-.65.103-1.229.119-1.365-.351-.175-.61.522-.998.98-1.131l.08-.024c.508-.159 1.352-.1 1.992.17l.656-1.084c-.913-.48-2.037-.673-3.023-.386l-.08.023c-1.438.44-2.343 1.571-1.964 2.882.354 1.256 1.533 1.462 2.914 1.256l.565-.122c.742-.118 1.36-.114 1.535.496.154.53-.248 1.005-1.086 1.25l-.06.016c-1.035.302-1.897.01-2.332-.34l-.657 1.092c.764.628 1.97.955 3.365.549l.06-.017c1.54-.46 2.468-1.62 2.084-2.924-.418-1.51-1.622-1.699-3.122-1.458"/></g><g><path fill="#fff" d="M87.948 97.927l1.588 2.484-2.362 1.51-1.589-2.466-1.203.778 3.93 6.13 1.202-.778-1.611-2.514 2.362-1.528 1.611 2.514 1.203-.778-3.928-6.13z"/></g><g><path fill="#fff" d="M94.345 92.665l7.126 3.262-1.152 1.095-1.319-.61-1.83 1.734.536 1.36-1.152 1.095-2.804-7.357zm1.465 2.191l.789 1.99 1.136-1.081z"/></g><g><path fill="#fff" d="M105.117 86.277l-3.396-2.476-.845 1.138 3.374 2.479c1.093.806 1.005 1.668.56 2.297-.448.614-1.255.963-2.35.126l-3.372-2.448-.838 1.16 3.39 2.497c1.69 1.242 3.36.71 4.256-.535.9-1.236.911-2.996-.779-4.238"/></g><g><path fill="#fff" d="M110.495 77.93c-1.354-.656-2.327.1-3.124 1.341l-.308.513c-.358.555-.732.997-1.17.786-.57-.276-.392-1.056-.185-1.488l.042-.075c.224-.49.822-1.08 1.448-1.377l-.37-1.22c-.96.368-1.828 1.08-2.299 2.01l-.035.097c-.634 1.347-.4 2.778.824 3.37 1.182.556 2.107-.17 2.86-1.356l.303-.505c.408-.619.823-1.077 1.393-.801.495.24.556.881.2 1.646l-.026.056c-.468.976-1.26 1.426-1.81 1.518l.37 1.22c.95-.178 2.024-.837 2.654-2.128l.027-.079c.688-1.432.461-2.941-.794-3.528"/></g></g></g></g></svg>