<svg xmlns="http://www.w3.org/2000/svg" width="100" height="123" viewBox="0 0 100 123"><defs><clipPath id="kvx7a"><path d="M89.55 103.345h8.955v10.698H89.55z"/></clipPath></defs><g><g><g><g><path fill="#fefefe" d="M3.512 108.292c.655 0 1.332-.044 1.488-.09.274-.06.482-.193.706-.46.127-.226.34-.64.34-.926 0-.105.044-.135.118-.135l.398.047c.105.014.105.028.105.118v1.549c0 .671 0 1.385.059 1.699.014.088-.06.104-.118.118l-.356.077c-.058.014-.088-.016-.116-.121-.062-.24-.21-.556-.303-.758-.159-.284-.515-.478-.833-.523a9.031 9.031 0 0 0-1.488-.112v.916c0 .805.074 2.25.074 2.518 0 .75.162 1.044.356 1.132.225.09.502.135 1.244.135.252 0 .874-.016 1.186-.044.295-.03.74-.179 1.128-.473.384-.332 1.214-1.256 1.508-1.612.06-.061.104-.061.159-.061l.241.163c.06.03.074.074.06.119l-.666 2.228c-.046.155-.15.245-.328.245-.074 0-.4-.014-1.346-.028-.964 0-2.534-.016-5.098-.016-.55 0-.964.016-1.26.016-.31.014-.504.028-.636.028-.134 0-.134-.044-.134-.163v-.314c0-.088.044-.132.148-.132h.444c.682 0 .74-.107.74-.627v-4.99c0-1.236-.028-3.07-.042-3.223-.06-.472-.21-.575-.608-.575H.104c-.06 0-.104-.046-.104-.15v-.357c0-.046.044-.106.134-.106.326 0 .842.046 2.192.046l5.174-.016c.264 0 .546-.03.62-.03.074 0 .102.03.118.076.095.207.55 2.248.608 2.397.03.075.03.106-.044.15l-.24.12c-.058.03-.132.014-.174-.061-.055-.119-1.41-1.494-1.721-1.669-.34-.193-.757-.386-1.155-.4l-1.958-.06z"/></g><g><path fill="#fefefe" d="M13.193 107.158c0-.386-.046-2.502-.074-2.725-.046-.358-.24-.418-.49-.418h-.742c-.074 0-.118-.014-.118-.102v-.433c0-.06.044-.076.104-.076.192 0 .844.046 2.294.046.418 0 1.9-.046 2.24-.046 2.016 0 3.593.179 5.024 1.355.978.82 1.66 2.057 1.66 3.784 0 1.714-.49 2.846-1.468 3.92-1.436 1.564-3.972 1.578-4.906 1.578-.236 0-1.984-.044-2.798-.044-1.29 0-1.882.044-2.09.044-.074 0-.104-.03-.104-.133v-.39c0-.058.044-.088.12-.088h.77c.28 0 .444-.119.474-.358.044-.312.104-3.664.104-4.796zm2.222 1.446c0 .171.014 2.725.03 3.65 0 .297.058.537.252.818.136.27.68.358 1.184.358.86 0 2-.471 2.77-1.46.594-.788 1.054-2.011 1.054-3.396 0-1.223-.504-2.474-1.2-3.248-.786-.879-2.09-1.355-2.95-1.355-.414 0-.636.014-.83.118-.222.105-.28.344-.296.642-.014.625-.014 2.576-.014 2.815z"/></g><g><path fill="#fefefe" d="M29.112 108.292c.682 0 1.332-.044 1.512-.09.252-.06.458-.193.682-.46.162-.226.36-.64.36-.926 0-.105 0-.135.098-.135l.4.047c.072.014.134.028.118.118-.046.256-.046 1.028-.046 1.549 0 .671.062 1.385.09 1.699.016.088-.044.104-.118.118l-.356.077c-.058.014-.088-.016-.116-.121-.07-.24-.21-.556-.298-.758-.162-.284-.52-.478-.814-.523-.4-.06-.86-.112-1.512-.112v.916c0 .805.055 2.25.055 2.518 0 .75.181 1.044.375 1.132.222.09.504.135 1.244.135.252 0 .88-.016 1.186-.044.296-.03.74-.179 1.124-.473.388-.332 1.218-1.256 1.512-1.612.06-.061.106-.061.148-.061l.244.163c.07.03.082.074.07.119l-.668 2.228c-.046.155-.15.245-.328.245-.074 0-.4-.014-1.346-.028-.964 0-2.534-.016-5.098-.016-.55 0-.963.016-1.26.016-.31.014-.537.028-.636.028-.104 0-.134-.044-.134-.163v-.314c0-.088.046-.132.148-.132h.444c.682 0 .74-.107.74-.627v-4.99c0-1.236-.028-3.07-.042-3.223-.06-.472-.223-.575-.608-.575h-.578c-.058 0-.074-.046-.074-.15v-.357c0-.046.016-.106.104-.106.326 0 .842.046 2.192.046l5.202-.016c.205 0 .518-.03.592-.03.074 0 .102.03.118.076.06.207.55 2.248.608 2.397.03.075.03.106-.044.15l-.235.12c-.063.03-.137.014-.179-.061-.076-.119-1.41-1.494-1.752-1.669-.31-.193-.724-.386-1.124-.4l-1.945-.06z"/></g><g><path fill="#fefefe" d="M40.901 109.334c0 .278 0 3.47.044 4.066h.844c.711 0 1.364 0 2.164-.075.8-.072 1.808-1.86 2.03-2.41.044-.091.088-.136.178-.091l.294.118c.046.03.046.047.032.135-.044.105-.654 2.562-.726 2.964-.386-.028-4.652-.044-6.016-.044-1.468 0-2 .044-2.194.044-.104 0-.118-.028-.118-.133v-.374c0-.074.014-.102.067-.102h.497c.546 0 .636-.21.636-.372 0-.286.046-3.994.046-4.903v-.834c0-.953-.03-2.532-.046-2.731-.028-.428-.104-.577-.444-.577h-.548c-.09 0-.141-.075-.141-.149v-.356c0-.076.051-.106.141-.106.162 0 .692.046 2.044.046 1.734 0 2.356-.046 2.49-.046.118 0 .132.046.132.15v.343c0 .074-.03.118-.146.118h-.698c-.458 0-.518.149-.518.577 0 .17-.044 2.42-.044 3.46z"/></g><g><path fill="#fefefe" d="M50.16 107.158c0-.386-.046-2.502-.074-2.725-.086-.358-.24-.418-.49-.418h-.742c-.074 0-.118-.014-.118-.102v-.433c0-.06.044-.076.104-.076.192 0 .844.046 2.328.046.384 0 1.866-.046 2.165-.046 2.057 0 3.657.179 5.065 1.355.978.82 1.658 2.057 1.658 3.784 0 1.714-.488 2.846-1.466 3.92-1.436 1.564-3.972 1.578-4.906 1.578-.236 0-2.017-.044-2.798-.044-1.29 0-1.882.044-2.09.044-.074 0-.104-.03-.104-.133v-.39c0-.058.044-.088.118-.088h.772c.28 0 .418-.119.474-.358.044-.312.104-3.664.104-4.796zm2.222 1.446c0 .171.014 2.725.03 3.65 0 .297.088.537.252.818.176.27.67.358 1.184.358.86 0 1.985-.471 2.77-1.46.594-.788 1.054-2.011 1.054-3.396 0-1.223-.504-2.474-1.2-3.248-.786-.879-2.09-1.355-2.95-1.355-.414 0-.636.014-.83.118-.192.105-.28.344-.296.642-.014.625-.014 2.576-.014 2.815z"/></g><g><path fill="#fefefe" d="M65.195 113.254c-1.028-.641-2.178-2.25-2.178-4.426 0-.889.236-2.322 1.378-3.708 1.304-1.595 2.978-1.892 4.312-1.892 1.228 0 2.368.193 3.612 1.176 1.128.895 2.032 2.4 2.032 4.454 0 1.088-.34 2.22-1.112 3.265-.962 1.206-2.222 2.098-4.564 2.098-1.022 0-2.31-.237-3.48-.967m6.83-4.275c0-3.264-2.132-5.051-3.378-5.051-.314 0-1.038-.074-1.98.804-.834.834-1.28 2.37-1.28 3.62 0 3.814 2.18 5.17 3.408 5.17 2.74 0 3.23-3.322 3.23-4.543"/></g><g><path fill="#fefefe" d="M78.132 107.218c0-1.102 0-2.055-.016-2.457-.016-.492-.206-.746-.414-.746h-.594c-.074 0-.088-.044-.088-.102v-.405c0-.074.014-.104.088-.104.134 0 .594.046 2.21.046.828 0 2.132-.046 2.74-.046 1.156 0 2.016.418 2.622.983.534.493.844 1.042.844 1.625 0 1.927-1.408 2.763-2.71 2.86v.106c.458.147.694.432.978.788.192.237 1.006 1.565 1.124 1.743.084.133.917 1.265 1.186 1.61.178.192.74.313 1.082.313.104 0 .118.058.118.118v.358c0 .09-.014.133-.118.133-.118 0-.517-.044-1.644-.044-.432 0-.978.03-1.373.044-.481-.342-1.4-2.071-1.667-2.576-.488-1.016-1.094-2.117-1.806-2.117h-.504v.76c0 .88.046 2.548.074 2.74.03.315.148.584.37.584h.61c.102 0 .116.044.116.118v.358c0 .105-.014.133-.236.133-.016 0-.384-.044-1.957-.044-1.555 0-1.895.044-2.06.044-.115 0-.115-.044-.115-.148v-.343c0-.074 0-.118.072-.118h.436c.334 0 .6-.107.6-.473.032-1.48.032-2.88.032-4.297zm2.072 1.61c.284.015.46.015.63.015 1.918 0 2.38-1.878 2.38-2.578 0-.685-.238-1.341-.562-1.673-.536-.472-1.202-.652-1.648-.652-.25 0-.444.03-.562.135-.09.06-.132.223-.162.403z"/></g><g><g/><g clip-path="url(#kvx7a)"><path fill="#fefefe" d="M93.15 108.775c.578 0 1.186-.081 1.466-.125.252-.03.534-.226.772-.537.162-.174.266-.52.326-.79.014-.075.06-.119.12-.119l.34.03c.058 0 .088.044.088.105-.03.253-.03 1.488-.03 1.697 0 .576.044 1.253.074 1.55 0 .075-.03.105-.104.12l-.326.073c-.043.014-.102-.03-.116-.118-.032-.121-.194-.567-.284-.716-.176-.252-.476-.521-.724-.595-.476-.09-.994-.105-1.602-.105v.567c0 .446.016 2.948.016 3.147 0 .396.167.473.356.473h.872c.09 0 .134.03.134.088v.402c0 .09-.028.121-.118.121-.148 0-.74-.046-2.282-.046-1.452 0-2.016.046-2.238.046-.058 0-.088-.03-.088-.135v-.402c0-.06.044-.074.104-.074h.52c.31 0 .407-.06.407-.298.051-.298.095-2.176.095-4.737v-1.044c0-.656-.03-2.761-.03-2.906 0-.281-.206-.43-.608-.43h-.606c-.088 0-.134-.03-.134-.09v-.433c0-.058.046-.089.104-.089.162 0 .726.045 2.534.045.206 0 4.104-.045 4.816-.045.326 0 .652-.06.77-.06.074 0 .118.09.148.254l.578 2.428c.014.06 0 .105-.046.119l-.296.163c-.074.032-.104 0-.208-.149-.19-.25-.548-.731-1.154-1.369-.268-.298-.668-.581-1.022-.67-.372-.104-1.942-.15-2.608-.15 0 .195-.016 3.131-.016 4.068z"/></g></g><g><path fill="#fefefe" d="M11.135 122.458c.148-.047.148-.164.157-.393.007-.189.007-.738.007-1.138 0-.494-.007-1.088-.013-1.158-.01-.116-.033-.185-.13-.22-.065-.026-.173-.035-.28-.046-.043-.01-.043-.072 0-.076.163 0 .426.014.585.014h2.106c.202 0 .446-.014.532-.014.005.02.01.056 0 .07-.094.023-.172.03-.222.053-.114.034-.153.103-.158.27-.004.148-.016.597-.016 1.178 0 .444-.005 1.071.016 1.224.01.139.031.2.132.236.062.026.132.036.316.05 0 .012 0 .062-.048.076-.102 0-.324-.014-.552-.014-.234 0-.452.01-.572.014-.012-.004-.012-.07 0-.076.09-.008.226-.03.338-.06 0-.037.046-.113.052-.236.01-.159.004-1.046.004-1.265 0-.235.006-1.294-.01-1.294-.046-.059-.046-.073-.046-.073a49.896 49.896 0 0 0-1.666 0s-.044.026-.044.03c-.01.043-.01 1.112-.01 1.348 0 .209.004.979.01 1.205.044.152.044.258.136.295.072.02.121.03.27.05 0 .022.004.068-.01.076-.24-.004-.352-.014-.548-.014-.194 0-.476.01-.594.014-.044-.014-.044-.06 0-.076.106-.014.198-.03.258-.05"/></g><g><path fill="#fefefe" d="M15.555 119.427c.112 0 .278.016.538.016h.98c.188 0 .427-.006.512-.016.006 0 .014.01.014.016-.044.167-.099.479-.099.648 0 .01-.057.014-.07.006a1.791 1.791 0 0 0-.043-.302c-.036-.142-.07-.205-.29-.215-.132-.004-.694-.01-.776 0-.036.006-.052.073-.052.073a36.478 36.478 0 0 0-.008 1.198c0 .02.004.042.014.042.128.008.664.004.814-.006.162-.01.19-.093.216-.169a.882.882 0 0 0 .05-.228c.016 0 .082 0 .088.045a3.29 3.29 0 0 0-.036.453c0 .221.012.339.012.408-.016.022-.076.026-.088.006-.01-.075-.014-.075-.03-.173-.016-.063-.036-.169-.208-.18-.154-.009-.674-.015-.814-.003-.01 0-.018.034-.018.04-.006.086 0 .847.008 1.148.006.133.074.173.124.183.102.02.274.03.644.03.31 0 .37-.066.463-.13a2.56 2.56 0 0 0 .247-.46c.012-.005.056.02.066.036a3.045 3.045 0 0 1-.208.637c-.03.05-.046.056-.304.056-.254 0-.412-.016-1.204-.016-.338 0-.462.016-.654.016-.012-.01-.014-.06 0-.076.128-.01.23-.016.32-.04.122-.033.164-.09.176-.307.006-.067.012-.669.012-1.27 0-.507-.006-.998-.012-1.074-.01-.166-.028-.25-.156-.28a1.438 1.438 0 0 0-.234-.04c-.016-.012-.01-.062.006-.072"/></g><g><path fill="#fefefe" d="M20 121.163v-.027c.075.01.129.023.247.023.168 0 .27-.027.376-.087.254-.149.316-.4.316-.686 0-.464-.216-.846-.88-.846a.826.826 0 0 0-.202.02c-.016.006-.032.026-.036.093-.006.096-.016.478-.016 1.174 0 .332-.014.913 0 1.336.006.26.052.28.195.31.085.017.177.027.247.037.022.01.016.072.006.076-.126 0-.422-.014-.604-.014-.224 0-.482.014-.584.014-.016-.01-.02-.066-.006-.076.108-.01.178-.02.238-.036.108-.03.164-.02.178-.31.01-.155.022-.435.022-1.19 0-.312.004-1-.006-1.142-.01-.18-.03-.256-.158-.286a2.295 2.295 0 0 0-.252-.043c-.006-.016.004-.07.014-.076.072 0 .314.016.548.016.244 0 .41-.01.69-.01.178 0 .5.04.65.22.158.096.296.295.3.617a.934.934 0 0 1-.528.889 1.1 1.1 0 0 1-.706.08c-.049-.02-.049-.067-.049-.076"/></g><g><path fill="#fefefe" d="M22.5 119.427c.06 0 .261.016.547.016.286 0 .385-.012.522-.016.013.016.013.06 0 .076a2.344 2.344 0 0 0-.236.043c-.082.03-.118.107-.124.217-.006.082-.01.971-.01 1.17 0 1.046-.006 1.338.016 1.424.01.044.04.05.05.054.068.012 1.01.016 1.073.012.033-.006.07-.022.075-.066.014-.194.014-1.03.014-1.43 0-.494 0-1.095-.005-1.168-.009-.106-.028-.159-.106-.195-.065-.03-.15-.04-.264-.06-.01-.02-.01-.06 0-.077.072 0 .177.016.537.016.275 0 .411-.012.522-.016.013.02.007.06-.003.076-.06.007-.172.02-.223.037-.102.03-.128.113-.131.233-.01.082-.016.961-.016 1.16 0 1.046.006 1.291.016 1.414 0 .02.017.064.055.064.191.012 1.024.023 1.114 0 .016-.004.026-.018.032-.04.017-.117.01-.398.01-1.351 0-.242-.006-1.215-.01-1.297-.006-.07-.04-.143-.122-.17-.062-.023-.147-.033-.24-.05a.123.123 0 0 1 0-.076c.099 0 .317.016.55.016.202 0 .45-.016.524-.016v.076c-.088.02-.178.03-.236.05-.104.037-.13.1-.135.288-.006.14-.016.576-.016 1.159 0 .86 0 1.065.01 1.244.011.137.037.18.131.214.068.026.182.042.246.052.045.016.045.06 0 .076-.178 0-.302-.016-.49-.016h-3.12c-.194 0-.482.01-.6.016-.01-.006-.01-.066 0-.076.109-.016.204-.03.265-.052.147-.047.142-.133.152-.362a54.939 54.939 0 0 0 0-2.327c-.01-.116-.03-.169-.107-.205-.065-.03-.195-.044-.267-.054-.053-.01-.047-.073 0-.083"/></g><g><path fill="#fefefe" d="M28.491 122.043c.31-.716.766-2.044.878-2.39a.674.674 0 0 0 .07-.217c.006 0 .048.005.118.005.076 0 .11-.005.116-.005.01.046.03.128.062.217.092.263.678 2.12.832 2.51.132.289.152.305.492.345.01.016.006.066-.01.076-.128-.003-.416-.014-.534-.014-.12 0-.456.004-.562.014-.006-.01-.01-.064 0-.076.102-.014.182-.026.254-.05.08-.036.08-.073.06-.143-.056-.22-.267-.766-.346-1.047 0 0-.028-.025-.034-.025-.052-.006-.158-.006-.474-.006-.338 0-.364 0-.416.006-.014 0-.034.02-.04.036-.102.266-.308.827-.33.974-.014.092-.02.175.148.215.06.014.106.026.214.04.008.012.006.066-.006.076-.09 0-.356-.014-.578-.014-.248 0-.402.014-.478.014-.014-.003-.014-.064 0-.076.356-.046.406-.086.564-.465m.964-2.203c-.08.213-.334.975-.41 1.198 0 .02.004.032.02.036.044.007.172.007.446.007.112 0 .31 0 .334-.007.006 0 .016-.016.01-.036-.12-.388-.304-.979-.38-1.203-.004 0-.02 0-.02.005"/></g><g><path fill="#fefefe" d="M34.167 122.043c.304-.716.766-2.04.833-2.336a.61.61 0 0 0 .111-.271c.006 0 .046.005.116.005.076 0 .112-.005.118-.005.01.046.028.142.06.217.092.297.68 2.12.832 2.51.132.289.152.305.492.345.012.016 0 .073-.01.076-.126-.003-.416-.014-.532-.014-.122 0-.462.004-.568.014-.004-.01-.01-.066 0-.076.1-.014.214-.026.214-.05.12-.036.12-.073.1-.143-.1-.344-.598-1.874-.792-2.459 0-.006-.016 0-.02 0-.121.412-.7 1.968-.808 2.307-.076.186-.026.269.128.305.06.014.082.02.214.04.01.01.004.066-.006.076-.092 0-.35-.014-.574-.014-.248 0-.4.014-.476.014-.01-.003-.01-.072 0-.076.354-.046.406-.086.568-.465"/></g><g><path fill="#fefefe" d="M37.963 119.427c.092 0 .37.016.588.016.214 0 .366-.016.488-.016.01.016.016.06.004.076-.076.01-.162.02-.206.03-.112.031-.134.12-.144.266-.01.215-.016.69-.016 1.17s.006 1.046.012 1.194c.01.178.026.264.152.3.072.02.164.037.258.047.016.016.006.066-.006.076-.104 0-.288-.016-.51-.016-.25 0-.35.016-.614.016-.016-.016-.012-.066 0-.076.07-.006.166-.022.226-.036.138-.027.138-.103.138-.22v-1.43-1.015c0-.156 0-.229-.1-.26a2.317 2.317 0 0 0-.276-.046c-.014-.01-.004-.066.006-.076"/></g><g><path fill="#fefefe" d="M40.445 119.427c.162 0 .388.016.584.016.274 0 .384-.012.522-.016.01.016.01.067-.004.076a1.34 1.34 0 0 0-.21.037c-.1.03-.142.054-.146.223-.012.205-.012.551-.012 1.084 0 .02.012.034.022.04.01.006.08.01.944.01.502 0 .796 0 .842-.004.01 0 .02-.022.02-.026 0-.267 0-.98-.01-1.138-.006-.076-.03-.153-.1-.18a1.469 1.469 0 0 0-.26-.046c-.016-.016-.016-.06 0-.076.098 0 .31.016.542.016.21 0 .458-.016.54-.016.01.016.016.06 0 .076-.092.017-.174.027-.23.047-.106.036-.156.103-.156.291v2.387c0 .14 0 .195.136.23.066.026.132.036.278.052.012.016.012.06-.01.076-.202 0-.324-.016-.558-.016-.232 0-.444.01-.568.016-.016-.02-.01-.06 0-.076.086-.01.158-.016.254-.04.108-.033.132-.073.136-.256.006-.129.006-.802.006-1.118 0-.02-.01-.036-.02-.036-.072-.004-.584-.004-.852-.004-.356 0-.88 0-.934.004-.01 0-.022.026-.022.03 0 .237.006.975.012 1.073.014.154.004.254.128.29.07.02.11.035.278.057.01.016 0 .07-.016.076-.158-.006-.35-.016-.542-.016-.206 0-.478.01-.594.016-.016-.016-.016-.06 0-.076.106-.016.198-.03.258-.052.13-.047.13-.164.13-.393v-1.138-1.158c0-.116 0-.2-.108-.22-.076-.02-.154-.026-.28-.046-.016-.016-.012-.06 0-.076"/></g><g><path fill="#fefefe" d="M45.104 119.427c.092 0 .356.016.59.016.212 0 .366-.016.486-.016.01.016.016.06.006.076-.076.01-.162.02-.208.03-.145.031-.145.12-.145.266v2.364c0 .178 0 .264.15.3.071.02.163.037.257.047.016.016.006.066-.004.076-.106 0-.288-.016-.512-.016-.248 0-.35.016-.614.016-.016-.016-.01-.066 0-.076.07-.006.168-.022.228-.036.128-.027.146-.103.156-.22.012-.09.016-1.005.016-1.43 0-.382 0-.78-.01-1.015-.016-.156-.01-.229-.126-.26a2.343 2.343 0 0 0-.274-.046c-.016-.01-.006-.066.004-.076"/></g><g><path fill="#fefefe" d="M50.111 119.54c-.111.02-.178.066-.184.195-.008.183-.014 1.01-.014 1.305 0 .287.012 1.001.014 1.123.006.204.073.28.174.31.056.017.158.027.23.037.01.004.004.072-.006.076-.076 0-.325-.014-.566-.014-.212 0-.466.014-.526.014-.004-.01-.01-.066 0-.076.126-.014.168-.026.234-.04.092-.032.126-.073.136-.307.01-.174.006-.745.006-1.017 0-.01-.012-.034-.024-.034-.088 0-.098 0-.178.01-.174.02-.24.123-.352.205-.232.31-.552.836-.722 1.01a.832.832 0 0 1-.256.183c-.15.066-.412.092-.577.082v-.072c.211-.02.247 0 .501-.276.232-.255.73-1.04.952-1.148.006-.004.012-.01 0-.02-.4-.096-.724-.382-.724-.833 0-.458.334-.82 1.026-.82.176 0 .44.01.596.01.149 0 .34-.016.464-.016.01.006.016.069 0 .076-.066.01-.134.023-.204.037m-.894 0c-.37 0-.648.229-.648.663 0 .74.598.81 1.016.797.008 0 .024-.017.024-.026 0-.336 0-1.163-.016-1.321 0 0-.02-.067-.05-.077a1.002 1.002 0 0 0-.326-.036"/></g><g><path fill="#fefefe" d="M53.687 122.458c.146-.047.146-.164.156-.393.006-.189.006-.738.006-1.138 0-.494-.006-1.088-.01-1.158-.012-.116-.037-.185-.132-.22-.066-.026-.172-.035-.28-.046-.016-.01-.01-.072 0-.076.162 0 .426.014.583.014h2.107c.202 0 .445-.014.55-.014v.07c-.112.023-.188.03-.24.053-.112.034-.152.103-.158.27a46.61 46.61 0 0 0-.014 1.178c0 .444-.006 1.071.014 1.224.012.139.032.2.132.236a.934.934 0 0 0 .266.05v.076c-.099 0-.323-.014-.55-.014-.232 0-.452.01-.572.014-.01-.004-.01-.07 0-.076a1.04 1.04 0 0 0 .288-.06c.086-.037.096-.113.102-.236.01-.159.004-1.046.004-1.265 0-.235.006-1.294-.01-1.294-.004-.059-.03-.073-.034-.073a53.603 53.603 0 0 0-1.728 0v2.583c0 .152 0 .258.144.295.072.02.121.03.267.05 0 .022.007.068-.01.076-.237-.004-.353-.014-.547-.014-.194 0-.476.01-.594.014a.164.164 0 0 1 0-.076 1.59 1.59 0 0 0 .26-.05"/></g><g><path fill="#fefefe" d="M58.104 119.427c.112 0 .23.016.538.016h.98c.188 0 .438-.006.514-.016.004 0 .012.01.012.016a4.442 4.442 0 0 0-.088.648c-.012.01-.06.014-.06.006 0-.145-.048-.236-.064-.302-.036-.142-.07-.205-.29-.215-.132-.004-.694-.01-.774 0-.038.006-.054.073-.054.073a42.945 42.945 0 0 0-.008 1.198c0 .02.004.042.014.042.128.008.666.004.814-.006.162-.01.192-.093.218-.169.02-.056.036-.123.05-.228.014 0 .094 0 .094.045v.861c-.048.022-.108.026-.118.006-.012-.075-.016-.075-.032-.173-.016-.063-.036-.169-.208-.18-.152-.009-.674-.015-.812-.003-.012 0-.02.034-.02.04-.004.086 0 .847.008 1.148.006.133.074.173.124.183.102.02.284.03.644.03.31 0 .414-.066.414-.13.098-.068.216-.262.298-.46.01-.005.054.02.066.036a3.041 3.041 0 0 1-.21.637c-.03.05-.044.056-.304.056-.254 0-.41-.016-1.204-.016-.313 0-.46.016-.654.016-.01-.01-.014-.06 0-.076.128-.01.23-.016.341-.04.101-.033.143-.09.157-.307.004-.067.01-.669.01-1.27 0-.507-.006-.998-.01-1.074-.012-.166-.03-.25-.157-.28a1.475 1.475 0 0 0-.235-.04c-.014-.012-.01-.062.006-.072"/></g><g><path fill="#fefefe" d="M61.563 119.427c.104 0 .258.016.534.016.232 0 .403-.016.466-.016.01.01.01.06 0 .076-.244.043-.274.083-.286.15-.008.136-.004.484 0 .673.016.612.442.662.746.662.19 0 .422-.04.59-.127a.069.069 0 0 0 .01-.026c0-.345.006-.897-.01-1.092-.008-.137-.04-.173-.162-.21-.062-.013-.118-.02-.198-.03-.01-.01-.01-.066 0-.076.148 0 .3.016.538.016.31 0 .442-.016.538-.016.016.01.016.067.006.076-.118.02-.168.03-.23.047-.11.03-.148.103-.152.25-.006.234-.016.785-.016 1.17 0 0 .006 1.092.016 1.29.01.107.036.178.172.214.042.014.138.026.238.036.012.016.006.066-.008.076-.138 0-.264-.016-.518-.016-.32 0-.436.016-.604.016-.01-.006-.01-.076 0-.076.1-.006.152-.016.222-.03.144-.033.158-.103.162-.395.006-.265.006-.82.006-1.116 0-.006-.01-.026-.016-.022-.274.13-.526.22-.79.22-.317 0-.558-.057-.736-.29-.076-.103-.128-.261-.128-.567 0 0-.006-.382-.006-.505 0-.152-.028-.235-.176-.271a1.438 1.438 0 0 0-.214-.03c-.01-.02-.01-.057.006-.077"/></g><g><path fill="#fefefe" d="M65.788 119.427c.114 0 .26.016.54.016h.978c.194 0 .438-.006.514-.016.004 0 .014.01.014.016a4.448 4.448 0 0 0-.09.648c-.01.01-.068.014-.082.006a1.791 1.791 0 0 0-.042-.302c-.036-.142-.07-.205-.29-.215-.13-.004-.663-.01-.774 0-.036.006-.052.073-.052.073a36.478 36.478 0 0 0-.008 1.198c0 .02.002.042.012.042.159.008.666.004.814-.006.178-.01.178-.093.178-.169.06-.056.076-.123.09-.228.016 0 .082 0 .086.045-.014.08-.034.29-.034.453 0 .221.01.339.01.408-.016.022-.076.026-.086.006-.01-.075-.016-.075-.066-.173 0-.063 0-.169-.172-.18-.154-.009-.661-.015-.814-.003-.01 0-.018.034-.018.04-.006.086 0 .847.008 1.148.004.133.072.173.163.183.06.02.245.03.603.03.31 0 .372-.066.438-.13.076-.068.192-.262.274-.46.01-.005.056.02.066.036a2.932 2.932 0 0 1-.21.637c-.028.05-.044.056-.338.056-.22 0-.376-.016-1.17-.016-.338 0-.497.016-.654.016-.01-.01-.014-.06 0-.076.157-.01.23-.016.32-.04.122-.033.164-.09.178-.307.004-.067.01-.669.01-1.27 0-.507-.006-.998-.01-1.074-.01-.166-.03-.25-.158-.28a1.41 1.41 0 0 0-.232-.04c-.016-.012-.01-.062.004-.072"/></g><g><path fill="#fefefe" d="M70.237 121.163c0-.004.01-.027.016-.027.054.01.11.023.228.023.166 0 .268-.027.352-.087.278-.149.338-.4.338-.686 0-.464-.214-.846-.878-.846a.84.84 0 0 0-.202.02c-.016.006-.032.026-.038.093-.004.096-.053.478-.053 1.174v1.336c.043.26.09.28.247.31.072.017.162.027.234.037.02.01.016.072.004.076-.126 0-.42-.014-.604-.014-.222 0-.498.014-.584.014-.016-.01-.018-.066-.004-.076.096-.01.178-.02.238-.036.106-.03.164-.02.178-.31.01-.155.02-.435.02-1.19 0-.312.006-1-.004-1.142-.012-.18-.03-.256-.158-.286a1.717 1.717 0 0 0-.254-.043c-.006-.016.006-.07.016-.076.086 0 .314.016.546.016.244 0 .412-.01.692-.01.178 0 .466.04.65.22.156.096.294.295.3.617a.937.937 0 0 1-.528.889 1.105 1.105 0 0 1-.708.08.244.244 0 0 1-.044-.076"/></g><g><path fill="#fefefe" d="M75.182 119.587c-.182-.082-.366-.116-.644-.116-.804 0-1.274.57-1.274 1.464 0 .979.558 1.582 1.446 1.582.148 0 .406-.016.608-.21.138-.144.214-.255.33-.458.016-.006.074.018.074.04-.074.274-.276.622-.382.668a2.537 2.537 0 0 1-.726.107c-1.082 0-1.722-.612-1.722-1.684 0-.554.24-1.091.794-1.389.268-.147.598-.239 1.036-.239.394 0 .698.082.926.103-.034.148-.086.52-.092.72-.008.013-.088.03-.088.01-.052-.425-.128-.532-.286-.598"/></g><g><path fill="#fefefe" d="M77.316 122.461c.101-.024.111-.086.128-.298.01-.134.056-.486.056-1.18 0-.786 0-1.061-.052-1.236-.01-.137-.052-.18-.128-.197-.09-.027-.202-.036-.248-.042-.01-.01-.005-.067.006-.077.156.004.323.016.528.016.211 0 .4-.02.524-.02.01.014.01.06 0 .076-.076.01-.174.025-.22.035-.11.03-.132.115-.136.271-.006.213-.012.53-.012.973 0 .012.016.023.016.023.211-.016.402-.023.555-.023.672 0 .953.405.953.833 0 .414-.232.74-.644.899-.148.056-.309.086-.64.086-.228 0-.694-.01-1-.01-.01-.006-.016-.066 0-.076.112-.016.204-.026.314-.053m1.62-.723c0-.545-.29-.827-.92-.827-.167 0-.176.004-.232.01-.01 0-.022.026-.022.037 0 .315 0 1.102.012 1.294.004.047.014.093.05.123.112.083.29.103.41.103.508 0 .702-.315.702-.74"/></g><g><path fill="#fefefe" d="M80.646 122.485c.187-.036.187-.123.187-.382v-1.205-1.108c0-.137 0-.22-.13-.249a1.712 1.712 0 0 0-.235-.036c-.016-.016-.01-.073.006-.077.102 0 .36.016.556.016.244 0 .404-.02.494-.016.02.004.026.073 0 .077-.096.016-.112.016-.176.03-.154.03-.16.118-.164.291-.004.2-.004.78-.004 1.072 0 .01.004.02.018.02.33 0 .469-.096.528-.215.102-.147.158-.213.26-.448.334-.69.514-.903.838-.903.026 0 .106.026.142.056.01.004.03.047.03.056a.67.67 0 0 1-.07.28c-.016.02-.042.03-.048.026-.054-.036-.182-.117-.258-.117-.12 0-.238.107-.412.45-.216.387-.374.707-.541.81v.022c.085.04.147.1.237.218.224.306.444.598.682.897.354.445.444.451.806.46.02 0 .01.077-.006.077-.12.02-.522-.006-.594-.016a.453.453 0 0 1-.292-.136c-.168-.17-.494-.644-.833-1.108-.157-.21-.265-.316-.479-.316-.004 0-.014.01-.014.02 0 .296.006.969.01 1.188.004.175.03.216.168.252.06.014.106.024.218.04.02.016.016.066 0 .076-.076 0-.386-.016-.578-.016-.159 0-.382.01-.534.016-.02 0-.02-.072-.01-.076z"/></g><g><path fill="#fefefe" d="M85.058 122.043c.308-.716.775-2.044.878-2.39a.674.674 0 0 0 .07-.217c.004 0 .046.005.118.005.076 0 .11-.005.114-.005.012.046.032.128.064.217.09.263.678 2.12.832 2.51.13.289.152.305.492.345.01.016.004.066-.01.076-.116-.003-.416-.014-.534-.014-.122 0-.415.004-.564.014-.004-.01-.01-.064 0-.076.102-.014.149-.026.254-.05.082-.036.082-.073.06-.143-.054-.22-.248-.766-.344-1.047 0 0-.03-.025-.034-.025-.052-.006-.158-.006-.474-.006-.338 0-.364 0-.416.006-.014 0-.034.02-.04.036-.102.266-.31.827-.33.974-.016.092-.02.175.146.215.062.014.108.026.216.04.008.012.004.066-.006.076-.092 0-.356-.014-.55-.014-.278 0-.432.014-.508.014-.012-.003-.012-.064 0-.076.356-.046.406-.086.566-.465m.964-2.203c-.082.213-.336.975-.412 1.198 0 .02.006.032.022.036.044.007.201.007.444.007.112 0 .312 0 .336-.007.004 0 .016-.016.01-.036-.12-.388-.304-.979-.38-1.203-.006 0-.02 0-.02.005"/></g><g><path fill="#fefefe" d="M95.919 47.265l-5.864 5.893-39.688-39.921.58-.586 36.406 36.604.046.064 1.888-1.914-1.966-1.99-.046-.049-.788.777-.582-.586 4.15-4.172zm-5.864 4.725l4.7-4.725-4.636-4.648-.064-.064-2.216 2.23 2.61 2.622-2.468 2.482L90 51.926z"/></g><g><path fill="#fefefe" d="M12 48.403l.581.585-4.15 4.173-5.848-5.896 5.848-5.88L48.14 81.29l-.584.584-36.232-36.428-.062-.047-1.98 1.991 1.806 1.818.05.046zm-1.445 1.438l-2.438-2.45 2.562-2.576-2.202-2.197-.046-.063-4.684 4.71 4.586 4.66.098.065z"/></g><g><path fill="#fefefe" d="M54.425 12.316l30.21 30.357.582-.566L55 11.714z"/></g><g><path fill="#fefefe" d="M84.885 36.166l-23.97-24.1-.582.583L84.305 36.75z"/></g><g><path fill="#fefefe" d="M44.634 82.915l-30.21-30.376-.582.6 30.194 30.377z"/></g><g><path fill="#fefefe" d="M14.233 58.99L38.22 83.106l.582-.585-23.986-24.118z"/></g><g><path fill="#fefefe" d="M54.425 82.455l.575.585 30.217-30.326-.582-.636z"/></g><g><path fill="#fefefe" d="M60.208 82l.582.58 23.97-24.103-.593-.583z"/></g><g><path fill="#fefefe" d="M44.634 11.84l-.598-.569-30.194 30.36.582.585z"/></g><g><path fill="#fefefe" d="M38.669 12.14l-.582-.585-23.97 24.103.582.585z"/></g><g><path fill="#fefefe" d="M50.945 84.13l4.15 4.172-5.848 5.896-5.864-5.896 39.692-39.905.598.585-36.406 36.601 2.026 2.023 1.984-1.974-.914-.917zm.912 2.054l-2.564 2.609-2.626-2.61-2.12 2.12 4.62 4.662.08.063 4.686-4.726-2.03-2.039z"/></g><g><path fill="#fefefe" d="M47.5 10.387L43.385 6.23 49.249.334l5.846 5.896-39.704 39.906-.566-.583 36.31-36.525-1.806-1.802-.05-.062-1.9 1.912.738.726zm-.703-1.912l2.482-2.482 2.438 2.451 2.168-2.165.048-.049-4.638-4.66-.046-.065-4.7 4.725z"/></g><g><path fill="#fefefe" d="M55.74 40.354c-.013.017-.03.049-.045.08-.456.87-1.95 3.913-2.042 6.337-.048.966.186 1.76.644 2.23.314.316.754.473 1.288.473h.142c1.854-.107 5.408-1.09 7.12-2.954 1.542-1.69 1.32-4-.566-5.912-.268-.267-.55-.553-.832-.806l-.142-.14c-1.558-1.52-3.034-2.94-3.16-4.519-.048-.367-.378-3.465 1.02-4.682.52-.488 1.134-.6 1.666-.338.992.465 1.542 1.824 1.51 2.82a4.42 4.42 0 0 1-.314 1.548l-.062.159.158-.046c.424-.113.77-.298 1.036-.634.33-.41.408-1.041.172-1.627 0-.207-.124-.38-.234-.547a1.222 1.222 0 0 1-.298-1.001c.532.164 1.02.647 1.24 1.311.282.837.126 1.722-.33 2.323-.91 1.106-2.374.965-2.436.965l-.442-.064c-.06 0-.094-.033-.108-.063a.124.124 0 0 1 .014-.124l.316-.35s.534-.634.612-1.864c0-.823-.532-1.867-1.098-2.15-.316-.143-.63-.064-.96.18-.944.837-.866 3.232-.754 4.087l.016.016c.094 1.327 1.476 2.654 2.94 4.076.314.3.644.632.974.966 2.152 2.165 2.388 4.946.548 6.905-1.838 2.023-5.548 3.082-7.576 3.195h-.188c-.724 0-1.322-.24-1.776-.698-.598-.601-.912-1.58-.864-2.765.048-1.043.33-2.308.848-3.746l.11-.322-.234.243c-1.153 1.028-2.392 1.66-3.476 2.212l-.062.056a6.72 6.72 0 0 0-.948.498.616.616 0 0 1-.074-.498.842.842 0 0 1 .392-.514l.362-.19c1.604-.805 3.584-1.807 5.03-4.077.08-.11.123-.24.22-.348l.062-.11c.788-1.549 1.306-4.125.63-6.401-.032-.143-.094-.284-.14-.442l-.08.032-.08.014c.238 1.456.066 3.004-.14 3.889-.628 2.624-2.624 3.963-5.424 5.246-2.425 1.09-2.766 3.067-2.796 3.873-.016.427.58 1.438 1.146 2.375l.058.058c.084.175.178.332.272.491l.128.237c.17.3.722 1.486.91 4.03.22 2.892.612 4.44 2.216 4.884.802.22 1.682.236 2.388.236 1.102.032 1.778.104 1.778.727-.016.475-.192 2.528-.958 3.224-.74.68-1.18.569-2.486.253h-.014c-.3-.064-.566.016-.802.254-.346.364-.566 1.01-.534 1.58l.014.062.048.016c.52.095 1.148.459 1.338.964.046.08.078.11.108.126.08.033.252.033.646-.016.156-.013.346-.03.55-.046.188-.016.378-.016.55-.032h.094c.88-.048 1.73-.079 1.95-.585.138-.254.312-.853.548-1.549.96-2.907 1.448-4.156 1.95-4.377h.046v-.047c.016-.032.048-.174-.046-.45-.156-.42-.502-.836-.848-.973-.22-.095-.679-.078-1.07-.064-.706.032-1.524.064-1.964-.457-.25-.286-.33-.712-.236-1.249.091-.474.158-.885.236-1.28.252-1.263.424-2.18.33-3.272.188 0 .358.08.504.207a.69.69 0 0 1 .234.567c-.014.854-.172 1.675-.38 2.64v.064c-.076.378-.138.757-.216 1.201-.062.315-.032.537.078.664.206.235.85.22 1.398.205.504-.033.99-.049 1.37.074.816.384 1.352 1.363 1.334 2.043 0 .364-.172.648-.456.79l-.03.017c-.33.299-.978 2.07-1.558 3.918-.253.763-.438 1.344-.564 1.6-.41.928-1.51.977-2.578 1.025h-.032a7.46 7.46 0 0 1-.582.03c-.204.016-.392.048-.55.064-.188.016-.378.03-.55.03-.397 0-.66-.094-.91-.553l-.032-.062c-.064-.22-.566-.535-.944-.535h-.046c-.132 0-.332-.096-.38-.24v-.015c-.218-.853.066-1.975.676-2.592.406-.41.928-.583 1.464-.442h.03c1.258.3 1.412.315 1.84-.058.472-.45.676-1.965.708-2.583v-.062l-.064-.016c-.239-.047-.644-.063-.974-.063h-.032c-.74-.016-1.666-.032-2.566-.27-2.196-.6-2.5-2.863-2.732-5.53-.032-.316-.062-.632-.094-.932l-.016-.064-.062-.016c-1.32-.063-2.516-.775-3.552-2.086l-.048-.092-.046.06c-.802.443-3.45 1.945-4.284 3.145-.7.979-1.25 2.371-.056 3.399.362.316.96.663 1.542 1.01 1.178.753 1.918 1.171 2.026 1.692.032.191 0 .348-.094.507-.084.108-.174.283-.266.457-.41.727-1.07 1.944-2.218 1.566-1.554-.507-2.31-.302-2.656-.048-.268.205-.44.552-.502 1.027v.079l.062.016c.692.189 1.054.806 1.148.979 0 .032.014.048.03.048l.018.016c.133.063.424.095 1.178.095h.298c.324 0 .692.016.928.032.786.046 1.006.03 1.274-.332.172-.207.486-.681.848-1.197l.03-.068c1.62-2.442 2.124-3.066 2.454-3.193.094-.016.156-.086.174-.237.016-.11-.018-.268-.252-.41-.132-.079-.378-.157-.646-.222-.706-.205-1.586-.442-1.986-1.138-.168-.363-.182-.806 0-1.297.414-1.373 2.756-1.864 4.166-2.037 0 .235.07.505.1.71-1.036.127-3.284.523-3.614 1.55-.096.3-.096.537.014.726.22.427.944.596 1.524.79.31.095.614.175.818.302.408.251.63.664.582 1.104-.03.38-.257.712-.612.839l-.016.016c-.3.221-1.242 1.597-2.129 2.875v.033a29.141 29.141 0 0 1-.891 1.33c-.502.63-1.084.614-1.838.566h-.078c-.252-.014-.526-.046-.896-.03-1.43.016-1.856-.016-2.13-.535-.072-.16-.37-.652-.92-.652a.375.375 0 0 1-.362-.364v-.03c0-.9.268-1.58.802-1.977.708-.504 1.806-.536 3.3-.046.513.157.85-.278 1.346-1.235v-.03c.118-.142.196-.285.274-.41l.032-.048-.032-.033c-.19-.283-1.107-.806-1.65-1.167-.582-.333-1.226-.702-1.65-1.092-1.228-1.042-1.258-2.623-.078-4.33.878-1.297 3.394-2.75 4.446-3.32l.08-.046-.048-.065c-.284-.44-.486-.852-.63-1.138l.268-.046c.158-.032.314-.062.458-.11.596 1.184 1.864 3.128 3.802 3.366l.112.016-.016-.111c-.19-.933-.368-1.486-.504-1.74a7.505 7.505 0 0 0-.362-.63c-.062-.095-.108-.19-.174-.286-.548-.9-.994-1.69-1.176-2.306l-.048-.143-.096.11c-.564.696-1.208 1.128-2.026 1.265-1.054.205-2.312-.315-3.426-.758-.756-.302-1.402-.553-1.636-.474-.66.205-1.132.032-1.352-.095l-.048-.016-.032.032c-.25.157-.706.537-1.004 1.174-.316.644-.63.722-1.07.658-.188-.03-.36-.062-.747.253a.378.378 0 0 1-.29.079.352.352 0 0 1-.235-.153c-.44-.716-.456-2.17-.456-2.327v-.183l.148-.118c.78-.489 1.666-1.185 1.786-1.454.188-.632.502-1.06.942-1.311.424-.222.926-.254 1.508-.078.598.189 1.597.234 2.736.14l.174-.016-.11-.124c-.268-.254-.866-.523-.896-.54-.174-.032-.307-.046-.394-.062a3.614 3.614 0 0 1-2.278-1.106l-.032-.032-.346.143-.142-.08c-.14-.08-.614-.383-.88-1.819-.142-.726.014-1.659.142-2.465.094-.567.172-1.12.14-1.39l-.016-.11-.108.062a.742.742 0 0 1-.66.079c-.582-.205-.82-.726-.944-1.042l-.032-.048c-.094-.079-.36-.159-.52-.19h-.07a.293.293 0 0 1-.194-.154c-.05-.05-.066-.147-.05-.225l.016-.062c.228-.775.802-2.04 1.84-1.788.158.048.33.08.536.112h.014c.944.19 2.122.427 2.39 1.311.078.254.156.652.268 1.044.18.948.566 2.385.912 2.908.298.458.47.631.532.712l.016.016h.032c.724.156 2.2.488 3.396.664-.314.189-.542.394-.818.599-1.39-.27-2.782-.57-2.828-.585l-.05-.014c-.078-.033-.266-.097-.862-.982-.442-.631-.772-2.085-.984-3.145-.15-.41-.228-.774-.306-1.011-.142-.473-1.084-.664-1.84-.805-.202-.034-.354-.08-.58-.126h-.08c-.346 0-.614.54-.754.852l-.032.079.078.016c.316.126.52.3.598.506l.016.03c.14.333.252.554.52.65h.062l.016-.016c.376-.301.706-.254 1.006.097.314.408.204 1.104.046 2.067-.124.758-.252 1.612-.14 2.214.11.631.266.979.376 1.168l.048.048.204-.08a.346.346 0 0 1 .424.126c.016 0 .172.238.518.491.426.332.928.507 1.487.57.149.015.935.09 1.595.504.378.175.644.539.786.744l.016.046.103-.014a16.378 16.378 0 0 0 2.067-.507l.03-.016.016-.016c.676-1.106 2.108-1.77 3.616-2.495l.062-.016c.472-.238.974-.475 1.478-.728 2.028-1.042 4.228-3.191 4.558-5.247a3.282 3.282 0 0 0-.472-2.292l-.202-.315.046.4c.11.69 0 1.307-.298 1.781l-.016.03v.017c.016.315-.052.633-.052.948-.278 1.09-1.362 2.07-3.333 2.956-.623.284-1.19.537-1.71.775-3.127 1.373-4.305 1.861-4.745 3.792-.212.078-.504.14-.772.205.284-1.596.928-2.465 2.422-3.318l.046-.032-.014-.064c-.032-.157-.094-.332-.142-.473a2.925 2.925 0 0 1-.188-.68V37.7l-.048-.047c-.756-.349-1.148-1.137-1.242-1.374l.66-.254c.11.238.52.995 1.242 1.106.534.095 1.116-.585 1.588-1.152.268-.27.486-.54.722-.682.094-.062.346-.235.914.27.17.142.266.348.25.569 0 .19-.08.38-.204.505a15.382 15.382 0 0 0-.628-.662h-.048l-.046.046c-.128.11-.268.284-.426.459-.472.536-1.1 1.279-1.886 1.375h-.094l.03.095c.032.078.048.157.08.22.072.112.072.222.072.316l.07.111.078-.032c.582-.3 1.256-.583 2.026-.916.504-.238 1.086-.49 1.7-.775 1.728-.79 2.702-1.611 2.908-2.465.424-1.88-1.322-3.067-1.714-3.286.126-.168.344-.318.582-.318a.78.78 0 0 1 .454.15c.362.34.694.719.928 1.115l.174.283-.032-.331c-.03-.505-.204-1.067-.507-1.595-.451-.854-1.097-1.438-1.725-1.564l-.062-.016-.048.142c-.174.457-.44 1.2-.612 1.706-.053.142-.19.26-.346.26-.458 0-1.374.136-2.36.373-1.586.464-1.916.758-1.996.869l-.016.03.016.048c.016.048.064.11.112.175l.062.094 3.642-.884c.052.41-.2.79-.608.884l-1.242.3-.048.016-.016.049c0 .046-.016.094-.016.126v.109l.094-.014c.05-.016.096-.016.17-.049l.412-.126a.797.797 0 0 1 .598.062c.158.097.284.24.346.448-.124 0-.44.091-1.164.312a1.31 1.31 0 0 1-.534.063.709.709 0 0 1-.438-.205.846.846 0 0 1-.19-.505v-.095l-1.084.268c-.447.162-1.37.6-1.714 1.122a.511.511 0 0 0-.032.458l.032.079.08-.047c.172-.078.354-.016.486.157l.158.332c-.504.27-.724.332-.772.332l-.202.064-.15-.175c-.276-.3-.606-.98-.196-1.61.376-.55 1.084-.95 1.6-1.203l.082-.03-.048-.08c-.142-.252-.19-.475-.112-.71.174-.507.898-.901 2.5-1.36h.016a16.231 16.231 0 0 1 2.218-.38h.046l.032-.048c.186-.551.438-1.247.53-1.61.098-.149.13-.238.13-.238a.335.335 0 0 1 .314-.237h.094c.706 0 1.432.41 2.058 1.163l.174.07c.298.11.562.237.85.41 1.38.681 2.372 1.912 2.86 3.573.628 2.163.344 4.947-.692 6.921zm-.845-5.578l-.174.427c-.882 2.15-3.054 3.857-4.622 4.68-.534.28-1.052.52-1.572.773-2.124.996-3.426 1.676-3.6 3.049-.046.38-.33.642-.706.776a2.536 2.536 0 0 1 .016-.97l.03-.138-.1.032c-2.132.57-4.742.712-5.968.348-.392-.127-.699-.11-.958.016-.266.16-.472.442-.574.885-.134.38-.834.995-1.894 1.707l-.032.033v.045c0 .222.048.791.158 1.255l.03.089.071-.046c.37-.16.639-.143.833-.097.056 0 .086 0 .12.054h.032l.03-.068c.032-.032.078-.11.156-.27.566-1.152 1.526-1.61 1.572-1.626l.016-.016a.342.342 0 0 1 .394.11c.062.063.344.254.896.079.488-.143 1.194.118 2.122.507.958.394 2.162.884 2.996.71 1.168-.263 1.828-1.042 2.5-2.386v.047l.132-.364c.518-1.233 1.46-2.166 2.844-2.781 2.674-1.217 4.448-2.433 5.014-4.758.094-.442.172-1.042.204-1.643z"/></g></g></g></g></svg>