<svg xmlns="http://www.w3.org/2000/svg" width="100" height="728" viewBox="0 0 100 728"><g><g><path fill="#fff" d="M90 365l-5 5-34-34 .455-.507 31.203 31.198.04.055 1.618-1.632-1.685-1.697-.04-.04-.675.623-.499-.461L85 360zm-71.93 1l.5.463L15 370l-5-5 5-5 34 34-.455.493-31.054-31.049-.053-.039-1.697 1.697 1.548 1.549.042.04zm36.862-31.288l25.892 25.89-.499.499-25.892-25.89zM80 356l-20.501-20.506L60 335l20.542 20.537zm-34.473 39.894L19.648 370l.5-.508L46 395.382zM20.483 374.49L41 395l-.458.544L20 375zm59.842-5.387l.5.512-25.893 25.876-.499-.49zm-.39 4.957l.5.497L59.89 395.1l-.499-.485zm-59.788-13.363l-.499-.498 25.88-25.876.472.485zm.243-5.09l-.5-.5 20.545-20.542.499.499zm31.066 40.813L55 400l-5 5-5-5 34-34 .506.462-31.203 31.196L50 399.382l1.74-1.683-.74-.782zm-2.924-62.851L45 330l5-5 5 5-34 34-.503-.46 31.12-31.131-1.548-1.536-.069-.053-1.602 1.63.602.619zm7.032 25.538c-.012.014-.026.042-.04.067-.39.742-1.67 3.354-1.75 5.402-.04.823.16 1.51.552 1.901.27.27.674.403 1.104.403h.122c1.589-.08 4.635-.93 6.102-2.518 1.346-1.441 1.132-3.361-.485-5.039-.23-.228-.471-.47-.713-.687l-.122-.12c-1.334-1.294-2.6-2.515-2.708-3.866-.041-.297-.324-2.938.85-3.975.47-.416.996-.51 1.524-.283.778.391 1.25 1.55 1.222 2.398a5.227 5.227 0 0 1-.222 1.32l-.1.135.1-.04c.399-.095.695-.27.923-.539.283-.35.35-.888.175-1.387-.098-.176-.098-.278-.228-.445a1.059 1.059 0 0 1-.255-.833c.47.092.874.51 1.063 1.076.241.713.135 1.467-.283 1.98-.78.944-2.035.822-2.088.822l-.403-.054c-.027 0-.056-.028-.068-.054a.087.087 0 0 1 .012-.096l.27-.308s.458-.54.5-1.589c.013-.7-.431-1.59-.916-1.832-.271-.122-.54-.055-.823.189-.81.713-.742 2.72-.646 3.448l.013.014c.081 1.13 1.266 2.262 2.52 3.474.234.255.552.538.835.822 1.845 1.846 2.047 4.216.497 5.886-1.603 1.724-4.782 2.627-6.52 2.707-.054.014-.107.014-.162.014-.62 0-1.133-.202-1.522-.593-.512-.512-.781-1.347-.74-2.356.04-.89.283-1.968.727-3.193l.119-.244-.226.177c-1 .876-2.05 1.414-2.979 1.885l-.053.028c-.297.147-.58.294-.835.443a.685.685 0 0 1-.041-.457.56.56 0 0 1 .336-.405l.31-.16c1.375-.688 3.072-1.564 4.311-3.476.069-.095.122-.148.177-.297l.065-.094c.675-1.32 1.12-3.515.54-5.455-.027-.122-.08-.242-.12-.377l-.069.075h-.068c.204 1.205.056 2.524-.12 3.279-.538 2.236-2.228 3.393-4.649 4.471-2.074.929-2.37 2.614-2.396 3.3-.014.364.497 1.226.982 2.022l.027.053c.095.149.175.282.256.418l.11.202c.145.255.618 1.255.78 3.435.188 2.464.524 3.82 1.899 4.163.687.186 1.441.2 2.046.2.945.028 1.524.069 1.524.62-.013.405-.163 2.155-.807 2.748-.648.58-1 .485-2.145.216h-.011c-.258-.055-.486.014-.688.216-.296.31-.485.86-.458 1.347l.012.053.042.014c.445.08.983.39 1.146.82.04.07.102.095.102.109.06.027.207.027.545-.014l.455-.04c.177-.013.34-.013.487-.027h.08c.755-.041 1.484-.067 1.672-.499.095-.216.268-.726.47-1.32.823-2.478 1.241-3.542 1.671-3.73h.04V375c.013 0 .04-.133-.04-.349-.134-.377-.43-.713-.727-.848-.188-.08-.567-.067-.917-.055-.605.027-1.306.055-1.683-.39-.214-.243-.283-.606-.202-1.063.067-.405.149-.755.202-1.092.216-1.077.363-1.858.283-2.789.161 0 .308.069.432.177.134.12.232.295.232.483 0 .729-.18 1.428-.342 2.25l-.014.055c-.066.323-.12.62-.186 1.023-.054.27-.028.458.066.598.177.169.729.157 1.199.143.432-.028.848-.041 1.174.094.7.297 1.159 1.131 1.103 1.71 0 .31-.107.552-.35.674l-.026.014c-.283.255-.81 1.765-1.336 3.365-.214.621-.375 1.12-.483 1.35-.351.78-1.294.82-2.21.862h-.027a6.08 6.08 0 0 1-.499.025c-.175.014-.336.042-.471.055a5.73 5.73 0 0 1-.472.026c-.31 0-.565-.08-.78-.471l-.027-.053c-.055-.189-.485-.444-.81-.444h-.039c-.135.013-.284-.095-.325-.216v-.014c-.145-.727.056-1.683.58-2.21.35-.349.795-.496 1.275-.376 1.083.255 1.19.269 1.582-.08.418-.352.579-1.644.607-2.17v-.054l-.055-.013c-.134-.04-.552-.053-.835-.053h-.028c-.634-.014-1.427-.028-2.195-.23-1.886-.513-2.169-2.437-2.345-4.715-.028-.22-.054-.538-.081-.793l-.014-.055-.053-.014c-1.131-.053-2.156-.66-3.044-1.777l-.041-.055-.04.027c-.687.377-2.977 1.658-3.692 2.68-.58.85-1.05 2.021-.028 2.897.262.27.823.566 1.322.87 1.01.599 1.644 1 1.737 1.434a.6.6 0 0 1-.081.432c-.067.135-.15.241-.228.389-.351.62-.917 1.657-1.901 1.335-1.332-.432-1.98-.257-2.276-.041-.23.174-.378.452-.43.875v.067l.052.014c.594.16.904.687.984.834 0 .028.012.042.026.042l.057.013c0 .053.322.08 1 .08h.224c.31 0 .593.015.776.028.693.04.881.026 1.11-.282.148-.22.417-.581.728-1.04l.025-.038c1.389-2.062 1.82-2.614 2.137-2.722 0-.014.1-.108.116-.202.014-.095-.016-.217-.216-.35-.096-.067-.324-.134-.554-.188-.605-.175-1.346-.378-1.683-.97-.163-.31-.175-.71-.04-1.106.377-1.17 2.377-1.603 3.609-1.736.015.23.043.43.068.605-.888.108-2.814.445-3.097 1.321-.082.207-.082.458.012.619.188.363.785.588 1.306.674.283.08.479.149.701.257.35.214.54.565.499.94a.85.85 0 0 1-.525.717h-.013c-.257.2-1.065 1.373-1.793 2.463l-.014.027c-.376.51-.619.917-.782 1.104-.43.567-.929.553-1.594.512-.264-.012-.52-.04-.816-.025-1.184.013-1.59-.014-1.82-.46-.067-.133-.364-.552-.794-.552a.305.305 0 0 1-.31-.31v-.026c0-.733.23-1.347.687-1.733.607-.381 1.548-.409 2.829 0 .418.143.728-.234 1.172-1l.052-.069c0-.121.097-.243.164-.35l.027-.04-.027-.028c-.164-.242-.915-.687-1.414-.996-.499-.282-1.05-.62-1.414-.93-1.053-.888-1.079-2.235-.067-3.69.731-1.106 2.909-2.345 3.81-2.83l.069-.067h-.041c-.244-.402-.417-.754-.54-1h.23c.135-.064.269-.09.392-.13.51 1.009 1.587 2.666 3.259 2.868l.096.014-.014-.094c-.163-.796-.338-1.267-.432-1.483-.098-.175-.27-.485-.31-.538-.053-.08-.093-.161-.15-.243-.469-.766-.862-1.394-1.007-1.966l-.041-.122-.083.094c-.507.6-1.035.93-1.736 1.079-.904.174-1.982-.27-2.936-.647-.648-.257-1.202-.47-1.403-.404-.565.175-.97.027-1.158-.08l-.042-.014-.027.027a2.542 2.542 0 0 0-.86.982c-.271.567-.54.657-.918.58-.16-.026-.308-.054-.646.215a.303.303 0 0 1-.242.067.274.274 0 0 1-.202-.147c-.337-.593-.39-1.832-.39-1.966v-.177l.147-.08c.648-.417 1.414-1.01 1.51-1.24.161-.537.396-.902.807-1.117.364-.188.794-.216 1.293-.066.512.16 1.375.2 2.296.12l.198-.014-.094-.106c-.23-.216-.743-.412-.768-.412-.15-.075-.271-.087-.336-.1-1-.095-1.658-.635-2-.9v-.071l-.278.122L39.6 360c-.12-.085-.526-.367-.754-1.567-.122-.619.012-1.433.154-2.101 0-.484.115-.97.087-1.185l-.013-.094-.074.053a.688.688 0 0 1-.585.067c-.498-.173-.702-.619-.809-.888l-.027-.04c-.08-.068-.309-.136-.446-.162h-.053c-.08-.014-.134-.083-.173-.083-.043-.092-.057-.174-.043-.24l.014-.054c.122-.706.687-1.706 1.577-1.524.135.042.283.069.46.096h.011c.81.161 1.819.364 2.074 1.118 0 .216.108.526.204.89.189.807.485 2.032.796 2.478.241.39.389.538.442.606l.014.014h.027c.62.147 1.886.416 2.91.565a4.976 4.976 0 0 0-.7.511c-1.187-.202-2.385-.46-2.424-.46l-.043-.05c-.067-.028-.226-.083-.739-.837-.379-.538-.662-1.777-.876-2.68-.096-.35-.163-.66-.23-.862-.121-.403-.929-.571-1.577-.686a6.848 6.848 0 0 1-.497-.108h-.068c-.297 0-.526.444-.646.727l-.028.067.067.013c.27.108.446.256.513.416h.013c.12.325.216.513.446.595h.053l.014-.013c.329-.257.605-.216.862.106.27.312.175.917.04 1.738-.107.646-.217 1.374-.12 1.887.094.538.227.834.322.996l.04.04.185-.068a.289.289 0 0 1 .354.108c.014 0 .147.202.444.418.365.283.795.432 1.267.485.135.014.809.108 1.375.43.324.15.56.46.673.635l.014.04.053-.013c.634-.108 1.267-.257 1.82-.384v-.075c.606-.925 1.833-1.508 3.125-2.127l.054-.014c.404-.202.821-.404 1.266-.62 1.738-.888 3.624-2.72 3.907-4.472a2.778 2.778 0 0 0-.405-1.954l-.173-.269.04.31c.094.62 0 1.145-.256 1.55l-.013.026v.013c.013.27-.014.54-.067.81-.216.928-1.145 1.763-2.83 2.519-.539.241-1.024.457-1.47.66-2.68 1.17-3.69 1.643-4.067 3.232-.216.067-.432.12-.662.175.244-1.361.796-2.102 2.076-2.828l.04-.028-.012-.054c-.028-.134-.081-.283-.122-.403a2.689 2.689 0 0 1-.161-.58v-.027l-.041-.027c-.648-.31-.984-.982-1.065-1.185l.566-.216c.094.203.445.849 1.064.943.458.08.957-.499 1.361-.956.23-.256.417-.485.62-.607.08-.053.296-.2.782.204.146.147.228.322.215.51a.625.625 0 0 1-.175.43 5.16 5.16 0 0 0-.538-.537l-.059-.028v.041c-.132.095-.252.242-.387.391-.405.458-.943 1.09-1.613 1.193h-.084l.026.06c.058.067.058.134.058.189 0 .094.077.188.105.296l.027.067.067-.028c.499-.255 1.076-.497 1.736-.793.432-.19.931-.405 1.457-.648 1.481-.673 2.316-1.373 2.493-2.143.363-1.56-1.133-2.572-1.47-2.759.109-.162.295-.241.5-.241.085 0 .282 0 .388.12.31.269.595.591.796.88l.149.29-.027-.29c-.026-.423-.221-.908-.419-1.352-.402-.728-.956-1.225-1.494-1.333l-.054-.014-.04.122c-.15.39-.378 1.023-.525 1.453a.32.32 0 0 1-.297.216c-.392.041-1.188.122-2.023.324-1.369.391-1.642.646-1.71.74l-.014.026.014.042c.013.04.055.094.096.149l.053.08 3.125-.754c.067.3-.175.674-.525.754l-1.064.256-.041.013-.014.041c0 .04-.014.08-.014.108V353h.08c.044-.062.083-.062.136-.09l.364-.107c.145-.053.35-.026.512.053a.691.691 0 0 1 .297.351 38.75 38.75 0 0 0-.998.297c-.161.053-.322.067-.458.053a.607.607 0 0 1-.375-.175.707.707 0 0 1-.163-.382v-.129l-.929.228c-.379.136-1.174.513-1.47.957a.434.434 0 0 0-.026.39l.027.067.069-.04a.326.326 0 0 1 .416.135l.136.282c-.432.23-.621.283-.662.283l-.173.055-.124-.15c-.241-.255-.524-.834-.173-1.372.322-.471.93-.809 1.372-1.025l.07-.026-.041-.068a.576.576 0 0 1-.096-.587c.149-.45.77-.786 2.142-1.177h.014c.778-.188 1.47-.282 1.901-.324h.04l.027-.04c.16-.46.375-1.063.485-1.374.053-.085.08-.202.08-.202.04-.121.15-.202.245-.202h.105c.605 0 1.228.319 1.764.984l.131.067c.274.094.517.202.747.35 1.184.58 2.033 1.63 2.451 3.045.538 1.873.295 4.216-.593 5.873zm-38.731 8.083l-2.09-2.087 2.196-2.196L15.052 361H15l-4 4 4 4zm35.405 30.995L50 400.394l-2.195-2.237L46 400l3.947 3.95.053.05 4-4-1.723-1.763zm-4.339-66.246L50 329.823l2.116 2.089L54 330.066V330l-4-3.948V326l-4 4zM85 369l4-4-4-4-1.925 1.88 2.237 2.234-2.115 2.115L84.935 369zm-30.161-14.648l-.15.364c-.755 1.832-2.6 3.284-3.96 3.988-.458.241-.902.444-1.348.66-1.82.848-2.937 1.427-3.086 2.636-.039.286-.295.543-.605.623a3.44 3.44 0 0 1 .014-.848l.026-.096-.107.027c-1.806.485-4.043.607-5.094.294-.336-.105-.607-.091-.821 0-.228.152-.405.394-.511.77-.096.325-.662.849-1.604 1.456l-.028.027v.04c0 .188.041.707.136 1.064l.025.08.069-.039c.31-.135.54-.122.74-.082.014 0 .04 0 .069.013h.027l.026-.025c.027-.028.067-.094.134-.23.485-.982 1.308-1.373 1.347-1.386l.014-.014c.122-.041.257-.014.337.094.054.053.295.232.768.067.419-.122 1.024.165 1.82.432.82.336 1.857.733 2.572.605.996-.202 1.562-.872 2.115-2.033v.04l.136-.31c.444-1.051 1.251-1.846 2.437-2.37 2.292-1.038 3.813-2.075 4.298-4.056.08-.377.147-.888.175-1.4z"/><path fill="none" stroke="#fff" stroke-miterlimit="20" d="M90 365l-5 5-34-34 .455-.507 31.203 31.198.04.055 1.618-1.632-1.685-1.697-.04-.04-.675.623-.499-.461L85 360zm-71.93 1l.5.463L15 370l-5-5 5-5 34 34-.455.493-31.054-31.049-.053-.039-1.697 1.697 1.548 1.549.042.04zm36.862-31.288l25.892 25.89-.499.499-25.892-25.89zM80 356l-20.501-20.506L60 335l20.542 20.537zm-34.473 39.894L19.648 370l.5-.508L46 395.382zM20.483 374.49L41 395l-.458.544L20 375zm59.842-5.387l.5.512-25.893 25.876-.499-.49zm-.39 4.957l.5.497L59.89 395.1l-.499-.485zm-59.788-13.363l-.499-.498 25.88-25.876.472.485zm.243-5.09l-.5-.5 20.545-20.542.499.499zm31.066 40.813L55 400l-5 5-5-5 34-34 .506.462-31.203 31.196L50 399.382l1.74-1.683-.74-.782zm-2.924-62.851L45 330l5-5 5 5-34 34-.503-.46 31.12-31.131-1.548-1.536-.069-.053-1.602 1.63.602.619zm7.032 25.538c-.012.014-.026.042-.04.067-.39.742-1.67 3.354-1.75 5.402-.04.823.16 1.51.552 1.901.27.27.674.403 1.104.403h.122c1.589-.08 4.635-.93 6.102-2.518 1.346-1.441 1.132-3.361-.485-5.039-.23-.228-.471-.47-.713-.687l-.122-.12c-1.334-1.294-2.6-2.515-2.708-3.866-.041-.297-.324-2.938.85-3.975.47-.416.996-.51 1.524-.283.778.391 1.25 1.55 1.222 2.398a5.227 5.227 0 0 1-.222 1.32l-.1.135.1-.04c.399-.095.695-.27.923-.539.283-.35.35-.888.175-1.387-.098-.176-.098-.278-.228-.445a1.059 1.059 0 0 1-.255-.833c.47.092.874.51 1.063 1.076.241.713.135 1.467-.283 1.98-.78.944-2.035.822-2.088.822l-.403-.054c-.027 0-.056-.028-.068-.054a.087.087 0 0 1 .012-.096l.27-.308s.458-.54.5-1.589c.013-.7-.431-1.59-.916-1.832-.271-.122-.54-.055-.823.189-.81.713-.742 2.72-.646 3.448l.013.014c.081 1.13 1.266 2.262 2.52 3.474.234.255.552.538.835.822 1.845 1.846 2.047 4.216.497 5.886-1.603 1.724-4.782 2.627-6.52 2.707-.054.014-.107.014-.162.014-.62 0-1.133-.202-1.522-.593-.512-.512-.781-1.347-.74-2.356.04-.89.283-1.968.727-3.193l.119-.244-.226.177c-1 .876-2.05 1.414-2.979 1.885l-.053.028c-.297.147-.58.294-.835.443a.685.685 0 0 1-.041-.457.56.56 0 0 1 .336-.405l.31-.16c1.375-.688 3.072-1.564 4.311-3.476.069-.095.122-.148.177-.297l.065-.094c.675-1.32 1.12-3.515.54-5.455-.027-.122-.08-.242-.12-.377l-.069.075h-.068c.204 1.205.056 2.524-.12 3.279-.538 2.236-2.228 3.393-4.649 4.471-2.074.929-2.37 2.614-2.396 3.3-.014.364.497 1.226.982 2.022l.027.053c.095.149.175.282.256.418l.11.202c.145.255.618 1.255.78 3.435.188 2.464.524 3.82 1.899 4.163.687.186 1.441.2 2.046.2.945.028 1.524.069 1.524.62-.013.405-.163 2.155-.807 2.748-.648.58-1 .485-2.145.216h-.011c-.258-.055-.486.014-.688.216-.296.31-.485.86-.458 1.347l.012.053.042.014c.445.08.983.39 1.146.82.04.07.102.095.102.109.06.027.207.027.545-.014l.455-.04c.177-.013.34-.013.487-.027h.08c.755-.041 1.484-.067 1.672-.499.095-.216.268-.726.47-1.32.823-2.478 1.241-3.542 1.671-3.73h.04V375c.013 0 .04-.133-.04-.349-.134-.377-.43-.713-.727-.848-.188-.08-.567-.067-.917-.055-.605.027-1.306.055-1.683-.39-.214-.243-.283-.606-.202-1.063.067-.405.149-.755.202-1.092.216-1.077.363-1.858.283-2.789.161 0 .308.069.432.177.134.12.232.295.232.483 0 .729-.18 1.428-.342 2.25l-.014.055c-.066.323-.12.62-.186 1.023-.054.27-.028.458.066.598.177.169.729.157 1.199.143.432-.028.848-.041 1.174.094.7.297 1.159 1.131 1.103 1.71 0 .31-.107.552-.35.674l-.026.014c-.283.255-.81 1.765-1.336 3.365-.214.621-.375 1.12-.483 1.35-.351.78-1.294.82-2.21.862h-.027a6.08 6.08 0 0 1-.499.025c-.175.014-.336.042-.471.055a5.73 5.73 0 0 1-.472.026c-.31 0-.565-.08-.78-.471l-.027-.053c-.055-.189-.485-.444-.81-.444h-.039c-.135.013-.284-.095-.325-.216v-.014c-.145-.727.056-1.683.58-2.21.35-.349.795-.496 1.275-.376 1.083.255 1.19.269 1.582-.08.418-.352.579-1.644.607-2.17v-.054l-.055-.013c-.134-.04-.552-.053-.835-.053h-.028c-.634-.014-1.427-.028-2.195-.23-1.886-.513-2.169-2.437-2.345-4.715-.028-.22-.054-.538-.081-.793l-.014-.055-.053-.014c-1.131-.053-2.156-.66-3.044-1.777l-.041-.055-.04.027c-.687.377-2.977 1.658-3.692 2.68-.58.85-1.05 2.021-.028 2.897.262.27.823.566 1.322.87 1.01.599 1.644 1 1.737 1.434a.6.6 0 0 1-.081.432c-.067.135-.15.241-.228.389-.351.62-.917 1.657-1.901 1.335-1.332-.432-1.98-.257-2.276-.041-.23.174-.378.452-.43.875v.067l.052.014c.594.16.904.687.984.834 0 .028.012.042.026.042l.057.013c0 .053.322.08 1 .08h.224c.31 0 .593.015.776.028.693.04.881.026 1.11-.282.148-.22.417-.581.728-1.04l.025-.038c1.389-2.062 1.82-2.614 2.137-2.722 0-.014.1-.108.116-.202.014-.095-.016-.217-.216-.35-.096-.067-.324-.134-.554-.188-.605-.175-1.346-.378-1.683-.97-.163-.31-.175-.71-.04-1.106.377-1.17 2.377-1.603 3.609-1.736.015.23.043.43.068.605-.888.108-2.814.445-3.097 1.321-.082.207-.082.458.012.619.188.363.785.588 1.306.674.283.08.479.149.701.257.35.214.54.565.499.94a.85.85 0 0 1-.525.717h-.013c-.257.2-1.065 1.373-1.793 2.463l-.014.027c-.376.51-.619.917-.782 1.104-.43.567-.929.553-1.594.512-.264-.012-.52-.04-.816-.025-1.184.013-1.59-.014-1.82-.46-.067-.133-.364-.552-.794-.552a.305.305 0 0 1-.31-.31v-.026c0-.733.23-1.347.687-1.733.607-.381 1.548-.409 2.829 0 .418.143.728-.234 1.172-1l.052-.069c0-.121.097-.243.164-.35l.027-.04-.027-.028c-.164-.242-.915-.687-1.414-.996-.499-.282-1.05-.62-1.414-.93-1.053-.888-1.079-2.235-.067-3.69.731-1.106 2.909-2.345 3.81-2.83l.069-.067h-.041c-.244-.402-.417-.754-.54-1h.23c.135-.064.269-.09.392-.13.51 1.009 1.587 2.666 3.259 2.868l.096.014-.014-.094c-.163-.796-.338-1.267-.432-1.483-.098-.175-.27-.485-.31-.538-.053-.08-.093-.161-.15-.243-.469-.766-.862-1.394-1.007-1.966l-.041-.122-.083.094c-.507.6-1.035.93-1.736 1.079-.904.174-1.982-.27-2.936-.647-.648-.257-1.202-.47-1.403-.404-.565.175-.97.027-1.158-.08l-.042-.014-.027.027a2.542 2.542 0 0 0-.86.982c-.271.567-.54.657-.918.58-.16-.026-.308-.054-.646.215a.303.303 0 0 1-.242.067.274.274 0 0 1-.202-.147c-.337-.593-.39-1.832-.39-1.966v-.177l.147-.08c.648-.417 1.414-1.01 1.51-1.24.161-.537.396-.902.807-1.117.364-.188.794-.216 1.293-.066.512.16 1.375.2 2.296.12l.198-.014-.094-.106c-.23-.216-.743-.412-.768-.412-.15-.075-.271-.087-.336-.1-1-.095-1.658-.635-2-.9v-.071l-.278.122L39.6 360c-.12-.085-.526-.367-.754-1.567-.122-.619.012-1.433.154-2.101 0-.484.115-.97.087-1.185l-.013-.094-.074.053a.688.688 0 0 1-.585.067c-.498-.173-.702-.619-.809-.888l-.027-.04c-.08-.068-.309-.136-.446-.162h-.053c-.08-.014-.134-.083-.173-.083-.043-.092-.057-.174-.043-.24l.014-.054c.122-.706.687-1.706 1.577-1.524.135.042.283.069.46.096h.011c.81.161 1.819.364 2.074 1.118 0 .216.108.526.204.89.189.807.485 2.032.796 2.478.241.39.389.538.442.606l.014.014h.027c.62.147 1.886.416 2.91.565a4.976 4.976 0 0 0-.7.511c-1.187-.202-2.385-.46-2.424-.46l-.043-.05c-.067-.028-.226-.083-.739-.837-.379-.538-.662-1.777-.876-2.68-.096-.35-.163-.66-.23-.862-.121-.403-.929-.571-1.577-.686a6.848 6.848 0 0 1-.497-.108h-.068c-.297 0-.526.444-.646.727l-.028.067.067.013c.27.108.446.256.513.416h.013c.12.325.216.513.446.595h.053l.014-.013c.329-.257.605-.216.862.106.27.312.175.917.04 1.738-.107.646-.217 1.374-.12 1.887.094.538.227.834.322.996l.04.04.185-.068a.289.289 0 0 1 .354.108c.014 0 .147.202.444.418.365.283.795.432 1.267.485.135.014.809.108 1.375.43.324.15.56.46.673.635l.014.04.053-.013c.634-.108 1.267-.257 1.82-.384v-.075c.606-.925 1.833-1.508 3.125-2.127l.054-.014c.404-.202.821-.404 1.266-.62 1.738-.888 3.624-2.72 3.907-4.472a2.778 2.778 0 0 0-.405-1.954l-.173-.269.04.31c.094.62 0 1.145-.256 1.55l-.013.026v.013c.013.27-.014.54-.067.81-.216.928-1.145 1.763-2.83 2.519-.539.241-1.024.457-1.47.66-2.68 1.17-3.69 1.643-4.067 3.232-.216.067-.432.12-.662.175.244-1.361.796-2.102 2.076-2.828l.04-.028-.012-.054c-.028-.134-.081-.283-.122-.403a2.689 2.689 0 0 1-.161-.58v-.027l-.041-.027c-.648-.31-.984-.982-1.065-1.185l.566-.216c.094.203.445.849 1.064.943.458.08.957-.499 1.361-.956.23-.256.417-.485.62-.607.08-.053.296-.2.782.204.146.147.228.322.215.51a.625.625 0 0 1-.175.43 5.16 5.16 0 0 0-.538-.537l-.059-.028v.041c-.132.095-.252.242-.387.391-.405.458-.943 1.09-1.613 1.193h-.084l.026.06c.058.067.058.134.058.189 0 .094.077.188.105.296l.027.067.067-.028c.499-.255 1.076-.497 1.736-.793.432-.19.931-.405 1.457-.648 1.481-.673 2.316-1.373 2.493-2.143.363-1.56-1.133-2.572-1.47-2.759.109-.162.295-.241.5-.241.085 0 .282 0 .388.12.31.269.595.591.796.88l.149.29-.027-.29c-.026-.423-.221-.908-.419-1.352-.402-.728-.956-1.225-1.494-1.333l-.054-.014-.04.122c-.15.39-.378 1.023-.525 1.453a.32.32 0 0 1-.297.216c-.392.041-1.188.122-2.023.324-1.369.391-1.642.646-1.71.74l-.014.026.014.042c.013.04.055.094.096.149l.053.08 3.125-.754c.067.3-.175.674-.525.754l-1.064.256-.041.013-.014.041c0 .04-.014.08-.014.108V353h.08c.044-.062.083-.062.136-.09l.364-.107c.145-.053.35-.026.512.053a.691.691 0 0 1 .297.351 38.75 38.75 0 0 0-.998.297c-.161.053-.322.067-.458.053a.607.607 0 0 1-.375-.175.707.707 0 0 1-.163-.382v-.129l-.929.228c-.379.136-1.174.513-1.47.957a.434.434 0 0 0-.026.39l.027.067.069-.04a.326.326 0 0 1 .416.135l.136.282c-.432.23-.621.283-.662.283l-.173.055-.124-.15c-.241-.255-.524-.834-.173-1.372.322-.471.93-.809 1.372-1.025l.07-.026-.041-.068a.576.576 0 0 1-.096-.587c.149-.45.77-.786 2.142-1.177h.014c.778-.188 1.47-.282 1.901-.324h.04l.027-.04c.16-.46.375-1.063.485-1.374.053-.085.08-.202.08-.202.04-.121.15-.202.245-.202h.105c.605 0 1.228.319 1.764.984l.131.067c.274.094.517.202.747.35 1.184.58 2.033 1.63 2.451 3.045.538 1.873.295 4.216-.593 5.873zm-38.731 8.083l-2.09-2.087 2.196-2.196L15.052 361H15l-4 4 4 4zm35.405 30.995L50 400.394l-2.195-2.237L46 400l3.947 3.95.053.05 4-4-1.723-1.763zm-4.339-66.246L50 329.823l2.116 2.089L54 330.066V330l-4-3.948V326l-4 4zM85 369l4-4-4-4-1.925 1.88 2.237 2.234-2.115 2.115L84.935 369zm-30.161-14.648l-.15.364c-.755 1.832-2.6 3.284-3.96 3.988-.458.241-.902.444-1.348.66-1.82.848-2.937 1.427-3.086 2.636-.039.286-.295.543-.605.623a3.44 3.44 0 0 1 .014-.848l.026-.096-.107.027c-1.806.485-4.043.607-5.094.294-.336-.105-.607-.091-.821 0-.228.152-.405.394-.511.77-.096.325-.662.849-1.604 1.456l-.028.027v.04c0 .188.041.707.136 1.064l.025.08.069-.039c.31-.135.54-.122.74-.082.014 0 .04 0 .069.013h.027l.026-.025c.027-.028.067-.094.134-.23.485-.982 1.308-1.373 1.347-1.386l.014-.014c.122-.041.257-.014.337.094.054.053.295.232.768.067.419-.122 1.024.165 1.82.432.82.336 1.857.733 2.572.605.996-.202 1.562-.872 2.115-2.033v.04l.136-.31c.444-1.051 1.251-1.846 2.437-2.37 2.292-1.038 3.813-2.075 4.298-4.056.08-.377.147-.888.175-1.4z"/></g><g><path fill="#fff" d="M90 205l-40 40-40-40 40-40zm-19.173-17l7.095 16.245h9.187zm-1.585.105c-1.018 2.604-2.89 7.017-5.312 11.068 4.869 1.218 9.515 3.143 11.987 4.249zM74 204.245c-4-1.718-11.33-4.452-17.169-4.661a8.674 8.674 0 0 1 1.859 4.66zm-15.31 1.51c-.147 1.705-.789 3.245-1.777 4.552 5.715-.226 12.777-2.838 16.845-4.552zm3.69-6.942c2.194-3.585 3.953-7.534 5.046-10.229l-9.548 9.548c1.464.113 2.983.355 4.503.681zm3.967-11.285c-2.694 1.092-6.634 2.848-10.213 5.039.326 1.517.568 3.033.68 4.493zM55.774 191c4.119-2.446 8.61-4.34 11.226-5.344L51.519 179c1.104 2.485 3.034 7.144 4.255 12zm-5.019-14l16.053 6.943-16.053-16.052zm0 19.31c1.731.15 3.315.807 4.61 1.821-.202-5.769-2.887-12.984-4.61-17.061zM33.677 183.46L49.245 177v-9.11zm-1.018 2.054c2.508.96 7.244 2.92 11.568 5.487 1.225-4.884 3.17-9.564 4.271-12zm16.586-4.447c-1.722 4.072-4.405 11.281-4.608 17.064a8.673 8.673 0 0 1 4.608-1.82zm-7.934 23.179a8.678 8.678 0 0 1 1.863-4.668c-5.877.207-13.174 2.95-17.174 4.668zm1.772 6.056c-.986-1.301-1.625-2.844-1.772-4.546H26.244c4.058 1.713 11.101 4.32 16.84 4.546zm.784-17.735c-3.582-2.19-7.524-3.948-10.217-5.04l9.536 9.536c.113-1.461.355-2.978.68-4.496zm-11.288-3.975c1.091 2.691 2.846 6.632 5.037 10.213 1.517-.324 3.034-.566 4.498-.678zm3.487 10.572c-2.549-4.263-4.484-8.921-5.458-11.453L24 203.432c2.503-1.105 7.167-3.046 12.066-4.269zm-23.175 5.082h9.179l6.576-15.756zm15.519 17.029l-6.298-15.52H12.89zm2.1 1.158c.94-2.432 2.924-7.303 5.558-11.71-4.918-1.226-9.596-3.176-12.068-4.28zm7.108-11.352c-2.189 3.58-3.946 7.521-5.038 10.214l9.538-9.537c-1.466-.112-2.984-.352-4.5-.677zm-3.974 11.285c2.694-1.09 6.636-2.847 10.219-5.04-.325-1.516-.566-3.035-.678-4.5zm10.577-3.49c-4.33 2.59-9.07 4.547-11.574 5.506l15.85 6.529c-1.105-2.455-3.05-7.127-4.276-12.035zm5.024 13.977l-15.742-6.485 15.742 15.742zm0-19.163a8.672 8.672 0 0 1-4.603-1.815c.232 5.794 2.893 12.924 4.603 16.959zM42.783 205A7.2 7.2 0 0 0 50 212.217c3.754 0 6.845-2.881 7.184-6.548v-1.339c-.34-3.666-3.43-6.547-7.184-6.547A7.2 7.2 0 0 0 42.783 205zm14.032 7.827c-.112 1.461-.354 2.979-.68 4.496 3.582 2.19 7.523 3.948 10.217 5.04zm-1.455-.953a8.677 8.677 0 0 1-4.605 1.815v15.136c1.71-4.046 4.37-11.188 4.605-16.951zm11.402 14.228l-16.007 6.746v9.261zm.386-1.8c-2.554-.987-7.148-2.912-11.373-5.43-1.223 4.89-3.16 9.556-4.263 12.018zm.274-3.004c-1.09-2.692-2.847-6.635-5.039-10.217-1.517.326-3.035.568-4.497.68zm-3.49-10.576c2.471 4.131 4.367 8.635 5.368 11.215l6.632-15.471c-2.466 1.105-7.12 3.035-12 4.256zm23.177-4.967h-9.23L71 221.908z"/></g><g><path fill="#fff" d="M53.55 490.885l-1.604-1.576 1.609-1.59L90 523.71l-1.601 1.579-34.844-34.41zm-7.195 70.486L10 525.287l1.604-1.576 34.756 34.495 2.04-2.015-12.84-12.68L12.756 521l36.447-36 1.599 1.578L16 521l1.91 1.919 19.032-18.795 1.604 1.576-16.28 16.08-2.755 2.72 17.627 17.407h1.754v-2.1H36.27v-2.11h-.045V513.4l.672-.296a32.492 32.492 0 0 1 10.278-2.608l-4.872-4.81-3.469-3.427-.034-.034 11.263-11.122 5.12 5.033 6.166 6.09-.106.106L55 508.462v.003l-2 2.03c3.509.306 7 1.174 10.254 2.608l.67.296v24.173H64v2.234h-2.932v2.101h1.797L80.492 524.5 61.49 505.734l1.604-1.579 19.8 19.553.799.792 3.554 3.5L50.8 564l-1.599-1.581L84 528l-1.91-1.919-2.844 2.807L64 544v.142h-.198zm-7.867-23.8H61.66v-10.296H38.488zm0-12.571h3.35v-9h-3.35zm5.612 0h11.951v-9h-11.95zm5.976-12.396c-2.787-.002-5.57.396-8.252 1.116h16.503c-2.68-.72-5.465-1.118-8.251-1.116zm-.076-2.47v.019c0 .005.063.008.076.008a.1.1 0 0 0 .066-.026L58 502.33l-5.244-5.22L50 494.39l-8 7.868zM58.314 525h3.347v-9h-3.347zm-6.027 4.17c.63.42 1.13 1.014 1.43 1.717.2.467.283.982.283 1.518 0 .805-.22 1.595-.649 2.185a3.935 3.935 0 0 1-1.736 1.41c-.476.202-.997.31-1.54.31a3.948 3.948 0 0 1-2.21-.667 3.895 3.895 0 0 1-1.743-3.238c0-.805.25-1.56.674-2.182a3.965 3.965 0 0 1 1.742-1.414 3.986 3.986 0 0 1 3.75.36zM50 554.61l10.603-10.468H39.4l7.846 7.748zm-8.842-12.703h17.648v-2.1H41.158zm10.476-8.851a1.605 1.605 0 0 1-.634.734c-.25.21-.57.285-.925.285-.235 0-.455-.075-.656-.13a1.689 1.689 0 0 1-.746-.607 1.633 1.633 0 0 1-.289-.933c0-.233.048-.405.132-.648.13-.298.344-.554.614-.757.273-.16.59-.262.945-.265.236.003.455.047.66.133.265.132.56.337.743.607.182.266.288.582.288.93 0 .235-.048.452-.132.65"/></g><g><g><path fill="#fff" d="M50 0h1v88h-1z"/></g><g><path fill="#fff" d="M50 640h1v88h-1z"/></g></g></g></svg>