<svg xmlns="http://www.w3.org/2000/svg" width="160" height="133" viewBox="0 0 160 133"><g><g><g><g><path fill="#fff" d="M77.517 47.73a1.46 1.46 0 0 1 .036-.034 2.23 2.23 0 0 0-.006.06l-.044.022.013-.049zm.036-.034c.088-.732.527-1.386 1.181-1.696.347 1.028-.637 1.215-1.18 1.696zm-2.016 2.67a5.693 5.693 0 0 0-.037.02l.013-.04a4.22 4.22 0 0 0 .031-.018 3.737 3.737 0 0 0-.007.038zm-2.673 3.27a6.11 6.11 0 0 0-.035.02l.009-.04.038-.021a5.65 5.65 0 0 0-.012.04zm-.035.02a3.46 3.46 0 0 1-2.34 2.545 5.866 5.866 0 0 1 2.34-2.546zm2.715-3.328a3.663 3.663 0 0 1 1.959-2.55 4.252 4.252 0 0 1-1.959 2.55zm-2.668 3.267a5.568 5.568 0 0 1 2.624-3.209 5.709 5.709 0 0 1-2.624 3.209zM63.7 65.615v-.001zm0 0a17.694 17.694 0 0 1-6.86 6.897 60.432 60.432 0 0 0-12.75 9.428c-3.6 3.61-6.959 7.38-8.16 12.488a4.879 4.879 0 0 1-2.184 2.782 71.303 71.303 0 0 1-15.486 8.948 16.516 16.516 0 0 1-9.166.791c-3.907-.685-6.252-3.104-7.24-6.826A14.76 14.76 0 0 1 1.68 93 45.316 45.316 0 0 1 5 83.08a84.904 84.904 0 0 1 18.43-25.024A119.351 119.351 0 0 1 59.271 34c5.394-2.34 11.062-4.16 17.012-4.436 5.565-.26 6.717 1.359 4.855 6.436-2.259 6.28-6.226 11.494-10.71 16.41-2.96 3.244-5.709 6.672-8.55 10.018a8.644 8.644 0 0 0-.591.791c-.435.64-.95 1.333-.501 2.098.544.926 1.36.33 2.086.184.28.001.558.04.827.114zm-9.346 42.961a23.514 23.514 0 0 1-12.665-3.463c-2.311-1.405-3.29-3.45-3.874-5.831a3.943 3.943 0 0 1 1.306-3.855 168.241 168.241 0 0 1 4.238-4.173 190.479 190.479 0 0 0 15.173-16.062 22.073 22.073 0 0 1 9.545-6.36C75.625 66 83.339 64 91.547 65.448c1.75.33 3.453 1.033 4.86 2.062a5.021 5.021 0 0 1 2.056 2.878c.702 2.403.211 3.21-2.332 3.435C90 74.363 84 75.562 78 76.607c-2.899.393-5.606 1.602-7.774 3.541C67.796 82.477 67.54 85 70 87.276 71.695 88.836 73.101 91 76 91c1 0 1.268.917.515 1.64-1.263 1.22-2.643 2.36-3.996 3.458a3111.429 3111.429 0 0 1-12.464 10.364c-2.696 2.203-2.736 2.16-5.7 2.11zm28.386-5.354a46.525 46.525 0 0 1 4.358-6.608c4.583-6.291 9.287-12.498 13.82-18.825 1.082-1.729 2.973-2.706 4.98-2.51a56.66 56.66 0 0 1 11.864 1.631c1.518.354 2.959.98 4.238 1.849 2.683 1.916 2.784 3.989.342 6.241-2.342 2.114-4.956 4-7.724 5.63a129.08 129.08 0 0 1-29.885 12.81 1.907 1.907 0 0 1-1.993-.217zM95.884 38h-.003zm-.003 0A19.307 19.307 0 0 1 93 44.24c-2.749 4.067-5.667 8.055-7.66 12.59a10.1 10.1 0 0 0-1.066 2.727 1.699 1.699 0 0 0 .504 1.79c.785.539 1.482.071 2.115-.347.352-.314.688-.601 1.005-.908 4.915-4.569 10.241-8.726 14.503-13.95a7.461 7.461 0 0 1 2.783-2.295C102.278 48 99.61 52 96.853 55.833a42.796 42.796 0 0 0-3.596 5.494c-.574 1.132-1.343 2.072-2.77 2.004C82 63 73.513 64.517 65.632 67.72 66.725 62.376 89.416 38.936 95.88 38zm-45.66 92.498c-1.893.053-2.686-.639-2.583-2.498.01-1.565.284-3.078.81-4.513a40.857 40.857 0 0 1 6.978-10.676 7.699 7.699 0 0 1 5.174-2.661c4.4-.54 8.868-.812 13.19-1.95.527-.14 1.21-.298 1.575.172.564.628.027 1.226-.365 1.709-5.35 6.285-10.603 12.65-17.425 17.502a15.433 15.433 0 0 1-7.356 2.913zm44.504-54.565c.935.13 1.767-.186 2.03.651a1.543 1.543 0 0 1-.823 1.652C93.74 79.8 92.078 82.186 89 82.355c-1 .056-1.747.934-2.477 1.645a701.784 701.784 0 0 0-4.848 4.42c-1.3 1.193-2.614 1.915-4.444.826-.92-.548-2.115-.62-3.127-1.051-1.903-.808-3.661-1.991-3.7-4.195-.048-2.292 1.922-3.216 3.77-4.055.098-.046.208-.075.31-.11 6.667-2.222 13.685-2.657 20.238-3.905zM61.319 107.38c2.566-2.722 5.406-4.463 7.9-6.597 2.924-2.505 6.001-4.851 8.781-7.461 2.724-2.466 5.85-1.668 8.885-1.56.873.029.883.913.485 1.526-2.37 3.84-4.975 7.49-7.89 10.913a3.803 3.803 0 0 1-1.705.96 70.432 70.432 0 0 1-15.07 2.65 5.797 5.797 0 0 1-1.387-.431zm51.049-49.595h-.005v-.003zm-.005 0c.241.753-.266 1.215-.62 1.761a1453.69 1453.69 0 0 1-7.877 10.939c-.45.624-.949 1.21-1.492 1.754-.84.841-1.765.76-1.901-.434a8.618 8.618 0 0 0-4.69-6.73c-1.19-.693-.683-1.393.017-2.076 1.42-1.383 2.753-2.863 4.275-4.124 5.034-4.161 9.084-9.233 13.565-13.876a10.606 10.606 0 0 1 4.258-2.78c-.898 1.167-1.721 2.351-2.62 3.496a120.93 120.93 0 0 0-7.154 10.62 5.952 5.952 0 0 0-.344.559c-.498.956-1.371 2.105-.176 2.908 1.1.785 2.043-.205 2.925-.875.568-.428.88-1.282 1.834-1.143zm4.879-1.573c.002-1.117.45-2.213 1.247-2.971a130.027 130.027 0 0 1 9.21-11.163c1.993-2.079 3.187-4.906 4.978-7.267 6.323-8.32 13.448-15.93 20.613-23.527.303-.285.624-.622.962-.905.748-.639 1.748-1.577 2.593-.788 1.032.934-.33 1.721-.845 2.408-5 7-10.376 13.62-16.131 20-6.468 7.139-12.783 14.46-19.611 21.323-.982.986-2.01 1.927-3.015 2.89zm-21.444 25.26C94 84.116 92.166 86.8 90.246 89.389c-1.082 1.453-4.95 2.1-6.76 1.275-.81-.37-.767-.983-.249-1.574a11.95 11.95 0 0 1 3.47-2.993c3.021-1.498 6.025-3 9.09-4.624zm-41.28 29.342C51.223 110.36 48 110.12 45 108.93c-6-2.355-7.436-3.824-9.551-9.931-1.237-.067-1.964.86-2.83 1.48a62.278 62.278 0 0 1-13.784 7.27 18.259 18.259 0 0 1-11.144.704c-3.96-.953-6.231-3.454-7.107-7.361-1.519-6.866.066-13.271 3.117-19.31C9.747 69.808 18.328 59.757 28.713 51.09 37.576 43.686 47 37.238 57.703 32.595c6.215-2.709 12.623-4.94 19.548-5.194.749-.041 1.56-.02 2.335.061 1.342.063 2.593.701 3.414 1.75a4.8 4.8 0 0 1 1 3.73c-.365 2.479-1.347 4.806-2.226 7.462 1.17-.171 2.226-.872 2.776-1.898 3.94-4.883 8.658-9.067 12.919-13.675 5.241-5.655 9.982-11.697 15.09-17.45a50.576 50.576 0 0 1 5.512-5.218A9.572 9.572 0 0 1 120.078 1a.887.887 0 0 1 1.16.343c.134.294.14.657.017.93-.255.493-.538.949-.906 1.351-2.783 2.967-5.552 5.951-8.349 8.863A561.289 561.289 0 0 0 87.655 39c-.713.813-1.31 1.73-1.974 2.626 1.181.464 1.53-.539 2.063-1.028C90 38.591 92.494 37 95.236 35.753c.764-.357 1.668-.924 2.494-.24.906.753.67 1.813.27 2.73a37 37 0 0 1-2.436 5.349c-2.079 3.61-4.768 6.852-6.564 10.617-.377.791-.726 1.553-1.2 2.591 1.83.123 2.58-1.06 3.453-1.907C96 50.278 100.669 45.61 105.408 41a61.513 61.513 0 0 1 4.481-3.905c.634-.503 1.522-1.3 2.325-.38.617.705-.064 1.437-.552 2.015C107.178 44 103.655 50 99.543 55.51c-.543.489-.804 1.276-.677 2.02a44.162 44.162 0 0 0 7.28-7.06 133.12 133.12 0 0 1 10.275-10.27 24.822 24.822 0 0 1 3.513-2.491c.696-.445 1.509-1.382 2.335-.565.825.855-.269 1.56-.62 2.286-1.569 3.403-3.897 6.333-6.106 9.34a20.354 20.354 0 0 0-3.707 6.774c2.908-3.094 5.787-6.223 8.735-9.281C128.68 37.85 135 28 143 19.487c3.716-4.025 7.41-8.094 12-11.228a5.044 5.044 0 0 1 2.086-1.021c1.771-.238 2.85.93 2.23 2.545a12.403 12.403 0 0 1-1.646 2.828c-4.566 6.178-9.548 12.032-14.606 17.824C137.934 36.31 133 42.321 127.593 48c-4.438 4.676-8.593 9.709-14.224 13.211a7.457 7.457 0 0 0-1.782 1.92c-1.86 2.449-3.704 4.869-5.505 7.398-1.618 2.235-1.522 2.471 1.38 2.853 1.316.195 2.652.275 3.98.421 4.37.477 8.558 1.512 12.137 4.197 3.127 2.282 3.421 5 .667 7.605-3.07 2.868-6.48 5.395-10.152 7.395a137.015 137.015 0 0 1-30.326 12.711 14.933 14.933 0 0 0-7.426 5.21 174.509 174.509 0 0 1-12.559 13.975A36.222 36.222 0 0 1 55.157 131a10.435 10.435 0 0 1-5.489 1.144c-3.362-.195-4.668-2.144-3.827-5.328 1.373-5.312 4.51-9.667 7.724-13.997.322-.437.644-.875.952-1.323.05-.072.007-.205.007-.681m-15.171-18.92c5.227-4.53 10.444-9.11 14.573-14.703-6.253 3.561-11.43 8.14-14.573 14.703"/></g></g><g><g><path fill="#fff" d="M80.182 87.222c.276-.072.46.036.388.266-.053.155-.272.285-.448.36-.26.152-.451-.013-.375-.256.05-.153.253-.25.435-.37"/></g></g></g></g></svg>