<svg xmlns="http://www.w3.org/2000/svg" width="160" height="151"><path fill="#fff" d="M2.057 72.701h.326c.3 0 .437.094.617.385L4.252 75h1.645L4.38 72.658c-.326-.513-.514-.658-.634-.658.111-.103.254-.214.626-.66L5.838 69H4.2L3 70.913c-.188.282-.326.385-.625.385h-.318V69H.6v6h1.457zM9 75h1.454v-1.948L12.52 69h-1.654l-1.14 2.247L8.594 69H6.94L9 73.052zm8-4.592V69h-2.94v1.408h.728v3.242h-.728V75H17v-1.35h-.754v-3.242zm4.43 1.959L20.17 69h-1.62L21 75h.876l2.425-6h-1.62zm118.012-2.019c.506 0 .96.172 1.32.496l.942-.844a2.994 2.994 0 00-2.262-1c-1.689 0-3.052 1.348-3.052 3 0 1.718 1.363 3.087 3.052 3.087.891 0 1.697-.385 2.262-.991l-.942-.873c-.36.325-.814.487-1.32.487-.891 0-1.595-.65-1.595-1.71 0-1 .704-1.652 1.595-1.652m7.112.06V69h-2.914v1.408h.728v3.242h-.728V75h2.914v-1.35h-.728v-3.242zM151.441 75v-4.591H153V69h-4.55v1.409H150V75zm4.956 0h1.457v-1.948L159.92 69h-1.654l-1.14 2.247L156 69h-1.66l2.057 4.052zm-30.172.35l-46.062 45.97L34.1 75.35l46.063-45.97zm-22.08-19.581l8.171 18.712h10.58zm-1.825.165C101.148 58.926 99 64 96.204 68.653c5.606 1.4 10.957 3.612 13.796 4.883zm5.487 18.547c-4.659-1.973-13.054-5.115-19.807-5.356a9.735 9.735 0 012.169 5.356zm-17.638 1.736a9.862 9.862 0 01-2.046 5.231c6.582-.26 14.714-3.261 19.398-5.23zm4.25-7.977c2.526-4.12 4.581-8.659 5.81-11.756L89.234 67.457c1.686.13 3.436.408 5.185.783zM99 55.27c-3.116 1.255-7.652 3.272-11.774 5.791.375 1.744.654 3.486.774 5.164zm-12.189 4.011c4.743-2.832 9.914-5.008 12.893-6.162l-17.792-7.63c1.27 2.837 3.493 8.19 4.9 13.792zM81 43.222l18.518 7.928L81 32.702zm0 22.142c2 .172 3.85.926 5.34 2.092-.232-6.63-3.34-14.922-5.34-19.608zm-19.634-14.77l17.927-7.381v-10.51zM60.193 53c2.888 1.059 8.342 3.31 13.32 6.28 1.413-5.633 3.65-11.01 4.92-13.835zm19.1-5.156C77.31 52.524 74.22 60.81 74 67.454a9.912 9.912 0 015.293-2.09zm-9.137 26.637a9.964 9.964 0 012.146-5.363c-6.768.237-15.164 3.389-19.808 5.363zm2.041 6.96c-1.135-1.441-1.872-3.267-2.04-5.224H52.805c4.673 1.97 12.783 4.965 19.391 5.225zm.902-20.38c-4.099-2.519-8.663-4.538-11.765-5.793l10.982 10.96c.13-1.68.408-3.424.783-5.168zm-12.998-4.57c1.256 3.093 3.278 7.622 5.8 11.738 1.747-.373 3.495-.65 5.18-.78zm4.016 12.15C61.182 63.743 59 58.39 57.832 55.48l-7.558 18.068c2.83-1.27 8.202-3.547 13.843-4.905zm-26.688 5.84H48l7.572-18.106zM55.3 94.051L48 76.218H37.429zm2.418 1.332C58.8 92.55 61.086 87 64.119 81.926c-5.664-1.409-11.05-3.65-13.873-4.926zm8.185-13.046c-2.52 4.114-4.543 8.663-5.8 11.739l10.982-10.96c-1.687-.116-3.435-.406-5.182-.779zm-4.575 12.97C64.429 94.052 69 92 73.095 89.514c-.374-1.744-.652-3.515-.781-5.172zm12.18-4.012c-4.986 2.976-10.445 5.226-13.329 6.328l18.251 7.503c-1.271-2.821-3.511-8.19-4.922-13.83zm5.785 16.063l-18.128-7.453L79.293 118zm0-22.023A9.945 9.945 0 0174 83.25c.259 6.658 3.323 14.853 5.293 19.49zm-7.442-9.985c0 4.573 3.729 8.294 8.312 8.294 4.322 0 7.837-3.311 8.272-7.525V74.58c-.435-4.214-3.95-7.525-8.272-7.525-4.583 0-8.312 3.72-8.312 8.295zM88 84.345c-.12 1.655-.398 3.423-.773 5.167C91.352 92 95.891 94 99 95.303zm-1.666-1.095A10.074 10.074 0 0181 85.335v17.395c2-4.649 5.065-12.857 5.334-19.48zm13.13 16.352L81 107.354V118zm.445-2.07c-2.909-1.134-8.244-3.346-13.096-6.24-1.409 5.62-3.639 10.981-4.909 13.812zm.316-3.452C99 91 96.946 86.455 94.422 82.34c-1.747.374-3.495.661-5.179.782zm-4.018-12.154c2.844 4.747 5.028 9.924 6.18 12.888L110 77c-2.815 1.304-8.175 3.523-13.793 4.926zm26.689-5.709h-10.628l-7.974 18.565zm13.494 5.058h23.442V79.54H136.39zm-135.81.02H24V79.56H.58zM21.466 45.05l-1.63-.735L18 48.418l-2-.888 1.727-3.79-1.63-.74-1.718 3.794-1.917-.865 1.86-4.103-1.63-.736-2.642 5.829 8.774 3.96zm2.214-3.935l-7.92-5.47 1.902-2.744c1.542-2.223 4.45-2.901 6.747-1.284 2.308 1.593 2.714 4.53 1.172 6.754zm-.391-2.575l.822-1.185c.954-1.355.824-3.07-.783-4.18-1.595-1.101-3.24-.635-4.195.742l-.822 1.186zM35.947 26.4l-1.266-1.26-3.189 3.188L30 26.804l2.91-2.945-1.267-1.26-2.946 2.944-1.49-1.483 3.189-3.19-1.266-1.26-4.53 4.529 6.817 6.792zm8.58-6.517l-1.043-1.45L40 21l-4.609-6.4-1.541 1.105 5.616 7.805zM51 16.324l-.272-6.235 4.506 4.317 1.03-.46-.405-10.356-1.921.862L54.33 11l-4.672-4.631-1.017.455.359 6.554-4.639-4.636-1.921.86 7.497 7.177zm19.331-6.087L70 8.489l-4.447.897-.43-2.112 4.084-.83-.356-1.748-4.085.829-.42-2.059 4.422-.897-.357-1.75-6.281 1.277L64 11.513zm5.346-8.315L76 8h-1.202l.082 1.794 4.206-.192L79 7.82l-1.15.053-.277-6.036 1.155-.053L78.646 0 74.44.192 74.522 2zM88 8.406l-.069-.009c-1.42-.163-2.326-.957-2.682-1.606l-1.359.992c.634 1.108 1.925 2.217 3.838 2.387l.082.009c2.12.228 3.847-.707 4.056-2.52.226-1.978-1.139-2.868-3.053-3.32l-.756-.17C87.208 4 86.492 3.687 86.566 3c.096-.787 1.147-.9 1.776-.83l.11.012c.696.08 1.706.569 2.351 1.223l1.36-.99C91.286 1.373 90 .563 88.655.41l-.11-.013c-1.984-.2-3.668.714-3.873 2.501-.192 1.678 1.132 2.561 2.939 2.989l.742.168c.97.235 1.723.555 1.647 1.387-.104.724-.878 1.077-2 .964m11.124 4.121l.08.024c2.045.599 3.91-.018 4.436-1.766.573-1.907-.64-3.02-2.417-3.785l-.713-.319c-.799-.354-1.454-.751-1.269-1.37.241-.8 1.297-.728 1.902-.546l.106.03c.672.205 1.58.86 2.098 1.618l1.514-.736c-.68-1.178-1.794-2.2-3.098-2.59l-.105-.032c-1.918-.546-3.736.056-4.254 1.778-.486 1.616.661 2.72 2.363 3.46l.7.295c.913.412 1.596.85 1.355 1.652-.21.697-1.034.909-2.105.603l-.079-.024c-1.37-.411-2.12-1.353-2.354-2.053l-1.514.736c.428 1.203 1.51 2.498 3.354 3.025m17.982 3.753l3.105 2.06L118 21.62l1.606 1.049 5.331-8.003-1.58-1.048-2.157 3.235-3.103-2.06 2.155-3.235-1.581-1.05-5.331 8.003 1.58 1.05zM123 25.31l9.541-4.09.795.78-3.954 9.587-1.502-1.47.741-1.735L126.197 26l-1.725.78zm4.93-.124l1.482 1.45L130.515 24zM134 37.832c1.165 1.653 3.362 2.415 5.638.824l4.575-3.197-1.088-1.552-4.542 3.173c-1.476 1.03-2.583.548-3.113-.272-.576-.808-.667-1.98.81-3.013l4.54-3.172-1.088-1.553-4.576 3.198c-2.275 1.59-2.318 3.9-1.156 5.564m9.704 8.388l.236.722c.295.953.404 1.763-.361 2.058-.665.35-1.366-.135-1.838-1.143l-.033-.074c-.59-1.303-.37-2.486.007-3.123l-1.55-.66c-.63 1.115-.88 2.765-.088 4.518l.034.074c.889 1.934 2.58 2.936 4.25 2.184 1.818-.776 1.883-2.445 1.292-4.318l-.242-.735c-.256-.834-.411-1.59.203-1.855.765-.345 1.386.498 1.663 1.074l.046.058c.288.68.386 1.796.153 2.686l1.524.657c.472-1.286.513-2.796 0-4.036l-.092-.1c-.846-1.803-2.494-2.778-4.138-2.038-1.542.695-1.624 2.284-1.066 4.051M16.6 108.763l1.624-.763-1.787-3.782 1.912-.9 1.935 4.09 1.625-.765-2.75-5.813L10.41 105l2.75 5.765 1.624-.765-1.935-4.093 1.963-.907zm9.4 4.308l-1.947-2.731-7.883 5.599 1.947 2.73c1.58 2.214 4.498 2.833 6.795 1.202 2.286-1.623 2.667-4.586 1.088-6.8m-2.194 5.249c-1.599 1.136-3.247.68-4.224-.69l-.842-1.18 4.955-3.52.841 1.18c.978 1.372.858 3.082-.73 4.21m8.074 4.583l3.232 3.17 1.26-1.278-4.592-4.505-6.78 6.884 4.592 4.505 1.259-1.278-3.232-3.172 1.52-1.543 2.986 2.929 1.26-1.28-2.987-2.927zm7.881 4.627l-5.591 7.879L39.279 139l1.039-1.443L36.765 135l4.553-6.37zm13.679 14.796l.336-6.588-1.023-.454-4.682 4.656.375-6.57-1.933-.86-.363 10.413 1.023.455L51.7 139l-.22 6.292 1.035.46 7.484-7.24-1.916-.86zM62 148.72l6.35 1.28.36-1.752-4.442-.904.433-2.122 4.103.835.359-1.758-4.103-.834.422-2.068 4.442.903.359-1.757L64 139.26zm12.563-5.948l1.16.057-.296 6.063-1.16-.057-.087 1.791 4.226.206.086-1.832h-1.16l.297-6.08 1.16.08.087-1.814L74.65 141zm13.573 1.73h-.779c-.877-.016-1.64-.128-1.71-.773-.09-.837.916-1.18 1.549-1.249l.11-.012c.694-.075 1.799.182 2.576.682L91 141.879c-1.094-.828-2.526-1.34-3.887-1.194l-.113.012c-2 .241-3.436 1.507-3.243 3.303.182 1.688 1.677 2.264 3.542 2.286h.765c1.003.018 1.812.167 1.936 1.004 0 .71-.638 1.244-1.75 1.377l-.082.01c-1.43.153-2.493-.428-2.984-.985L84.069 149c.867.911 2.367 1.666 4.292 1.46l.081-.01c2.13-.242 3.617-1.539 3.42-3.363-.213-1.99-1.749-2.56-3.726-2.585M100 142.07l-.723.135c-.867.136-1.638.157-1.82-.465-.233-.809.696-1.322 1.307-1.498l.106-.031c.678-.211 1.804-.134 2.656.223l.876-1.434c-1.218-.636-2.717-.892-4.032-.511l-.106.03c-1.918.584-3.123 2.081-2.619 3.817.473 1.664 2.045 1.937 3.885 1.664l.754-.162c.99-.157 1.813-.15 2.047.658.204.702-.331 1.33-1.448 1.654l-.08.023c-1.38.399-2.529.013-3.11-.45l-.875 1.445c1.018.832 2.627 1.265 4.486.727l.08-.023c2.053-.608 3.291-2.144 2.78-3.872-.558-2-2.164-2.25-4.164-1.93m17.264-12.36l2.117 3.29-3.15 2-2.118-3.266-1.603 1.03 5.238 8.12 1.604-1.03-2.148-3.33 3.15-2.024 2.148 3.33 1.604-1.03-5.238-8.12zm8.529-6.97l9.502 4.321-1.536 1.451-1.759-.809-2.44 2.297.715 1.802-1.536 1.45-3.739-9.744zm1.953 2.903l1.053 2.635 1.515-1.432zm12.41-11.364L135.628 111l-1.127 1.507L139 115.79c1.458 1.067 1.34 2.209.745 3.042-.596.813-1.672 1.275-3.132.167l-4.496-3.243-1.117 1.536 4.52 3.309c2.253 1.645 4.48.939 5.675-.71 1.2-1.636 1.215-3.967-1.039-5.613m7.171-11.055c-1.806-.868-3.102.132-4.166 1.777l-.41.679c-.478.735-.976 1.321-1.561 1.041-.76-.366-.522-1.4-.246-1.971l.056-.1c.298-.649 1.096-1.43 1.93-1.824l-.493-1.615c-1.28.488-2.437 1.43-3.065 2.661l-.047.129c-.845 1.785-.532 3.681 1.1 4.465 1.575.737 2.809-.227 3.812-1.797l.404-.668c.545-.82 1.098-1.427 1.858-1.062.66.317.74 1.167.267 2.18l-.035.075c-.624 1.293-1.68 1.888-2.413 2.01l.494 1.615c1.264-.234 2.698-1.107 3.538-2.818l.035-.104c.917-1.896.615-3.896-1.058-4.673"/></svg>