<svg xmlns="http://www.w3.org/2000/svg" width="158" height="196"><defs><clipPath id="a"><path d="M143.28 164.68h14.328v17.047H143.28z"/></clipPath><clipPath id="b"><path d="M23.72.54h64.432v72.981H23.72z"/></clipPath></defs><path fill="#fefefe" d="M5.62 172.57c1.09 0 2.13-.071 2.38-.145.438-.096.771-.307 1.13-.733.259-.359.544-1.023.544-1.474 0-.167.07-.218.188-.218l.637.077c.119.022.218.045.192.189-.073.403-.073 1.637-.073 2.467 0 1.07.099 2.208.144 2.708.022.14-.07.166-.19.189l-.572.121c-.09.023-.138-.025-.182-.192-.1-.381-.336-.926-.477-1.208-.263-.452-.832-.763-1.341-.833-.602-.096-1.338-.144-2.38-.144v1.426c0 1.282.118 3.585.118 4.012 0 1.188.262 1.663.57 1.804.354.144.802.215 1.99.215.403 0 1.398-.026 1.897-.071.47-.048 1.184-.285 1.805-.76.614-.522 1.942-2 2.413-2.563.096-.096.166-.122.237-.074l.403.238c.096.047.118.118.096.189l-1.066 3.585a.518.518 0 01-.525.356c-.118 0-.64-.023-2.153-.045-1.543 0-4.055-.026-8.157-.026-.88 0-1.542.026-2.016.026-.496.022-.806.045-1.018.045-.214 0-.214-.07-.214-.26V181c0-.17.07-.24.237-.24h.71c1.053 0 1.184-.17 1.184-1v-7.95c0-1.97-.045-4.893-.067-5.126-.064-.763-.336-.927-.973-.927H.166c-.096 0-.166-.073-.166-.24v-.567c0-.074.07-.17.214-.17.522 0 1.348.074 3.508.074l8.278-.026c.422 0 .874-.048 1-.048.11 0 .155.048.18.122.097.33.88 3.582.974 3.82.048.118.048.17-.07.278l-.385.15c-.093.049-.21.023-.278-.095-.122-.19-2.256-2.327-2.803-2.66-.496-.308-1.162-.615-1.799-.638l-3.133-.096zm15.489-1.808c0-.615-.109-3.986-.109-4.342-.083-.57-.394-.666-.794-.666H19c-.1 0-.17-.023-.17-.163v-.69c0-.095.07-.121.17-.121.304 0 1.347.074 3.722.074.614 0 2.985-.074 3.53-.074 3.225 0 5.748.285 8.038 2.16 1.564 1.307 2.656 3.278 2.656 6.06 0 2.7-.784 4.504-2.35 6.215-2.297 2.493-6.354 2.516-7.849 2.516-.377 0-3.174-.07-4.477-.07-2.064 0-3.01.07-3.344.07-.118 0-.166-.048-.166-.212v-.622c0-.092.07-.14.24-.14h1.184c.448 0 .71-.19.758-.57.058-.498.167-5.839.167-7.643zm3.555 2.304c0 .308.022 4.342.048 5.816 0 .474.093.856.403 1.305.282.429 1.088.57 1.885.57 1.386 0 3.21-.686 4.442-2.327.95-1.256 1.686-3.204 1.686-5.43 0-1.93-.806-3.923-1.92-5.157-1.208-1.4-3.344-2.16-4.72-2.16-.662 0-1.018.023-1.328.19-.355.127-.448.547-.474 1.022-.022.997-.022 4.105-.022 4.486zm21.926-.496c1.09 0 2.13-.071 2.41-.145.412-.096.741-.307 1.1-.733.259-.359.544-1.023.544-1.474 0-.167.07-.218.188-.218l.64.077c.116.022.215.045.19.189-.074.403-.074 1.637-.074 2.467 0 1.07.099 2.208.144 2.708.025.14-.07.166-.19.189l-.542.121c-.12.023-.168-.025-.212-.192-.1-.381-.336-.926-.477-1.208-.26-.452-.832-.763-1.311-.833-.632-.096-1.368-.144-2.41-.144v1.426c0 1.282.118 3.585.118 4.012 0 1.188.292 1.663.57 1.804.354.144.806.215 1.99.215.403 0 1.398-.026 1.897-.071.474-.048 1.184-.285 1.835-.76.584-.522 1.912-2 2.383-2.563.096-.096.17-.122.237-.074l.38.238c.122.047.141.118.122.189l-1.069 3.585c-.053.211-.24.356-.525.356-.118 0-.64-.023-2.153-.045-1.543 0-4.055-.026-8.157-.026-.88 0-1.542.026-2.016.026-.496.022-.806.045-1.018.045-.184 0-.184-.07-.184-.26V181c0-.17 0-.24.207-.24h.71c1.083 0 1.184-.17 1.184-1v-7.95c0-1.97-.045-4.893-.101-5.126-.062-.763-.299-.927-.939-.927h-.925c-.136 0-.136-.073-.136-.24v-.567c0-.074 0-.17.184-.17.522 0 1.348.074 3.508.074l8.308-.026c.392 0 .844-.048 1-.048.08 0 .125.048.15.122.097.33.85 3.582.974 3.82.048.118.048.17-.07.278l-.382.15c-.096.049-.214.023-.281-.095-.122-.19-2.256-2.327-2.803-2.66-.496-.308-1.159-.615-1.799-.638l-3.133-.096zm18.849 1.66c0 .403 0 5.53.07 6.478h1.35c1.141 0 2.141 0 3.463-.118 1.28-.115 2.893-2.964 3.248-3.842.07-.144.14-.215.285-.144l.47.189c.074.048.074.074.051.207-.07.174-1.017 4.09-1.161 4.731-.618-.045-7.443-.07-9.626-.07-2.349 0-3.2.07-3.51.07-.167 0-.189-.045-.189-.212v-.596c0-.118.022-.163.166-.163h.736c.874 0 1.018-.333 1.018-.593 0-.455.074-6.364.074-7.812V171c0-1.494-.048-4-.074-4.39-.045-.61-.166-.856-.71-.856h-.877c-.144 0-.167-.118-.167-.237v-.567c0-.122.023-.17.167-.17.259 0 1.113.074 3.27.074 2.775 0 3.77-.074 3.984-.074.189 0 .211.074.211.22v.565c0 .119-.048.189-.233.189h-1.117c-.733 0-.829.246-.829.878 0 .31-.07 3.896-.07 5.556zm14.81-3.468c0-.615-.074-3.986-.119-4.342-.073-.57-.384-.666-.784-.666H78.16c-.159 0-.159-.023-.159-.163v-.69c0-.095 0-.121.137-.121.307 0 1.35.074 3.725.074.614 0 2.985-.074 3.53-.074 3.225 0 5.785.285 8.038 2.16 1.57 1.307 2.652 3.278 2.652 6.06 0 2.7-.78 4.504-2.345 6.215-2.298 2.493-6.355 2.516-7.85 2.516-.377 0-3.174-.07-4.477-.07-2.064 0-3.01.07-3.344.07-.118 0-.166-.048-.166-.212v-.622c0-.092.1-.14.189-.14h1.235c.448 0 .676-.19.758-.57.07-.498.167-5.839.167-7.643zm3.555 2.304c0 .308.022 4.342.048 5.816 0 .474.093.856.403 1.305.282.429 1.088.57 1.895.57 1.376 0 3.2-.686 4.432-2.327.95-1.256 1.686-3.204 1.686-5.43 0-1.93-.806-3.923-1.92-5.157-1.258-1.4-3.348-2.16-4.72-2.16-.628 0-1.018.023-1.328.19-.355.127-.448.547-.474 1.022-.022.997-.022 4.105-.022 4.486zm20.501 7.401c-1.683-1.023-3.485-3.586-3.485-7.053 0-1.414.378-3.701 2.18-5.909 2.111-2.505 4.79-3.015 6.924-3.015 1.965 0 3.789.308 5.78 1.875 1.804 1.426 3.296 3.822 3.296 7.097 0 1.734-.59 3.538-1.825 5.2-1.539 1.923-3.555 3.338-7.302 3.338-1.635 0-3.696-.37-5.568-1.533m10.928-6.813c0-5.2-3.411-8.049-5.405-8.049-.474 0-1.66-.119-3.107 1.282-1.399 1.33-2.109 3.822-2.109 5.768 0 6.078 3.488 8.238 5.453 8.238 4.384 0 5.168-5.294 5.168-7.239m9.767-6.711c0-.785-.341-1.19-.674-1.19h-.95c-.119 0-.141-.07-.141-.162v-.644c0-.119.022-.167.14-.167.215 0 .951.074 3.537.074 1.324 0 3.41-.074 4.384-.074 1.85 0 3.225.666 4.195 1.567.854.785 1.35 1.711 1.35 2.589 0 3.064-2.253 4.367-4.336 4.557v.17c.733.233 1.11.688 1.565 1.255.307.378 1.61 2.493 1.798 2.779.132.211 1.424 2.015 1.898 2.563.285.307 1.234.5 1.731.5.167 0 .189.093.189.189v.57c0 .141-.022.212-.189.212-.189 0-.806-.07-2.63-.07-.691 0-1.565.047-2.253.07-.714-.545-2.182-3.3-2.614-4.105-.778-1.626-1.748-3.374-2.887-3.374h-.806v1.211c0 1.404.073 4.06.118 4.368.048.5.237.929.575.929h1c.156 0 .179.07.179.189v.57c0 .167-.023.212-.378.212-.025 0-.614-.07-3.107-.07-2.512 0-3.056.07-3.318.07-.186 0-.186-.07-.186-.237v-.545c0-.118 0-.19.115-.19H124c.537 0 1-.17 1-.759v-13.057zm3.33 6.479c.454.026.735.026.95.026 3.126 0 3.865-2.993 3.865-4.108 0-1.093-.38-2.137-.899-2.66-.858-.76-1.923-1.044-2.637-1.044-.4 0-.71.048-.899.214-.144.096-.211.356-.26.641z"/><g clip-path="url(#a)"><path fill="#fefefe" d="M149 173.274c1 0 1.938-.07 2.386-.141.403-.048.854-.36 1.235-.856.259-.333.379-.83.521-1.277.023-.1.096-.17.19-.17l.546.047c.122 0 .122.07.122.123v2.748c0 .856 0 1.997.09 2.47 0 .12-.09.167-.167.19l-.521.118c-.093.023-.164-.048-.186-.189-.051-.192-.31-.903-.454-1.14-.282-.401-.762-.83-1.159-.949-.761-.144-1.603-.166-2.603-.166V175c0 .696.066 4.683.066 5 0 .63.236.753.57.753H151c.174 0 .245.048.245.14v.642c0 .144-.045.192-.189.192-.237 0-1.184-.074-3.651-.074-2.323 0-3.226.074-3.581.074-.093 0-.14-.048-.14-.215v-.64c0-.097.07-.119.166-.119h.832c.496 0 .688-.096.707-.475.025-.474.096-3.466.096-7.549v-1.663c0-1.066-.048-4.39-.048-4.63 0-.436-.33-.686-.973-.686h-.97c-.14 0-.214-.048-.214-.144v-.689c0-.093.074-.14.166-.14.26 0 1.162.07 4.055.07.33 0 6.566-.07 7.705-.07.522 0 1.044-.097 1.232-.097.119 0 .19.144.237.404L157.6 169c.022.05 0 .121-.074.144l-.473.26c-.119.05-.167 0-.333-.238-.304-.4-.877-1.166-1.846-2.166-.43-.49-1.07-.942-1.636-1.083-.595-.167-3.107-.24-4.172-.24 0 .323-.066 5.033-.066 6.482z"/></g><path fill="#fefefe" d="M17.819 195.139c.236-.074.236-.26.252-.625.01-.301.01-1.115.01-1.814 0-.788-.01-1.7-.02-1.845-.061-.205-.061-.295-.207-.35-.106-.041-.279-.057-.448-.073-.026-.016-.016-.116 0-.122.259 0 .681.023.934.023h3.37c.29 0 .713-.023.851-.023.01.032.016.09 0 .112-.15.036-.275.048-.355.083-.206.055-.206.122-.206.43-.053.237-.073.952-.073 1.878 0 .708-.006 1.708.073 1.951 0 .236 0 .317.164.375.1.042.211.058.448.08.007.02.007.1-.019.122-.163 0-.518-.023-.883-.023-.371 0-.71.016-.915.023-.02-.007-.02-.112 0-.122.144-.013.361-.048.476-.096.122-.058.138-.18.148-.375.016-.253.006-1.666.006-2.016 0-.375.01-2-.016-2.124-.01-.032-.051-.054-.058-.054-.096-.02-2.588-.01-2.72 0-.016 0-.032.041-.032.048-.016.121-.016 1.772-.016 2.147 0 .333.007 1.56.016 1.887.007.276.026.445.218.503.115.032.183.048.432.08 0 .035.006.11-.016.122-.384-.007-.566-.023-.877-.023-.356 0-.761.016-.95.023a.264.264 0 010-.122 2.41 2.41 0 00.413-.08m7.066-4.829c.179 0 .413.025.86.025h1.569c.3 0 .686-.009.819-.025.01 0 .022.016.022.025-.07.267-.155.763-.155 1.032 0 .016-.094.023-.117.01a2.79 2.79 0 00-.067-.48c-.058-.196-.112-.328-.464-.343-.211-.007-1.11-.016-1.242 0-.057.009-.11.073-.11.115v1.977c.242.013 1.1.006 1.34-.01.258-.016.303-.147.345-.269.035-.09.06-.195.08-.301.025-.066.131-.01.14.01a5.214 5.214 0 00-.057.72c0 .353.02.53.02.65-.026.036-.122.043-.142.01-.016-.121-.022-.185-.048-.275-.025-.1-.057-.269-.332-.285A16.892 16.892 0 0026 192.89v1.893c0 .217.146.276.226.292.163.032.454.048 1.03.048.496 0 .592-.123.744-.208.075-.11.264-.417.392-.734.02-.007.09.032.106.057-.042.26-.244.863-.333 1.016-.048.08-.074.09-.487.09-.406 0-.678-.026-1.926-.026-.54 0-.752.026-1.046.026-.02-.016-.023-.096 0-.122.204-.016.368-.025.512-.064.195-.051.262-.158.281-.474.01-.122.02-1.08.02-2.038 0-.808-.01-1.59-.02-1.71-.016-.325-.045-.398-.25-.447a3.433 3.433 0 00-.374-.064c-.025-.019-.016-.099.01-.115M32 193.075V193c.12 0 .206.069.395.069.268 0 .432-.069.605-.138.402-.237.502-.638.502-1.093 0-.74-.346-1.349-1.408-1.349-.094 0-.27.01-.323.032-.026.01-.052.042-.058.106-.01.196-.026.805-.026 1.913 0 .529-.022 1.46 0 2.096.01.448.084.48.313.529.135.025.282.041.395.057.035.016.025.115.01.122-.202 0-.676-.023-.967-.023-.359 0-.797.023-.935.023-.025-.016-.032-.106-.01-.122a2.75 2.75 0 00.382-.057c.125-.049.262-.033.284-.494.016-.247.035-.671.035-1.897 0-.497.007-1.592-.01-1.774-.015-.325-.047-.453-.252-.501a2.72 2.72 0 00-.403-.067c-.01-.026.006-.112.022-.122.138 0 .503.025.877.025.39 0 .656-.015 1.104-.015.285 0 .746.064 1.04.298.253.205.428.522.48 1.035.01.756-.413 1.204-.845 1.416a1.64 1.64 0 01-.771.17c-.122 0-.269-.01-.358-.042-.078-.032-.078-.106-.078-.122m4-2.765c.105 0 .428.025.886.025.438 0 .614-.019.835-.025.02.025.02.096 0 .122a2.4 2.4 0 00-.349.067c-.16.048-.217.112-.227.346-.01.155-.016 1.548-.016 1.865 0 1.666-.01 2.13.026 2.29.016 0 .064.059.08.065.09.02 1.616.026 1.765.02 0-.01.062-.085.072-.085.022-.332.022-1.601.022-2.3 0-.788 0-1.7-.01-1.861-.012-.202-.084-.254-.17-.311-.102-.048-.21-.064-.422-.096-.016-.032-.016-.097 0-.122.116 0 .285.025.861.025.439 0 .647-.019.835-.025.02.032.01.096-.006.122-.096.01-.275.032-.355.057-.163.049-.205.138-.211.372-.016.139-.026 1.532-.026 1.849 0 1.666.01 2.057.026 2.29 0 0 .028.065.09.065.294.02 1.66.036 1.782 0 .025-.006.041-.065.05-.065.026-.185.017-.633.017-2.152 0-.385-.01-1.935-.016-2.067-.01-.122-.064-.227-.189-.27-.106-.037-.243-.053-.35-.08a.066.066 0 010-.12c.116 0 .465.024.84.024.323 0 .72-.025.85-.025.017.016.017.096 0 .122-.153.032-.297.048-.39.08-.166.057-.208.147-.217.488-.01.194-.026.887-.026 1.816 0 1.371 0 1.698.016 1.983.02.201.061.285.211.34.11.042.292.067.448.083.016.026.016.096-.016.122-.323 0-.521-.026-.822-.026h-4.992c-.31 0-.771.016-.96.026-.016-.01-.016-.106 0-.122.173-.025.326-.048.422-.083.237-.074.228-.212.244-.577.01-.301.019-1.163.019-1.862 0-.788-.01-1.7-.02-1.846-.015-.204-.047-.269-.169-.326-.106-.048-.314-.07-.438-.087-.074-.016-.064-.115 0-.13m9.58 4.175c.495-1.17 1.225-3.259 1.42-3.75 0-.162.08-.297.096-.406.01 0 .077.01.189.01.121 0 .176-.01.185-.01a3.4 3.4 0 00.1.359c.147.407 1.084 3.368 1.33 3.967.212.48.244.506.788.57.016.026.01.106-.016.122a37.964 37.964 0 00-.854-.022c-.192 0-.73.006-.9.022-.01-.016-.016-.102 0-.122.164-.022.292-.041.407-.08.128-.058.128-.146.096-.228-.09-.349-.421-1.22-.554-1.669 0 0-.045-.039-.054-.039-.083-.009-.253-.009-.759-.009-.54 0-.582 0-.665.01-.023 0-.055.032-.064.058-.163.422-.493 1.316-.528 1.55-.023.181-.032.28.203.343.13.023.203.042.376.064.013.02.01.106-.01.122-.144 0-.57-.022-.924-.022-.442 0-.644.022-.765.022-.023-.007-.023-.102 0-.122.57-.074.65-.138.902-.74M47.122 191a87.93 87.93 0 00-.656 1.884c0 .032.006.051.032.057.07.059.275.059.713.059.18 0 .496 0 .535-.059.01 0 .025-.025.016-.057a56.74 56.74 0 00-.608-1.884h-.032m7.539 3.486c.496-1.17 1.235-3.253 1.405-3.723.058-.164.1-.327.115-.433.01 0 .074.01.186.01.121 0 .179-.01.189-.01.016.074.044.228.096.384.147.436 1.088 3.343 1.348 3.942.194.48.226.506.77.57.02.026 0 .115-.016.122a37.682 37.682 0 00-.851-.022c-.195 0-.74.006-.903.022v-.122c.154-.022.285-.041.397-.08.131-.058.131-.146.1-.228-.154-.547-.957-2.986-1.268-3.918h-.032c-.197.657-1.12 3.137-1.293 3.633-.121.367-.041.471.205.53.096.022.131.031.343.063.016.016.006.106-.01.122-.147 0-.56-.022-.918-.022-.397 0-.64.022-.762.022-.016-.007-.016-.116 0-.122.566-.074.65-.138.9-.74m6.078-4.176c.148 0 .57.025.942.025.318 0 .585-.025.78-.025.016.025.026.096.007.122-.122.016-.26.032-.33.048-.139.048-.214.17-.23.423a83.454 83.454 0 00-.006 3.8c.015.297.04.388.243.445.115.033.262.058.412.074.026.026.01.106-.01.122-.166 0-.46-.026-.815-.026-.397 0-.56.026-.983.026-.025-.026-.019-.106 0-.122.112-.01.25-.035.362-.057.205-.042.237-.165.253-.35.016-.195.025-1.602.025-2.278 0-.609 0-1.243-.016-1.618-.025-.196-.019-.365-.201-.414a3.833 3.833 0 00-.442-.073c-.022-.016-.006-.106.01-.122m3.979 0c.28 0 .68.025.934.025.438 0 .614-.019.835-.025.016.025.016.106-.007.122a2.24 2.24 0 00-.336.057c-.146.049-.227.087-.233.356-.02.327-.02.878-.02 1.727 0 .032.02.055.036.064.016.01.128.016 1.51.016.803 0 1.274 0 1.347-.006.016 0 .032-.035.032-.042 0-.426 0-1.604-.016-1.813-.01-.154-.048-.244-.16-.286a2.385 2.385 0 00-.416-.073c-.025-.026-.025-.097 0-.122.157 0 .496.025.868.025.336 0 .732-.025.906-.025v.122c-.19.026-.32.042-.41.073-.17.058-.234.113-.244.495-.01.194-.025.887-.025 1.816 0 .705.01 1.714.025 1.957.016.227.058.311.212.366.105.042.21.058.442.083v.122c-.337 0-.532-.026-.906-.026-.372 0-.71.016-.91.026-.025-.032-.015-.096 0-.122.138-.016.254-.025.407-.064.173-.051.211-.158.218-.407.01-.205.01-1.278.01-1.751 0-.063-.017-.088-.033-.088-.115-.007-.934-.007-1.363-.007-.57 0-1.423 0-1.494.007-.016 0-.035.088-.035.088 0 .376.01 1.514.019 1.636.022.279.006.439.205.496.112.033.176.055.444.09.016.026 0 .112-.025.122-.253-.01-.537-.026-.867-.026-.31 0-.765.016-.95.026-.026-.026-.026-.096 0-.122.169-.025.28-.048.412-.083.237-.074.237-.26.253-.625.006-.301.006-1.115.006-1.814 0-.788-.006-1.7-.016-1.846-.016-.243-.086-.316-.208-.349-.167-.031-.246-.041-.448-.073-.025-.026-.019-.097 0-.122m7.451 0c.147 0 .57.025.944.025.339 0 .585-.025.777-.025.016.025.026.096.01.122-.122.016-.26.032-.333.048-.179.048-.21.17-.23.423a55.505 55.505 0 00-.023 1.865c0 .762.007 1.666.016 1.935.016.297.042.388.244.445.115.033.262.058.425.074v.122c-.189 0-.48-.026-.838-.026-.397 0-.56.026-.983.026-.025-.026-.016-.106 0-.122.113-.01.27-.035.365-.057.205-.042.234-.165.25-.35.02-.195.025-1.602.025-2.278 0-.609 0-1.243-.016-1.618-.025-.196-.016-.365-.201-.414a3.878 3.878 0 00-.439-.073c-.025-.016-.01-.106.007-.122m8.008.18c-.178.031-.285.105-.294.31a97.341 97.341 0 00-.023 2.08c0 .433.02 1.596.023 1.813.01.307.116.423.278.472.09.025.253.041.368.057.016.007.007.115-.01.122-.121 0-.579-.023-.905-.023-.34 0-.746.023-.842.023-.006-.016-.016-.106 0-.122.227-.022.227-.041.375-.064.147-.051.201-.158.217-.465.016-.3.01-1.21.01-1.693h-.323c-.279 0-.448.207-.563.354-.372.478-.884 1.26-1.194 1.593-.147.17-.295.243-.371.291-.24.106-.66.148-.924.132v-.116c.338-.032.396 0 .802-.439.371-.407 1.198-1.656 1.523-1.815.01 0 .02 0 0 0-.64-.2-1.158-.655-1.158-1.373 0-.73.534-1.307 1.642-1.307.281 0 .704.015.953.015.238 0 .544-.025.743-.025.016.01.025.109 0 .122a7.14 7.14 0 00-.327.057m-1.43 0c-.592 0-1.037.365-1.037 1.058 0 1.18.989 1.291 1.626 1.269.012 0 .038-.026.038-.042 0-.535 0-1.852-.026-2.13 0-.033-.032-.081-.08-.097a1.784 1.784 0 00-.521-.058m7.154 4.65c.233-.074.233-.26.25-.625.009-.301.009-1.115.009-1.814 0-.788-.01-1.7-.016-1.845-.02-.205-.058-.295-.211-.35-.106-.041-.275-.057-.448-.073-.026-.016-.016-.116 0-.122.259 0 .681.023.934.023h3.37c.323 0 .713-.023.851-.023.01.032.016.09 0 .112-.15.036-.272.048-.355.083-.18.055-.286.122-.286.43v3.829c.052.236.084.317.244.375.1.042.211.058.448.08.007.02.007.1-.016.122-.163 0-.521-.023-.886-.023-.371 0-.723.016-.915.023-.016-.007-.016-.112 0-.122.125-.013.364-.048.476-.096.122-.058.138-.18.148-.375.016-.253.006-1.666.006-2.016 0-.375.01-2-.016-2.124-.006-.032-.048-.054-.054-.054-.1-.02-2.592-.01-2.72 0-.02 0-.036.041-.036.048-.016.121-.016 1.772-.016 2.147 0 .333.01 1.56.016 1.887.01.276.026.445.221.503.1.032.195.048.429.08 0 .035.01.11-.016.122-.38-.007-.566-.023-.877-.023-.31 0-.761.016-.95.023a.261.261 0 010-.122 2.48 2.48 0 00.416-.08M93 190.31c.143 0 .38.025.824.025h1.568c.301 0 .701-.009.823-.025.006 0 .02.016.02.025-.071.267-.122.763-.142 1.032-.019.016-.093.023-.093.01-.054-.23-.08-.377-.105-.48-.058-.196-.112-.328-.464-.343-.211-.007-1.11-.016-1.238 0-.061.009-.087.073-.087.115-.013.331-.02 1.836-.013 1.91 0 .032.007.067.023.067.205.013 1.065.006 1.302-.01.26-.016.307-.147.349-.269.032-.09.057-.195.08-.301.022-.066.153-.01.153.01 0 .128-.07.461-.07.72 0 .353.016.53.016.65-.025.036-.122.043-.138.01-.019-.121-.025-.185-.05-.275-.026-.1-.058-.269-.333-.285a15.843 15.843 0 00-1.3-.006c-.019 0-.032.054-.032.11-.006.091 0 1.303.013 1.783.01.217.118.276.198.292.164.032.455.048 1.031.048.496 0 .595-.123.665-.208.154-.11.343-.417.474-.734.016-.007.087.032.106.057-.042.26-.247.863-.336 1.016-.048.08-.07.09-.487.09-.406 0-.656-.026-1.926-.026-.541 0-.736.026-1.046.026-.016-.016-.023-.096 0-.122.215-.016.367-.025.511-.064.196-.051.263-.158.285-.474.007-.122.016-1.08.016-2.038 0-.808-.01-1.59-.016-1.71-.019-.325-.048-.398-.253-.447a2.827 2.827 0 00-.328-.064c-.068-.019-.062-.099 0-.115m5.5 0c.148 0 .413.025.855.025.371 0 .645-.025.746-.025.016.016.016.096 0 .122-.39.067-.439.131-.458.291-.013.164-.006.718 0 1.02.026.973.707 1.053 1.194 1.053.304 0 .675-.064.944-.201a.116.116 0 00.016-.042c0-.553.01-1.429-.016-1.74-.013-.218-.064-.275-.26-.333a2.906 2.906 0 00-.316-.048c-.016-.016-.016-.106 0-.122.236 0 .48.025.86.025.496 0 .708-.025.861-.025.074.016.074.106.01.122a4.186 4.186 0 00-.368.073c-.176.049-.237.113-.243.398-.01.375-.026 1.253-.026 1.865 0 0 .01 1.74.026 2.057.016.175.057.282.275.34.099.022.22.041.4.057v.122c-.253 0-.455-.026-.861-.026-.512 0-.698.026-.966.026-.016-.01-.016-.122 0-.122.112-.01.243-.025.355-.048.23-.051.253-.174.259-.628.01-.423.01-1.307.01-1.778 0-.01-.016-.042-.026-.036-.371.205-.842.35-1.264.35-.507 0-.893-.082-1.178-.462-.121-.163-.204-.416-.204-.903 0 0-.01-.61-.01-.804 0-.238-.045-.375-.282-.433a2.737 2.737 0 00-.342-.048c-.016-.032-.016-.09.01-.122m6.753 0c.182 0 .416.025.864.025h1.564c.318 0 .701-.009.823-.025.006 0 .022.016.022.025-.073.267-.121.763-.144 1.032-.016.016-.108.023-.13.01a2.804 2.804 0 00-.068-.48c-.058-.196-.112-.328-.464-.343-.208-.007-1.11-.016-1.238 0-.058.009-.084.073-.084.115a58.38 58.38 0 00-.013 1.91c0 .032.004.067.02.067.204.013 1.065.006 1.302-.01.292-.016.292-.147.349-.269.032-.09.057-.195.08-.301.025-.066.131-.01.138.01a5.302 5.302 0 00-.055.72c0 .353.016.53.016.65-.026.036-.121.043-.137.01-.016-.121-.026-.185-.099-.275 0-.1 0-.269-.282-.285a15.923 15.923 0 00-1.303-.006c-.016 0-.029.054-.029.11-.009.091 0 1.303.013 1.783.007.217.116.276.195.292.164.032.458.048 1.03.048.497 0 .596-.123.702-.208.121-.11.307-.417.438-.734.016-.007.09.032.106.057-.042.26-.244.863-.336 1.016-.045.08-.07.09-.534.09-.36 0-.609-.026-1.88-.026-.54 0-.735.026-1.046.026-.016-.016-.022-.096 0-.122.205-.016.369-.025.513-.064.195-.051.262-.158.284-.474.007-.122.016-1.08.016-2.038 0-.808-.01-1.59-.016-1.71-.016-.325-.048-.398-.252-.447a2.268 2.268 0 00-.372-.064c-.025-.019-.016-.099.007-.115m7.121 2.765c0-.006.016-.075.026-.075.086 0 .176.069.365.069.234 0 .429-.069.601-.138.407-.237.503-.638.503-1.093 0-.74-.343-1.349-1.405-1.349-.09 0-.269.01-.323.032-.026.01-.051.042-.061.106-.006.196-.022.805-.022 1.913 0 .529-.059 1.46 0 2.096.006.448.083.48.332.529.116.025.26.041.375.057.032.016.025.115.006.122-.201 0-.672-.023-.966-.023-.355 0-.806.023-.935.023-.025-.016-.028-.106-.006-.122.135-.016.285-.032.38-.057.17-.049.263-.033.286-.494.016-.247.032-.671.032-1.897 0-.497.01-1.592-.007-1.774-.019-.325-.048-.453-.253-.501a2.77 2.77 0 00-.406-.067c-.01-.026.01-.112.026-.122.137 0 .502.025.873.025.39 0 .66-.015 1.107-.015.285 0 .746.064 1.04.298.25.205.47.522.48 1.035a1.503 1.503 0 01-.844 1.416 1.79 1.79 0 01-.772.17 1.26 1.26 0 01-.361-.042.386.386 0 01-.07-.122m7.918-2.51c-.294-.131-.586-.186-1.03-.186-1.264 0-2.039.91-2.039 2.333 0 1.56.893 2.521 2.314 2.521.237 0 .65-.025.973-.333.22-.211.342-.407.488-.73.065-.01.158.029.158.064-.158.42-.442.99-.611 1.064a4.08 4.08 0 01-1.162.17c-1.731 0-2.755-.975-2.755-2.682 0-.885.37-1.786 1.27-2.215.43-.234.957-.381 1.658-.381.63 0 1.117.131 1.442.163 0 .237-.098.83-.108 1.147-.012.023-.14.049-.14.017-.084-.677-.205-.83-.458-.952m3.404 4.57c.163-.038.18-.135.205-.429.016-.26.026-.82.026-1.926 0-1.253 0-1.692-.02-1.97-.016-.218-.083-.286-.204-.314-.144-.042-.324-.058-.397-.068-.016-.016-.007-.106.01-.121.249.006.518.025.844.025.34 0 .64-.032.838-.032v.122a6.19 6.19 0 00-.351.054c-.176.048-.212.138-.218.433-.01.34-.02.846-.02 1.55 0 .02.026.036.026.036.34-.026.644-.036.877-.036 1.088 0 1.536.645 1.536 1.327 0 .66-.371 1.214-1.03 1.433-.237.09-.474.137-1.024.137-.365 0-1.11-.016-1.6-.016-.016-.01-.026-.105 0-.121.179-.026.326-.042.502-.084M126.29 194c0-.887-.464-1.335-1.472-1.335-.265 0-.281.006-.371.016-.016 0-.035.042-.035.057 0 .504 0 1.757.019 2.064.006.074.022.147.08.198.18.129.489.161.656.161.833 0 1.123-.555 1.123-1.161m2.71 1.182c.348-.057.364-.182.376-.609.01-.374.016-1.573.016-1.919 0-.333 0-1.432-.016-1.765-.006-.212-.022-.35-.249-.398a3.147 3.147 0 00-.374-.057c-.026-.026-.017-.116.01-.122.162 0 .534.025.889.025.348 0 .646-.032.79-.025.032.006.042.115 0 .122-.154.025-.18.025-.281.047-.247.049-.256.18-.263.465-.006.318-.006 1.243-.006 1.708 0 .016.006.032.029.032.527 0 .716-.154.844-.343.163-.234.235-.343.416-.714.535-1.1.819-1.44 1.341-1.44.042 0 .17.042.227.09.016.007.048.075.048.09 0 .132-.057.372-.112.446-.025.032-.067.048-.076.041-.087-.057-.292-.163-.413-.163-.196 0-.381.147-.66.692-.345.683-.598 1.128-.841 1.292-.01.009-.016.025-.01.035.122.064.221.16.365.349.359.487.71.939 1.091 1.43.567.707.71.717 1.29.733.032 0 .016.122-.01.122-.192.032-.835-.01-.95-.026a.741.741 0 01-.471-.218c-.265-.269-.787-1.025-1.347-1.781-.233-.321-.406-.488-.748-.488-.007 0-.023.017-.023.033 0 .406.01 1.544.016 1.893.007.241.048.343.269.4.096.023.17.04.349.065.032.026.025.106 0 .122-.122 0-.618-.026-.925-.026-.294 0-.591.016-.855.026-.031 0-.031-.116-.016-.122zm7.1-.696c.493-1.17 1.222-3.259 1.405-3.75a2.28 2.28 0 00.112-.406c.006 0 .073.01.189.01.121 0 .194-.01.194-.01 0 .074 0 .205.09.359.144.407 1.085 3.368 1.332 3.967.208.48.243.506.787.57.016.026.006.106-.016.122a16.295 16.295 0 00-1.757 0c-.006-.016-.016-.102 0-.122a2.14 2.14 0 00.406-.08c.158-.058.158-.146.096-.228-.086-.349-.396-1.22-.55-1.669 0 0-.048-.039-.054-.039-.084-.009-.253-.009-.759-.009-.575 0-.575 0-.665.01-.023 0-.055.032-.064.058-.164.422-.496 1.316-.528 1.55-.026.181-.032.28.233.343.1.023.173.042.346.064.013.02.006.106-.01.122-.147 0-.57-.022-.887-.022-.438 0-.684.022-.806.022-.019-.007-.019-.102 0-.122.57-.074.65-.138.906-.74m1.542-3.486c-.13.313-.537 1.528-.642 1.884v.057c.089.059.294.059.729.059.179 0 .499 0 .537-.059.007 0 .026-.025.016-.057-.192-.618-.486-1.56-.608-1.884h-.032m15.831-115.694l-9.382 9.391L80.59 21.083l.928-.933 58.25 58.328.073.103 3.021-3.051-3.146-3.172-.073-.077-1.261 1.237-.931-.933 6.64-6.649zm-9.382 7.53l7.52-7.53-7.418-7.406-.102-.102-3.546 3.554 4.176 4.178-3.949 3.954 3.228 3.25zM19.196 77.123l.93.933-6.64 6.649L4.13 75.31l9.357-9.37L77 129.53l-.915.932-57.971-58.05L18 72.34l-3.153 3.172 2.89 2.897.08.073zm-2.31 2.291L13 75.511l4.084-4.104-3.524-3.503-.073-.1L6 75.31l7.388 7.427.099.102z"/><path fill="#fefefe" d="M87.08 19.623L135.416 68l.931-.906L88 18.69zm48.733 38.011L97.461 19.23l-.931.93 38.355 38.406zm-64.406 74.49L23.071 83.72l-.931.958 48.31 48.404zM22.77 94l38.378 38.425.93-.933L23.702 93.06zm64.31 37.394l.92.933 48.347-48.379-.931-.948zm9.25-.705l.931.907 38.352-38.407-.931-.93zM71.407 18.867L70.45 18 22.14 66.338l.931.933zm-9.534.486l-.931-.933L22.59 56.827l.931.932z"/><path fill="#fefefe" d="M81.52 134.06l6.64 6.65-9.358 9.395-9.382-9.396 63.507-63.589.957.932-58.25 58.325 3.242 3.224 3.174-3.147L80.588 135zm1.48 3.3l-4.124 4.131-4.173-4.181-3.42 3.4 7.42 7.43.1.1 7.497-7.53-3.248-3.25z"/><g clip-path="url(#b)"><path fill="#fefefe" d="M76.056 16.558l-6.64-6.623L78.798.54l9.354 9.395-63.526 63.59-.906-.93 58.096-58.203-2.89-2.871-.08-.1-3.04 3.048L77 15.626zm-1.18-3.047l3.97-3.954 3.901 3.906L86.216 10l.077-.065-7.421-7.428-.074-.102-7.52 7.53z"/></g><path fill="#fefefe" d="M89.188 64.302c-.022.026-.048.077-.073.125-.73 1.387-3.115 6.27-3.267 10.1-.077 1.538.297 2.823 1.03 3.553.502.503 1.206.753 2.06.753h.228c2.966-.15 8.653-1.736 11.392-4.707 2.442-2.695 2.112-6.373-.906-9.42-.428-.427-.88-.882-1.33-1.286l-.228-.224C95.601 60.776 93.239 58.512 93 56c0-.587-.567-5.525 1.625-7.463.877-.78 1.86-.955 2.765-.537 1.533.738 2.413 2.905 2.362 4.49a7.457 7.457 0 01-.503 2.51l-.1.21.254-.072c.678-.138 1.232-.507 1.657-1.01.528-.653.653-1.66.327-2.592-.1-.33-.25-.606-.387-.833a1.963 1.963 0 01-.516-1.635c.877.25 1.632 1.032 1.984 2.09.452 1.333.253 2.742-.528 3.7-1.456 1.763-3.798 1.539-3.94 1.539l-.71-.103c-.05 0-.105-.05-.127-.1a.192.192 0 01.022-.194l.506-.562s.854-1.009.93-2.97c.027-1.31-.802-2.973-1.708-3.468-.505-.185-1.008-.06-1.536.396-1.51 1.333-1.377 5.084-1.206 6.446l.025.026c.15 2.132 2.362 4.23 4.704 6.495.503.478 1.03 1.006 1.559 1.538 3.443 3.451 3.82 7.883.928 11.004-2.992 3.223-8.928 4.912-12.173 5.095h-.3c-1.16 0-2.116-.385-2.842-1.115-.957-.959-1.46-2.52-1.383-4.406.077-1.664.528-3.679 1.311-5.97l.222-.455-.374.33C84 70 82 71 80.286 71.91l-.1.091a13.94 13.94 0 00-1.558.79 1.283 1.283 0 01-.076-.855c.099-.328.326-.58.627-.757l.579-.301c2.566-1.285 5.734-2.877 8.048-6.498.128-.176.194-.379.352-.555l.1-.176c1.26-2.467 2.089-6.572 1.007-10.2-.051-.227-.15-.448-.265-.704l-.087.05-.128.023c.38 2.32.106 4.788-.224 6.183-1.005 4.196-4.198 6.36-8.678 8.375-3.883 1.736-4.426 4.886-4.474 6.171-.025.68.928 2.291 1.834 3.778l.05.1c.177.278.327.576.478.781l.229.379c.248.477 1.13 2.416 1.432 6.416.352 4.612.979 7.08 3.568 7.788 1.26.35 2.668.375 3.798.375 1.763.051 2.845.128 2.845 1.16-.026.756-.304 4.028-1.533 5.136-1.184 1.083-1.888.907-3.978.404h-.022c-.48-.102-.906.026-1.283.404-.554.58-.906 1.609-.827 2.519v.099l.072.025c.832.151 1.836.731 2.14 1.535.074.128.125.177.173.202.128.051.403.051 1.034-.025.25-.023.581-.049.88-.074.3-.026.605-.026.88-.051h.15c1.408-.078 2.768-.125 3.12-.933.176-.404.5-1.358.877-2.467 1.536-4.634 2.317-6.623 3.12-6.976h.074V94c.025 0 .076-.231-.074-.635-.25-.705-.803-1.365-1.357-1.586-.352-.151-1.089-.125-1.712-.103-1.13.052-2.438.103-3.142-.727-.4-.455-.528-1.135-.378-1.949.143-.797.253-1.451.378-2.083.403-2.012.678-3.473.528-5.213.3 0 .576.129.806.296.25.259.431.585.375.938-.023 1.362-.276 2.669-.58 4.207l-.025.103A44.481 44.481 0 0089 89.16c-.11.503-.061.839.115 1.057.33.375 1.36.353 2.237.327.806-.051 1.584-.077 2.192.176 1.305.554 2.163 2.115 2.134 3.198 0 .58-.275 1.081-.73 1.26l-.048.025c-.528.478-1.51 3.3-2.492 6.245-.408 1.208-.701 2.14-.903 2.551-.656 1.477-2.416 1.554-4.125 1.63h-.05c-.33.026-.631.049-.932.049-.326.026-.627.077-.88.102-.3.026-.605.049-.88.049-.58 0-1.056-.151-1.456-.882l-.051-.099c-.131-.352-.906-.849-1.51-.849h-.074c-.253 0-.547-.157-.608-.385v-.025c-.349-1.359.061-3.147 1.061-4.13.676-.654 1.505-.93 2.363-.706h.048c2.013.478 2.214.503 2.944-.15.755-.657 1.081-3.073 1.133-4.057v-.1l-.103-.025c-.326-.073-1.03-.1-1.558-.1h-.051c-1.184-.025-2.666-.05-4.1-.428-3.52-.958-4.048-4.557-4.377-8.815-.051-.504-.1-1.007-.15-1.484l-.026-.103-.123-.025c-2.088-.1-4-1.234-5.66-3.323L72.264 80l-.074.093c-1.283.704-5.558 3.098-6.893 5.011-1.081 1.59-1.961 3.778-.051 5.416.58.48 1.536 1.057 2.467 1.611C69.598 93.266 70.782 94 71 94.826c0 .304 0 .554-.196.807a7.317 7.317 0 00-.425.728c-.656 1.16-1.712 3.098-3.549 2.496-2.486-.857-3.696-.48-4.25-.077-.428.327-.704.881-.803 1.638v.125l.1.025c1.123.301 1.686 1.285 1.836 1.56 0 .052.023.078.048.078l.029.025c.15.1.678.15 1.885.15h.477c.579 0 1.107.026 1.484.052 1.258.074 1.61.048 2.039-.529.275-.33.777-1.086 1.325-1.904l.08-.111C73.672 96 74.478 95 75 94.8c.156-.025.256-.201.284-.378.026-.176-.028-.422-.403-.653-.18-.125-.605-.25-1.033-.353-1.13-.327-2.538-.705-3.143-1.813-.304-.603-.326-1.286-.073-2.067.7-2.189 4.448-2.97 6.736-3.246.028.43.08.804.128 1.13-1.658.203-5.255.834-5.783 2.471-.153.478-.153.856.023 1.109.352.728 1.51 1.058 2.438 1.307.528.151.982.279 1.309.481.653.4 1.008 1.057.93 1.76-.047.605-.413 1.134-.978 1.335l-.026.026c-.48.352-1.987 2.544-3.347 4.582l-.062.052c-.616.958-1.119 1.714-1.423 2.063-.803 1.06-1.734 1.035-2.94.958h-.125c-.404-.022-.88-.074-1.434-.048-2.288.026-2.97-.026-3.398-.859-.125-.25-.602-1.031-1.482-1.031-.326 0-.58-.25-.58-.626 0-1.438.382-2.521 1.284-3.152C63 97 64.792 97 67.182 97.774c.818.226 1.36-.455 2.189-1.967l.025-.049c.128-.227.253-.455.378-.653l.051-.105h-.051c-.304-.475-1.709-1.309-2.64-1.885-.931-.529-1.962-1.115-2.64-1.74-1.965-1.66-2.013-4.179-.125-6.899 1.405-2.067 5.43-4.383 7.114-5.29l.128-.074-.077-.112c-.454-.692-.778-1.35-1.008-1.804.154-.026.278-.048.474-.074.208-.051.457-.122.688-.176.953 1.888 2.963 4.986 6.083 5.364l.179.025-.026-.176c-.304-1.487-.63-2.367-.806-2.771-.118-.302-.502-.907-.58-1.007-.098-.15-.172-.3-.278-.455-.876-1.432-1.61-2.691-1.881-3.675L74.302 74l-.154.2c-.902 1.109-1.932 1.737-3.241 2.015-1.687.327-3.7-.503-5.482-1.215-1.21-.473-2.243-.874-2.618-.749-1.055.327-1.807.051-2.163-.15l-.076-.026-.052.051c-.4.25-1.13.874-1.606 1.874-.506 1-1.008 1.148-1.712 1-.3 0-.576-.054-1.198.45a.594.594 0 01-.46.124.511.511 0 01-.377-.276c-.704-1.108-.73-3.425-.73-3.675v-.33l.275-.15c1.21-.78 2.64-1.888 2.82-2.317.3-1.007.803-1.689 1.472-2.09.713-.352 1.516-.403 2.448-.125.956.302 2.552.389 4.377.225l.279-.026-.177-.199c-.428-.403-1.385-.833-1.433-.858-.278-.051-.494-.074-.63-.1a5.853 5.853 0 01-3.645-1.762l-.051-.051-.554.227-.227-.128c-.224-.125-.983-.653-1.387-2.939-.248-1.114 0-2.601.206-3.886.15-.904.275-1.814.224-2.214l-.026-.176-.172.099c-.33.177-.679.253-1.056.125-.932-.327-1.312-1.157-1.51-1.66l-.052-.077c-.15-.125-.614-.211-.832-.3h-.1a.492.492 0 01-.323-.228c-.08-.1-.105-.254-.08-.379l.026-.099C54.61 53 55.588 51 57.25 51.356c.253.077.528.128.858.18h.022c1.51.3 3.395.68 3.871 2.089.078.375.203.984.382 1.663.352 1.51.906 3.8 1.46 4.633.476.73.751 1.007.85 1.135l.026.026h.051c1.158.275 3.52.778 5.434 1.057a9.308 9.308 0 00-1.31.955 71.38 71.38 0 01-4.524-.933l-.08-.022c-.125-.052-.425-.139-1.38-1.564-.706-1.006-1.234-3.323-1.634-5.011-.18-.654-.275-1.234-.43-1.564-.226-.801-1.733-1.105-2.943-1.33a9.603 9.603 0 01-.902-.202h-.154c-.554 0-.982.83-1.206 1.359l-.052.173h.125c.506.18.832.455.957.785l.026.048c.224.529.403.881.832 1.035h.099l.025-.026c.602-.48 1.13-.403 1.61.158.502.647.326 1.755.074 3.29-.199 1.208-.404 2.57-.224 3.528.176 1.006.425 1.56.601 1.862l.077.077.326-.129a.556.556 0 01.679.203c.025 0 .275.378.829.781.681.53 1.484.808 2.376.907.241.026 1.499.202 2.555.804.605.28 1.03.86 1.257 1.186l.026.074.1-.023a24.673 24.673 0 003.372-.807l.048-.026.026-.025c1.081-1.763 3.372-2.82 5.785-3.977l.1-.026c.731-.378 1.558-.756 2.364-1.16 3.245-1.66 6.765-5.085 7.293-8.36.202-1.284-.048-2.518-.755-3.653L85.847 50l.074.604c.176 1.156 0 2.14-.477 2.896l-.025.048v.026a6.195 6.195 0 01-.125 1.512c-.403 1.737-2.138 3.297-5.294 4.71-1 .453-1.9.856-2.732 1.204-5.004 2.219-6.89 3.052-7.593 6.073-.403.125-.807.225-1.235.327.454-2.544 1.484-3.928 3.875-5.287l.073-.05-.022-.063c-.051-.29-.15-.57-.227-.793a4.495 4.495 0 01-.301-1.083v-.052L71.76 60c-1.21-.559-1.837-1.815-1.987-2.193l1.056-.404c.17.378.832 1.597 1.987 1.762.854.151 1.786-.932 2.54-1.788.43-.477.778-.907 1.156-1.134.15-.1.554-.375 1.487.43.248.227.401.554.376.906 0 .301-.128.606-.376.804-.354-.451-.732-.83-1-1.006v-.05l-.106.076c-.205.176-.429.452-.682.73-.755.867-1.76 2.038-3.017 2.192H73l.092.15c.052.126.077.25.128.353.052.172.125.353.176.555l.051.125.125-.051c.932-.457 2.01-.93 3.242-1.457.806-.383 1.737-.784 2.72-1.238 2.765-1.26 4.323-2.567 4.653-3.929.678-2.996-2.115-4.887-2.743-5.236.202-.304.556-.506.932-.506.252 0 .528.102.726.279.58.503 1.11 1.105 1.485 1.736l.278.452-.051-.558c-.048-.775-.326-1.682-.814-2.511-.719-1.362-1.752-2.292-2.757-2.489h-.1l-.076.197a95.955 95.955 0 00-.98 2.718c-.087.227-.303.403-.553.403-.733.078-2.218.228-3.776.606-2.538.73-3.066 1.208-3.194 1.384l-.025.048.025.077c.026.077.103.176.18.279l.099.15 5.833-1.41a1.275 1.275 0 01-.979 1.41l-1.987.478-.077.026-.025.077c0 .073-.026.15-.026.202v.172l.15-.022c.08-.025.154-.025.268-.077l.664-.202c.336-.099.652-.048.956.1.253.154.455.384.554.657-.174.05-.704.202-1.862.554-.312.1-.602.173-.855.1a1.137 1.137 0 01-.7-.327c-.18-.202-.28-.478-.305-.805v-.15l-1.734.426C72 53.324 70.526 54 70 54.859c-.153.202-.175.455-.076.73l.076.125.103-.073a.608.608 0 01.778.25l.253.528c-.807.43-1.134.529-1.235.529l-.323.102-.23-.278c-.452-.478-.98-1.561-.346-2.567.624-.881 1.756-1.513 2.582-1.916l.131-.048-.077-.128c-.227-.401-.304-.757-.179-1.113.279-.826 1.437-1.454 4-2.185h.026A26.655 26.655 0 0179 48.21h.105l.051-.077c.298-.878.701-1.987.906-2.567.1-.227.15-.378.15-.378.074-.188.279-.378.503-.378h.15c1.135 0 2.291.654 3.293 1.84l.278.124c.477.226.932.378 1.36.654 2.204 1.086 3.796 3.047 4.576 5.694 1.005 3.448.55 7.878-1.107 11.03zm-1.353-8.889l-.279.68c-1.41 3.425-4.854 6.145-7.395 7.456-.854.451-1.683.83-2.515 1.233-3.398 1.587-5.482 2.67-5.76 4.858-.074.606-.528 1.087-1.13 1.237a6.535 6.535 0 01.026-1.586l.048-.18-.198.052c-3.373.906-7.55 1.134-9.51.554-.628-.202-1.122-.176-1.534.026-.425.257-.755.705-.953 1.41-.18.605-1.235 1.586-2.995 2.72l-.052.051V74c0 .35.077 1.257.253 2l.048.139.111-.074c.596-.253 1-.228 1.4-.154.025 0 .073 0 .128.026h.05l.049-.048c.051-.052.125-.177.25-.43.905-1.836 2.441-2.566 2.515-2.592l.025-.026c.227-.077.48-.026.583.159.147.117.598.421 1.481.143.781-.228 1.91.227 3.395.807 1.533.628 3.47 1.41 4.804 1.131 1.859-.378 2.915-1.66 3.948-3.8v.073l.253-.58c.829-1.964 2.336-3.45 4.55-4.431 4.279-1.939 7.117-3.877 8.023-7.581.15-.705.275-1.66.326-2.618z"/></svg>