<svg xmlns="http://www.w3.org/2000/svg" width="200" height="74"><defs><clipPath id="a"><path d="M195.43 40.78H200v4.523h-4.57z"/></clipPath><clipPath id="b"><path d="M100.19 60.13h20.378v13.433H100.19z"/></clipPath><clipPath id="c"><path d="M0 73.562h200V0H0z"/></clipPath></defs><path fill="#fefefe" d="M101.335 2.203l13.101 12.994.564-.596L101.335 1l-.605.61.603.595z"/><path fill="#fefefe" d="M98.63 28.83L85 15.203l.563-.595 13.069 13.026.767-.76-4.828-4.789L86 13.581 99.7 0l.601.586L87.2 13.581l.734.728 7.156-7.097.603.595-6.121 6.072-1.036 1.027 6.628 6.574h.66v-.794h-.986v-.796h-.017v-9.176l.252-.111a12.164 12.164 0 013.865-.985L97.106 7.8l-1.304-1.294-.013-.013 4.211-4.2 1.95 1.9 2.317 2.3-.04.04-2.34 2.316.005.001-.773.767c1.329.115 2.639.443 3.881.985l.236.11v9.13h.014v.843h-1.088v.794h.676l6.627-6.574-7.145-7.086.603-.596 7.445 7.383.3.3L114 16.23l-13.699 13.591-.6-.597 13.1-12.994-.735-.728-1.066 1.06-5.75 5.701v.06h-.06zm4.496-13.72h1.259v-3.43h-1.259zM100 9.481v.007s0-.003.054-.007L103 6.535l-2-1.972-1-1.027-3 2.971zm0 .933c-1 0-2.066.141-3.074.421h6.205a11.612 11.612 0 00-3.131-.42zm-2.218 4.696h4.493v-3.43h-4.493zm-2.11 0h1.26v-3.43h-1.26zm0 4.732h8.713V16H95.67zm1.003 1.637h6.636v-.793h-6.636zM100 26.276l4-3.953h-8l3 2.926z"/><path fill="#fefefe" d="M100.858 16.663a1.519 1.519 0 00-.858-.253 1.46 1.46 0 00-.552.116c-.267.113-.448.3-.654.535a1.468 1.468 0 00-.137 1.398c.113.265.343.49.539.648.236.16.524.253.804.252a1.48 1.48 0 001.258-.65 1.457 1.457 0 00.138-1.398c-.113-.311-.3-.49-.538-.648m-.245 1.467a.633.633 0 01-.231.277.648.648 0 01-.602.059.637.637 0 01-.39-.582.622.622 0 01.281-.523.625.625 0 01.603-.057.63.63 0 01.388.58.534.534 0 01-.05.246"/><g clip-path="url(#a)"><path fill="#fefefe" d="M197.71 40.78L195.43 43l2.28 2.303L200 43z"/></g><path fill="#fefefe" d="M0 43l2.28 2.304L4.56 43l-2.28-2.22zm87.324 17.783l.24-.255.073-.146.165-.2c.198-.242.526-.558.845-.947.353-.388.645-.8.98-1.235.373-.44.672-.88 1.002-1.323.371-.443.627-.846.89-1.21l.652-.902c.171-.237.269-.36.294-.374 0-.01.015-.06.046-.191.03 0 .055-.13.073-.227a.798.798 0 00.01-.264c-.013-.078-.056-.112-.13-.1-.11-.024-.198 0-.266.073-.067.073-.131.14-.198.2l-.252.318c-.22.24-.446.523-.678.82a50.99 50.99 0 01-.66.828c-.41.437-.754.911-1.121 1.42-.196.256-.447.558-.753.932-.306.331-.617.688-.936 1.054-.318.363-.6.724-.908 1.082-.288.358-.512.677-.692.956 0 .037 0 .076-.08.119a3.44 3.44 0 00-.082.118 18.39 18.39 0 01-.432.546c-.14.125-.273.352-.406.547-.209.267-.423.578-.63.809-.21.273-.37.55-.607.829a1.95 1.95 0 00-.256.31c-.074.11-.16.212-.258.309a.281.281 0 01-.092.173c-.048.043-.085.094-.157.148-.161.249-.354.504-.531.771-.177.229-.376.516-.596.747a.817.817 0 01-.12.154 1.905 1.905 0 00-.138.155c-.024.036-.058.085-.1.173-.043 0-.096.076-.157.1.037-.46.104-.94.202-1.438.098-.498.177-.959.24-1.384.06-.558.145-1.14.256-1.748.11-.607.214-1.237.312-1.892a.69.69 0 00.1-.338.978.978 0 01.083-.355c.012-.024.012-.043 0-.054-.012-.013-.012-.031 0-.055.012-.098.031-.192.056-.282.024-.091.049-.179.074-.264l.035-.236c.012-.054.031-.14.056-.202a9.69 9.69 0 00.119-.727c.03-.243.109-.468.109-.674 0-.11.063-.22.094-.327.03-.124.063-.213.1-.31.06-.122.117-.237.165-.346.05-.11.043-.237-.018-.383-.098-.085-.209-.218-.341-.291a2.547 2.547 0 00-.393-.2c-.318.024-.607.128-.79.31-.171.836-.317 1.68-.44 2.53-.123.85-.246 1.693-.377 2.566 0 .28-.085.604-.128.938-.043.334-.095.66-.156.975-.11.729-.205 1.468-.285 2.22-.08.754-.15 1.5-.211 2.24 0 .267.089.486.267.627.177.199.425.271.743.247.11.024.208.021.294-.009a.788.788 0 00.238-.136c.074-.102.14-.102.238-.2 0-.073.08-.14.13-.2a43.02 43.02 0 001.432-1.93.11.11 0 01.01-.055.154.154 0 00.007-.055c.221-.279.421-.529.606-.747.184-.218.38-.466.588-.746.073-.109.156-.17.227-.17a.631.631 0 00.232-.303c.06-.073.12-.148.174-.227.055-.08.113-.161.175-.247v-.11a.391.391 0 00.128-.181.355.355 0 01.147-.182c.144-.292.386-.573.606-.846.22-.274.434-.544.643-.81.035-.093.07-.093.1-.156.03-.042.07-.093.12-.154M90 59c0-.11-.097-.128-.195-.092a.871.871 0 00-.293.183 1.845 1.845 0 00-.257.273c-.074.097-.105.164-.093.2-.012.049-.03.109-.054.182a.892.892 0 00-.046.254.372.372 0 00.028.155c.024.056.072.095.146.119.049.025.082.03.101.018a.116.116 0 01.064-.018.391.391 0 01.175-.119c.079-.029.132-.074.156-.155h.073s.022-.054.065-.09c.043-.037.057-.073.046-.109.084.024.084.012.084-.036v-.082c.056-.006.056-.022 0-.046.141-.048.206-.143.237-.283a.383.383 0 00-.083-.354H90m11.264.106l.055-.183c.465-.109.958-.193 1.479-.255.519-.06 1-.12 1.44-.181l.018-.036a.23.23 0 01.129-.037.342.342 0 00.165-.054c.012-.013.019-.043.019-.092 0-.047.012-.085.037-.109-.013 0-.02.012-.02.037 0 .012-.005.018-.017.018a.627.627 0 00-.037-.065c-.013-.017-.006-.038.018-.063-.16-.086-.309-.086-.449-.086h-.414a2.22 2.22 0 01-.432.078c-.08.005-.143.005-.192 0-.063-.006-.063-.006-.183 0-.073.005-.209.02-.405.045a6.998 6.998 0 01-.422.063 3.568 3.568 0 00-.44.082h-.018c.122-.268.247-.528.405-.783.1-.254.224-.485.347-.783.159-.279.3-.57.423-.873.121-.304.23-.601.385-.892a.65.65 0 00.046-.165.47.47 0 01.046-.146c.05-.06.089-.117.119-.172.03-.055.034-.106.01-.155-.025-.097-.099-.173-.221-.227C103 54 102.91 54 102.788 54a.76.76 0 00-.349.063c-.135.048-.215.09-.238.127a.34.34 0 00-.083.164c-.019.073-.04.14-.065.2-.053.085-.053.154-.053.21a.258.258 0 00-.112.173c-.024.063-.037.063-.037.063 0 .063-.012.1-.036.137a1.054 1.054 0 01-.129.273c-.06.158-.125.319-.193.483a4.686 4.686 0 01-.229.481c-.17.377-.333.747-.486 1.111-.154.365-.298.736-.431 1.11a1.21 1.21 0 01-.175.056l-.172.036s-.125.012-.26.036c-.134.026-.28.055-.44.091-.16.037-.3.07-.469.1-.153.03-.271.086-.357.086l-.22.087-.083.164a3.11 3.11 0 00-.083.183 1.102 1.102 0 00-.037.254c0 .074.031.128.093.164.012.024.04.034.082.027.043-.005.095-.014.157-.027a.334.334 0 00.137-.072c.043-.037.083-.067.12-.092a4.93 4.93 0 00.265-.082c.095-.03.174-.057.248-.082.208-.096.382-.167.523-.21.14-.042.324-.075.45-.099-.062.17-.126.343-.126.52-.104.175-.162.354-.223.536-.135.46-.28.916-.44 1.365-.16.45-.337.91-.423 1.364-.005 0-.009.067-.014.089-.05.039-.096.08-.16.113a6.96 6.96 0 00-.285.164.466.466 0 00-.2.036 1.042 1.042 0 00-.255.156 5.041 5.041 0 00-.26.209 3.48 3.48 0 00-.294.172c-.013.007-.034.061-.064.061-.031 0-.114 0-.248.077-.134.06-.226.108-.312.146-.086.035-.184.078-.294.126a2.265 2.265 0 01.019-.474c.024-.218.058-.448.1-.69.043-.244.086-.474.129-.692.042-.22.07-.377.082-.493.037-.115.077-.254.142-.4v-.418c0-.11-.065-.182-.205-.3a.74.74 0 00-.395-.137 1.217 1.217 0 00-.515.164c-.171.091-.323.188-.459.273-.426.23-.734.485-1.027.764-.294.28-.6.558-.919.838a.571.571 0 00-.2.216c-.062 0-.136.063-.222.075.074-.206.15-.394.23-.565.08-.17.156-.34.229-.51a.52.52 0 00.037-.2.68.68 0 01.038-.218c.06-.097.121-.2.183-.31a.423.423 0 000-.382c-.025-.121-.12-.206-.285-.255-.165-.048-.315-.024-.49.073 0 .024 0 .058-.061.1a.738.738 0 01-.083.1c-.012.092-.025.092-.037.21-.011.079-.03.16-.054.246a1.08 1.08 0 01-.11.2c-.05.072-.086.14-.11.2-.085.236-.18.412-.27.62a.656.656 0 00-.275.109c-.123.06-.22.12-.318.181a2.21 2.21 0 01-.266.127 2.735 2.735 0 01-.303.11c-.306.089-.612.237-.918.382-.306.146-.584.276-.835.392-.251.115-.463.207-.634.315h-.313c-.035 0-.035-.112 0-.233.038-.122.099-.264.185-.428.085-.164.177-.339.275-.519.127-.182.19-.358.276-.528.024-.012.036-.03.036-.055 0-.024.013-.042.036-.054.013-.012.021-.015.028-.01.006.007.015.004.028-.008a.564.564 0 00.055-.165c.012 0 .03-.054.055-.09a.403.403 0 00.073-.274.327.327 0 00.028-.164l-.028-.2a.246.246 0 00-.082-.145c-.043-.037-.083-.127-.12-.127H89c-.12 0-.213 0-.31.09a6.623 6.623 0 00-.478.792c-.147.286-.288.568-.422.847a1.34 1.34 0 01-.129.271 2.488 2.488 0 01-.146.348 1.383 1.383 0 01-.102.274 2.808 2.808 0 00-.119.273c-.062.182-.11.345-.147.491a.9.9 0 000 .437c.098.177.218.177.358.264.14.042.31.063.495.063 0 0 .071.003.083.01.013.006.038-.01.074-.046.085.036.245-.015.477-.114.233-.18.487-.341.763-.523.275-.183.538-.358.789-.528.25-.17.443-.28.578-.327.147-.075.296-.152.45-.238.153-.084.284-.176.395-.273.134-.06.256-.111.391-.209 0-.028 0-.06.088-.089L92 63a6.633 6.633 0 00-.465 1.404 2.57 2.57 0 00-.1.274.435.435 0 00-.028.218c.024.104.1.181.228.254.13.073.242.098.365.073.098-.024.288-.223.545-.473a40.78 40.78 0 011.009-1.093c.135-.132.275-.255.446-.364.123-.108.257-.218.38-.293a5.55 5.55 0 01.62-.6c.213-.17.426-.338.646-.508l.221-.183a.516.516 0 01.257-.127A1.639 1.639 0 0196 62v.437c-.053.073-.081.207-.124.4-.043.163-.085.399-.128.61-.043.214-.083.413-.12.553a3.945 3.945 0 00-.054.422c0 .133.051.282.156.446.103.132.27.234.357.21.086 0 .181-.007.285-.018.104-.06.218-.06.34-.06.146 0 .288-.125.469-.24a4.47 4.47 0 01.448-.283c.148-.098.242-.158.285-.183.086-.024.086-.045.086-.064 0-.017.051-.042.09-.072.035-.03.12-.1.256-.209a.64.64 0 00.202-.128 3.73 3.73 0 00.183-.2c.027-.014.038-.034.064-.05-.05.222-.103.429-.147.67-.08.424-.131.861-.156 1.31 0 .06.006.121.018.181.013.061.068.116.165.164h.02a.509.509 0 01.173-.045c.068-.006.132-.02.132-.044.086-.014.11-.028.098-.047-.012-.018.012-.04.074-.063a.946.946 0 00.018-.183c0-.06.012-.12.036-.181l.11-.183a.52.52 0 00.019-.15c0-.085.006-.153.019-.214l.036-.182a.993.993 0 01.055-.182c0-.036.015-.073.046-.11a.474.474 0 00.064-.09c.05-.097.082-.222.101-.327a.83.83 0 01.12-.329c.023-.11.06-.212.11-.309.094-.097.094-.194.094-.257.2-.677.402-1.321.621-2a56.09 56.09 0 00.643-1.894"/><g clip-path="url(#b)"><path fill="#fefefe" d="M109.28 66c-.122.253-.28.604-.478 1-.196.454-.416.906-.66 1.386-.245.48-.518.96-.817 1.439-.325.48-.618.922-.954 1.329-.371.407-.692.746-1.066 1.02a2.61 2.61 0 01-1.165.5.234.234 0 01-.074-.21c.013-.078 0-.13-.066-.154.08-.365.177-.704.324-1.02.146-.29.32-.616.523-.9.153-.286.413-.557.633-.81.22-.256.428-.505.624-.748.074-.084.202-.227.385-.427.184-.2.405-.405.66-.683.258-.255.54-.531.851-.828.3-.298.6-.586.894-.894.025 0 .106-.074.184-.1a.513.513 0 00.239-.126.076.076 0 01-.028.09c-.03.025-.034.062-.009.136zm7.806-4.984l.012-.016h.037l-.05.016zm-.686.743a11.84 11.84 0 01-.752.647c-.098.06-.199.12-.303.181a.647.647 0 01-.345.092 10.17 10.17 0 011-1.002 2.84 2.84 0 011.086-.66 5.24 5.24 0 01-.686.742zm4.002.082a.09.09 0 00-.045.018c-.02.013-.034.019-.046.019-.099.024-.178.051-.239.122-.072 0-.128 0-.202.096a43.581 43.581 0 01-1.175.601 5.73 5.73 0 01-.605.303 3.55 3.55 0 01-.46.261 23.25 23.25 0 01-.467.227c-.163.08-.377.18-.634.301-.11.048-.239.098-.385.146-.144.065-.289.065-.422.127a5.27 5.27 0 00-.533.182c-.189.073-.398.098-.642.073a.432.432 0 01-.157-.317 1.04 1.04 0 01.055-.383c.043-.129.102-.25.174-.365.075-.115.148-.252.221-.252h.615c.202-.085.364-.152.487-.249.49-.328.979-.751 1.468-1.129a.707.707 0 01.11-.154 4.24 4.24 0 01.166-.174.744.744 0 01.165-.181c.074-.061.149-.113.149-.164 0-.146-.088-.294-.222-.446-.136-.152-.423-.228-.863-.228a.226.226 0 00-.138.037.684.684 0 01-.119.073c-.122.06-.258.12-.404.181-.147.061-.254.134-.423.22-.233.125-.458.3-.68.5-.251.07-.492.154-.713.264-.245.121-.49.249-.734.382.012 0 .018.007.018.018-.098.05-.183.05-.257.05-.074.075-.14.12-.202.169-.024 0-.052.012-.082.037-.03.024-.058.048-.083.071H113c0 .061-.159.135-.342.22-.184.085-.376.182-.578.29-.203.11-.395.213-.58.347a1.249 1.249 0 00-.384.364c.036-.17.088-.337.156-.498.067-.167.113-.34.137-.522.05-.097.083-.203.1-.318.02-.16.048-.221.083-.319.025-.11.028-.2.01-.273a.608.608 0 00-.175-.255.1.1 0 00-.091-.027c-.037.005-.062-.002-.074-.027-.049.012-.088.01-.12-.01-.03-.018-.063-.026-.142-.026a.22.22 0 00-.169.081c-.043.054-.082.1-.12.136-.06.062-.088.097-.082.11.006.012-.003.049-.028.109 0 .06-.036.112-.11.154-.073.044-.14.09-.201.137-.062.05-.126.128-.193.2-.097.073-.097.127-.193.164a38.05 38.05 0 01-.752.62 14.04 14.04 0 01-.754.564.865.865 0 00-.146.072 2.194 2.194 0 00-.147.11c-.105.06-.205.118-.285.174-.08.054-.168.146-.265.146-.025 0-.053.05-.083.062-.03.012-.07.006-.12-.062h.028c.018-.084.027-.12.027-.157.061-.193.138-.37.23-.528.092-.157.186-.315.285-.455.078-.084.18-.187.248-.31a.647.647 0 01.284-.273c.049-.071.107-.145.174-.218.067-.059.138-.14.211-.2a.327.327 0 01.161-.218c.06-.049.127-.104.188-.164a.741.741 0 01.184-.237c.073-.06.153-.121.238-.181.062-.059.166-.161.313-.265.146-.104.274-.2.385-.291.11-.09.174-.172.193-.246.018-.073-.07-.115-.267-.127-.024 0-.06.003-.11.009-.049.006-.124.02-.124.045a1.61 1.61 0 00-.426.21 4.83 4.83 0 01-.404.245c-.025 0-.061.02-.11.054-.06.038-.06.075-.166.11a1.89 1.89 0 00-.165.11c-.049.036-.08.087-.092.087l-.376.358c-.178.176-.364.365-.56.565-.196.2-.37.395-.522.582-.179.166-.179.29-.262.385-.068.021-.117.03-.2.11-.171 0-.367.17-.587.315a2.994 2.994 0 01-.643.329 3.25 3.25 0 00-.597.356h-.229c-.062-.053-.091-.145-.091-.302l.11-.4a.688.688 0 00.064-.164c.006-.036.015-.134.028-.134.023-.097.06-.152.11-.176v-.09a.512.512 0 00.118-.293c.083-.109.154-.211.221-.309.067-.132.12-.2.157-.31 0-.133-.044-.218-.13-.254a1.547 1.547 0 00-.248-.091h-.303a.424.424 0 00-.127.018.124.124 0 00-.037.09.206.206 0 01-.018.092.23.23 0 01-.056.11.222.222 0 00-.055.09v.019h-.055c-.098.104-.2.23-.349.291-.058.06-.165.14-.275.236-.404.305-.796.577-1.175.866-.38.273-.777.53-1.193.773a.695.695 0 01-.294.165c.012-.098.055-.227.128-.227a1.27 1.27 0 00.148-.338 2.73 2.73 0 00.137-.191.425.425 0 01.174-.156v-.037c.049-.035.074-.078.074-.126a.567.567 0 00.21-.152c.066-.07.066-.127.176-.176a7.46 7.46 0 01.311-.29c.11-.098.214-.19.313-.274l.165-.136c.049-.043.101-.124.165-.124.098-.093.195-.156.294-.223a.954.954 0 01.293-.136c.025-.073.058-.119.102-.137a.308.308 0 01.12-.027l.036-.037.22-.146c.11-.096.226-.17.348-.218.05-.024.099-.076.147-.076.049.056.092 0 .129 0 .048 0 .085-.063.11-.124.025-.06.018-.108-.018-.145a.249.249 0 00-.092-.191 1.471 1.471 0 01-.166-.174.57.57 0 01-.256-.054.088.088 0 01-.083.027.45.45 0 00-.082-.008c-.013 0-.02.002-.02.008s-.005.01-.017.01c-.129.048-.298.117-.376.208a.934.934 0 01-.322.228c-.073.012-.208.094-.431.215-.169.183-.383.358-.615.56-.233.2-.453.44-.661.59-.208.194-.361.334-.459.42-.11.158-.265.308-.35.43a6.07 6.07 0 00-.33.498 3.429 3.429 0 00-.21.318.893.893 0 00-.12.374c0 .023-.006.037-.018.037-.013 0-.019.005-.019.017-.06.231-.024.389.11.474a.323.323 0 00.24.118c.097.006.195.015.293.027.062.025.139.036.139.036h.174a.455.455 0 00.265-.045 1.71 1.71 0 00.267-.155 5.84 5.84 0 00.9-.492.22.22 0 01.109-.082 1.3 1.3 0 00.11-.044c.012 0 .015-.01.01-.028-.007-.053-.004-.053.01-.053h.1c.055-.072.055-.107.055-.157a.494.494 0 00.256-.145c.056-.06.114-.128.175-.2.037-.024.068-.045.092-.064a.491.491 0 01.073-.045c.012 0 .021-.01.027-.027.006-.019.022-.022.047-.01a2.022 2.022 0 00-.028.428c.006.14.022.22.046.355.037.086.077.16.12.228a.66.66 0 00.192.172.374.374 0 01.138.046c.03.019.057.027.082.027.257.061.48.061.67 0 .19-.06.368-.146.533-.255a8.15 8.15 0 00.486-.353c.16-.145.337-.253.533-.338.02.01.066-.011.118-.037a2.148 2.148 0 00-.052.291 1.35 1.35 0 000 .31.573.573 0 00.091.255c.05 0 .08.012.093.037.012.024.03.042.055.054h-.037c.024.025.094.043.21.055.08.012.24.025.368.036.13.012.25.018.367.018a.65.65 0 00.211-.018c.062-.011.134-.039.248-.082a4.79 4.79 0 00.321-.146c.11-.055.214-.109.313-.163.097-.056.165-.101.202-.137.05-.135.205-.135.321-.264.116-.08.229-.173.34-.282a.27.27 0 01.128-.091l.073-.073c.025-.024.05-.048.073-.073 0-.012.019-.018.056-.018.059-.073.059-.11.059-.11v.383a.604.604 0 00-.115.209.661.661 0 01-.045.119c-.019.065-.04.065-.064.118l-.11.191c.024 0 .014.054-.029.164-.043.11-.07.164-.082.164a.679.679 0 01-.083.064c-.043.03-.125.076-.248.136-.072.05-.224.136-.311.228a1.686 1.686 0 01-.33.318A30.279 30.279 0 00106.8 67a18.009 18.009 0 00-1.725 1.914A10.255 10.255 0 00103.791 71c-.33.654-.483 1.315-.46 1.947-.036.053-.014.053.065.21.08.127.187.238.322.337a.86.86 0 00.45.063c.153-.018.302-.052.45-.1a5.966 5.966 0 002.083-1.384 10.334 10.334 0 001.57-2.073 17.3 17.3 0 001.201-2.351c.35-.825.689-1.649 1.019-2.349.062-.133.113-.3.156-.418a.564.564 0 01.23-.328c.037-.085.123-.148.123-.191.1-.043.177-.094.262-.156l.147-.108c.061-.048.12-.099.175-.099a.404.404 0 01.193-.12c.097-.097.223-.182.311-.255.11-.073.221-.145.331-.219.098-.072.242-.173.431-.3.15-.106.386-.26.588-.4.201-.14.388-.273.562-.4.17-.128.285-.222.347-.306h-.037c.097-.11.21-.18.34-.223.011-.004.023-.012.035-.016-.17.183-.343.362-.505.553a.902.902 0 01-.074.183c-.037.072-.106.134-.106.182-.115.133-.185.321-.252.446-.068.164-.12.328-.155.492-.038.163-.05.324-.038.482a.724.724 0 00.147.4c.11.159.248.27.413.337.165.067.34.104.523.11.183.054.362-.01.552-.047.183-.036.348-.073.495-.108.11-.037.223-.07.315-.1.14-.03.247-.076.346-.137l1.321-.619c.086-.036.214-.104.385-.201.172-.097.355-.202.551-.318.197-.115.397-.231.589-.346.195-.07.36-.222.495-.32a2.46 2.46 0 01.211-.135c.102-.03.102-.06.102-.092.087-.03.103-.046.09-.046.05-.071.113-.145.193-.217a1.94 1.94 0 00.202-.21.247.247 0 00.083-.155c0-.036-.055-.054-.166-.054m-5.273-.535l-.022.02c-.005.001-.009.004-.026-.013a.084.084 0 01.048-.007"/></g><g clip-path="url(#c)"><path fill="#fefefe" d="M121.42 59.246h53.921V58.3H121.42z"/></g><g clip-path="url(#c)"><path fill="#fefefe" d="M24.65 59.246h53.921V58.3H24.65z"/></g><g clip-path="url(#c)"><path fill="#fefefe" d="M121.42 27.785h53.921v-.945H121.42z"/></g><g clip-path="url(#c)"><path fill="#fefefe" d="M24.65 27.785h53.921v-.945H24.65z"/></g><g clip-path="url(#c)"><path fill="#fefefe" d="M7.81 36.174h1.062c.261 0 .45.062.564.187.114.124.172.332.172.639v9c0 .332-.064.547-.19.664-.124.116-.365.174-.721.174H7.81v.795h5.46v-.795h-.912c-.358 0-.587-.058-.706-.174-.12-.117-.18-.332-.18-.664v-9.063c0-.282.054-.485.163-.61.108-.124.282-.186.522-.186h4.364c.268 0 .479.06.57.178.111.12.167.325.167.618V46c0 .332-.063.547-.188.664-.126.116-.364.174-.716.174h-.91v.795h5.475v-.795H20c-.34 0-.581-.058-.706-.174-.126-.117-.188-.332-.188-.664v-9c0-.295.056-.501.17-.631.115-.13.292-.195.532-.195h1.111v-.804H7.81z"/></g><g clip-path="url(#c)"><path fill="#fefefe" d="M35.624 35.07c-1.717 0-3.129.604-4.235 1.812-1.107 1.208-1.659 2.751-1.659 4.631 0 1.88.551 3.42 1.655 4.618 1.103 1.2 2.516 1.8 4.239 1.8 1.722 0 3.13-.598 4.226-1.791 1.095-1.195 1.643-2.736 1.643-4.627 0-1.885-.55-3.43-1.65-4.636-1.102-1.205-2.508-1.807-4.22-1.807m2.752 10.688c-.608.94-1.525 1.41-2.751 1.41-1.243 0-2.166-.465-2.768-1.397-.602-.932-.856-2.352-.856-4.258 0-1.908.256-3.326.86-4.258.605-.932 1.527-1.398 2.764-1.398 1.237 0 2.157.462 2.759 1.386.617.923.903 2.347.903 4.27 0 1.89-.286 3.305-.911 4.245"/></g><g clip-path="url(#c)"><path fill="#fefefe" d="M59.818 36.37c-.114.129-.17.335-.17.63v9.838h1.813V51h-.652c-.09-1.249-.368-2.129-.809-2.624-.495-.495-1.29-.742-2.41-.742h-3.854c-1.115 0-1.906.247-2.374.742-.469.495-.75 1.375-.845 2.624h-.627v-4.162h1.74c.645-1.04 1.156-2.35 1.53-3.935a21.65 21.65 0 00.56-4.98c0-.75-.084-1.23-.248-1.438-.164-.207-.472-.31-.982-.31h-.602v-.805h9.573v.804H60.35c-.24 0-.417.065-.532.196zm-2.035-.196h-3.086c-.055 2.488-.248 4.585-.576 6.29-.33 1.705-.817 3.163-1.464 4.374h5.126z"/></g><g clip-path="url(#c)"><path fill="#fefefe" d="M72.43 36.872c-1.107 1.208-1.66 2.751-1.66 4.63 0 1.88.551 3.42 1.656 4.62 1.103 1.2 2.516 1.8 4.239 1.8 1.722 0 3.13-.597 4.226-1.792 1.109-1.193 1.642-2.736 1.642-4.627 0-1.885-.533-3.43-1.65-4.635-1.101-1.205-2.507-1.808-4.218-1.808-1.717 0-3.129.604-4.235 1.812m6.994.36c.576.924.902 2.348.902 4.27 0 1.892-.326 3.307-.91 4.247-.608.94-1.526 1.41-2.751 1.41-1.243 0-2.166-.466-2.768-1.398-.602-.931-.897-2.35-.897-4.258 0-1.906.296-3.327.901-4.258.605-.932 1.526-1.397 2.764-1.397 1.237 0 2.157.462 2.759 1.385"/></g><g clip-path="url(#c)"><path fill="#fefefe" d="M123.59 46.665c-.125.115-.367.173-.723.173H122v.796h5.44v-.796h-.77c-.44 0-.72-.056-.843-.17-.123-.112-.184-.33-.184-.668v-9c0-.36.08-.589.243-.697.114-.108.565-.161 1.211-.161 1.64 0 2.719.232 3.24.695.522.465.902 1.421 1.142 2.87h.735L132 35.37h-10v.805h1c.304 0 .492.062.607.187.113.124.171.332.171.638v9c0 .333-.063.548-.188.665"/></g><g clip-path="url(#c)"><path fill="#fefefe" d="M143.16 46.665c.125-.117.188-.332.188-.665v-9c0-.306-.058-.514-.171-.638-.115-.125-.303-.187-.565-.187h-1.062v-.805h5.887c1.563 0 2.745.272 3.47.813.724.542 1.093 1.399 1.093 2.57 0 1.157-.43 2.023-1.278 2.6-.847.579-2.112.867-3.796.867-.407 0-.734-.004-.982-.012-.248-.01-.493-.021-.731-.038V46c0 .333.06.548.18.665.12.115.355.174.706.174h1.062v.795h-5.611v-.795h.887c.356 0 .563-.06.723-.174zm2.053-5.282c.116.021.243.035.38.041.136.005.346.008.632.008 1.448 0 2.44-.2 2.976-.597.534-.398.799-1.097.799-2.098 0-.946-.218-1.613-.662-2.006-.443-.393-1.224-.59-2.338-.59h-.9a.38.38 0 00-.1.008c0 .007 0 .01-.052.01-.268 0-.457.058-.568.173-.112.117-.167.33-.167.668z"/></g><g clip-path="url(#c)"><path fill="#fefefe" d="M167.903 46.722a.426.426 0 00.2-.35.914.914 0 00-.038-.231c-.065-.141-.065-.212-.12-.356l-.787-2.14h-4.607L162 45c0 .146-.1.334-.147.528-.047.193-.07.333-.07.472 0 .243.1.461.305.605.203.144.52.216.912.216h.463v.813H159v-.813h.182c.457 0 .818-.095 1.053-.285.246-.192.483-.536.711-1.141L165 35.17h.637L170 46c.14.326.28.551.42.66.138.108.386.16.743.16h.36v.814h-5.117v-.813h.768c.352 0 .594-.034.729-.099zm-1.054-3.948l-2.032-4.925-1.956 4.925z"/></g><g clip-path="url(#c)"><path fill="#fefefe" d="M182.609 35.37h9.573v.804h-1.112c-.24 0-.416.065-.53.195-.115.13-.172.336-.172.631v9.838h1.814V51h-.652c-.09-1.249-.368-2.129-.836-2.625-.468-.494-1.262-.742-2.384-.742h-3.853c-1.115 0-1.907.248-2.375.742-.468.496-.75 1.376-.844 2.625h-.628v-4.162h1.74c.65-1.04 1.157-2.352 1.53-3.936.373-1.582.56-3.242.56-4.978 0-.752-.083-1.232-.247-1.439-.193-.207-.491-.31-.982-.31h-.602zm2.809.804c-.056 2.488-.248 4.585-.577 6.29-.328 1.705-.841 3.163-1.463 4.374h5.126V36.174z"/></g><g clip-path="url(#c)"><path fill="#fefefe" d="M102.424 36.365c.108-.128.283-.19.522-.19h1.113v-.805h-9.791v.804h.577c.48 0 .802.097.97.29.185.194.25.59.25 1.186 0 .225-.065 1.205-.065 1.662-.107 1.796-.546 5.506-1.19 6.303-.374.454-.948.754-1.81.968l.136.292.39 1.125h.175c2.617-.903 2.778-3.805 3.102-7.124.05-.517.134-1.978.14-2.072.057-1.025.057-1.61.135-1.75.071-.332.21-.562.414-.69.203-.127.508-.19 1.024-.19h1.88V46c0 .333-.063.547-.188.664-.125.116-.366.174-.722.174h-.904v.795h5.477v-.795h-.904c-.35 0-.587-.058-.71-.174-.122-.117-.184-.331-.184-.664v-9c0-.3.055-.508.163-.635"/></g></svg>