<svg xmlns="http://www.w3.org/2000/svg" width="72" height="59"><path fill="none" stroke="#fff" stroke-miterlimit="20" stroke-width="2" d="M35.75 20c-10.617 0-15.66 9.267-15.66 9.267v0s5.043 9.267 15.66 9.267c10.616 0 15.66-9.267 15.66-9.267v0S46.365 20 35.75 20z"/><path fill="none" stroke="#fff" stroke-miterlimit="20" stroke-width="2" d="M35.75 22.12c-3.812 0-6.9 3.079-6.9 6.88 0 3.796 3.088 6.875 6.9 6.875 3.812 0 6.901-3.08 6.901-6.875 0-3.801-3.09-6.88-6.9-6.88z"/><path fill="none" stroke="#fff" stroke-linecap="round" stroke-miterlimit="20" stroke-width="2" d="M33.458 27.52a2.725 2.725 0 00-.368 1.373 2.754 2.754 0 002.759 2.75"/></svg>