<svg xmlns="http://www.w3.org/2000/svg" width="72" height="68"><path fill="none" stroke="#fff" stroke-miterlimit="20" stroke-width="2" d="M26.264 44.312a3.138 3.138 0 00-3.132-3.142A3.137 3.137 0 0020 44.312c0 1.688 1.402 3.142 3.132 3.142 1.729 0 3.132-1.454 3.132-3.142zm25.19-21.17A3.138 3.138 0 0048.322 20a3.137 3.137 0 00-3.132 3.142 3.137 3.137 0 003.132 3.142 3.138 3.138 0 003.132-3.142zm-12.66 10.52a3.138 3.138 0 00-3.132-3.142 3.137 3.137 0 00-3.132 3.142 3.137 3.137 0 003.132 3.14 3.137 3.137 0 003.132-3.14z"/><path fill="none" stroke="#fff" stroke-linecap="round" stroke-miterlimit="20" stroke-width="2" d="M23.13 20.05V41m12.53-4.2v10.47m0-27.22v10.472m12.53-4.242v20.989"/></svg>