<svg xmlns="http://www.w3.org/2000/svg" width="58" height="64"><path fill="none" stroke="#000" stroke-miterlimit="20" stroke-width="2" d="M36.899 27.934c0 4.38-3.517 7.934-7.899 7.934-4.294 0-7.81-3.553-7.81-7.934C21.19 23.55 24.706 20 29 20c4.382 0 7.899 3.551 7.899 7.934z"/><path fill="none" stroke="#000" stroke-miterlimit="20" stroke-width="2" d="M33.755 27.93c0 2.63-2.11 4.76-4.755 4.76-2.56 0-4.67-2.13-4.67-4.76s2.11-4.76 4.67-4.76a4.746 4.746 0 014.755 4.76zM23.44 33.49v0l-3.03 7.572v0l3.438-.431v0L26 43.31v0l2.56-7.44v0m6.1-2.38v0l3.03 7.572v0l-3.438-.431v0l-2.158 2.679v0l-2.554-7.44v0"/></svg>